<?xml version="1.0" standalone="no"?>
<!DOCTYPE svg PUBLIC "-//W3C//DTD SVG 20010904//EN"
 "http://www.w3.org/TR/2001/REC-SVG-20010904/DTD/svg10.dtd">
<svg version="1.0" xmlns="http://www.w3.org/2000/svg"
 width="560.000000pt" height="392.000000pt" viewBox="0 0 560.000000 392.000000"
 preserveAspectRatio="xMidYMid meet">

<g transform="translate(0.000000,392.000000) scale(0.100000,-0.100000)"
fill="#000000" stroke="none">
<path d="M2117 3433 c-4 -3 -7 -107 -7 -230 l0 -223 -187 0 c-169 0 -191 -2
-220 -20 -72 -43 -68 -5 -71 -694 l-3 -621 -39 -40 c-62 -63 -91 -139 -91
-232 0 -75 19 -160 46 -213 13 -25 12 -27 -43 -55 -31 -17 -87 -58 -123 -92
-58 -55 -71 -63 -105 -63 -48 0 -67 -12 -62 -36 3 -19 44 -19 1568 -19 1524 0
1565 0 1568 19 5 23 -14 36 -52 36 -21 0 -46 17 -99 65 -122 113 -278 172
-432 162 -88 -5 -179 -35 -223 -72 -23 -19 -36 -23 -73 -18 -24 2 -61 11 -82
19 -20 8 -64 14 -96 14 -72 0 -103 22 -137 94 -44 93 -73 86 342 86 318 0 370
2 400 16 60 29 68 57 74 256 l5 176 145 -119 c82 -67 161 -124 182 -130 56
-18 103 -4 148 43 51 51 68 103 51 157 -13 46 -56 85 -343 320 l-188 153 0
344 c0 373 -2 385 -54 434 -27 24 -34 25 -194 30 -157 5 -169 6 -199 29 -33
25 -33 25 -33 110 l0 86 -117 117 -118 118 -566 0 c-311 0 -569 -3 -572 -7z
m1105 -155 l3 -103 103 -3 102 -3 0 -50 c0 -45 -2 -50 -17 -44 -10 4 -36 14
-57 22 -22 8 -44 21 -50 29 -17 22 -1011 16 -1011 -6 0 -13 48 -15 364 -18
l364 -2 -59 -30 c-33 -16 -81 -47 -108 -70 l-48 -40 -260 0 c-203 0 -259 -3
-256 -12 4 -10 65 -14 246 -18 l241 -5 -28 -45 c-16 -25 -31 -55 -35 -68 -7
-22 -9 -22 -211 -22 -139 0 -206 -4 -211 -11 -14 -23 26 -29 210 -29 162 0
187 -2 182 -15 -3 -8 -8 -37 -12 -65 l-7 -50 -186 -2 c-157 -3 -186 -5 -186
-18 0 -13 29 -15 186 -18 l186 -2 6 -45 c4 -25 9 -56 13 -70 l6 -25 -201 0
c-171 0 -201 -2 -201 -15 0 -12 32 -15 207 -17 l206 -3 20 -35 c10 -19 28 -50
39 -67 l19 -33 -243 -2 c-208 -3 -243 -5 -243 -18 0 -13 37 -15 264 -18 l263
-2 41 -36 c23 -19 66 -47 97 -62 l55 -27 -363 -3 c-284 -2 -363 -5 -359 -15 5
-15 1007 -23 1016 -8 4 5 24 16 46 24 22 8 48 18 58 22 16 7 17 -8 17 -229 l0
-236 -591 0 c-420 0 -603 3 -630 12 l-39 11 0 849 0 848 525 0 524 0 3 -102z
m118 7 l74 -75 -77 0 -77 0 0 75 c0 41 1 75 3 75 1 0 36 -34 77 -75z m51 -267
c138 -68 235 -200 259 -350 36 -234 -123 -463 -359 -518 -79 -18 -191 -8 -276
26 -56 22 -84 42 -141 98 -79 79 -115 145 -134 244 -44 220 88 445 305 521 49
18 79 21 166 19 99 -3 110 -6 180 -40z m-1281 -138 l0 -40 -172 -2 -173 -3 -3
-465 -2 -466 -30 -11 -30 -11 0 496 c0 274 4 502 8 508 19 28 53 33 225 34
l177 0 0 -40z m1753 29 c12 -7 25 -17 29 -23 10 -15 10 -646 1 -646 -5 1 -18
9 -30 19 -22 19 -23 23 -25 297 l-3 279 -88 5 c-86 5 -88 6 -107 38 -11 18
-20 35 -20 37 0 11 222 4 243 -6z m-1753 -674 l0 -545 -55 0 c-41 0 -55 4 -55
14 0 8 18 50 40 92 22 43 40 81 40 86 0 22 -33 3 -57 -33 l-26 -40 -25 31
c-28 35 -62 55 -114 64 l-38 7 0 434 0 435 145 0 145 0 0 -545z m1670 285 c0
-143 -3 -260 -7 -260 -5 0 -32 22 -60 48 l-52 47 24 70 c39 115 42 199 10 328
-7 26 -6 27 39 27 l46 0 0 -260z m-61 -297 l43 -38 -26 -32 -27 -32 -69 56
-69 56 26 33 25 34 27 -19 c14 -10 46 -36 70 -58z m-118 -90 c70 -58 77 -67
59 -78 -23 -14 -6 -43 55 -93 l65 -53 0 -125 0 -124 -145 0 -145 0 0 253 c0
249 3 277 33 277 5 0 40 -26 78 -57z m-1730 -273 c20 -6 44 -19 53 -29 18 -19
17 -19 -36 -5 -73 19 -100 18 -96 -3 2 -12 23 -22 65 -33 34 -8 65 -18 68 -22
13 -13 -84 -20 -116 -9 -51 18 -120 61 -114 71 7 11 91 38 120 39 11 1 36 -4
56 -9z m2006 -32 c23 -21 23 -25 23 -225 0 -190 -1 -204 -20 -223 -20 -20 -33
-20 -750 -20 l-730 0 0 39 c0 47 -22 113 -55 163 l-25 38 757 2 758 3 3 123
c1 67 6 122 9 122 4 0 17 -10 30 -22z m-2117 -118 c0 -11 -6 -20 -14 -20 -8 0
-21 -3 -30 -6 -13 -5 -16 2 -16 35 l0 42 30 -16 c18 -9 30 -23 30 -35z m200 8
c-1 -33 -16 -39 -79 -32 -33 3 -61 10 -61 14 0 3 28 11 63 17 34 5 65 11 70
11 4 1 7 -4 7 -10z m248 -112 c35 -18 85 -72 108 -116 30 -56 26 -196 -9 -278
-34 -82 -108 -186 -159 -223 -64 -46 -79 -36 -26 19 97 98 158 238 158 361 0
87 -22 149 -72 205 -42 49 -43 54 0 32z m262 -323 c-1 -29 -39 -106 -67 -135
-15 -16 -37 -28 -50 -28 l-23 0 18 38 c11 20 25 55 31 77 7 22 14 46 16 53 3
6 20 12 40 12 27 0 35 -4 35 -17z m600 -3 c0 -28 36 -119 56 -141 17 -19 10
-19 -326 -19 -336 0 -343 0 -326 19 20 22 56 113 56 141 0 19 7 20 270 20 263
0 270 -1 270 -20z m835 -175 c83 -21 174 -68 226 -115 l44 -39 -372 -1 -373 0
0 41 0 41 50 -7 c43 -6 53 -4 82 18 98 73 216 94 343 62z m-2261 -97 l46 -58
-147 0 -148 1 40 34 c48 41 147 97 156 87 4 -4 27 -33 53 -64z m1726 -3 l0
-45 -570 0 c-360 0 -570 4 -570 10 0 5 14 25 31 45 l31 35 539 0 539 0 0 -45z"/>
<path d="M2295 1929 c-4 -6 -3 -15 2 -20 5 -5 213 -8 509 -7 436 3 499 5 499
18 0 13 -64 15 -502 18 -356 1 -504 -1 -508 -9z"/>
<path  d="M3110 2966 c-108 -23 -206 -101 -257 -204 -25 -51 -28 -68 -28 -157
0 -93 2 -105 32 -166 39 -79 102 -140 181 -177 50 -24 70 -27 157 -27 89 0
106 3 157 28 235 115 287 419 103 602 -56 56 -121 91 -197 105 -62 12 -78 12
-148 -4z m210 -82 c30 -14 67 -37 83 -52 l27 -26 0 -207 0 -207 -31 -27 c-68
-56 -107 -70 -204 -70 -78 0 -97 4 -140 27 -27 14 -63 40 -79 57 l-30 31 182
0 c155 0 182 2 182 15 0 13 -28 15 -194 15 l-195 0 -20 55 c-34 91 -48 84 192
87 181 3 212 5 212 18 0 13 -32 15 -214 18 l-213 2 7 37 c4 21 13 50 21 65 12
23 21 28 53 28 22 0 41 -5 44 -12 4 -10 7 -10 18 0 9 8 52 12 140 12 98 0 131
3 142 14 11 11 17 12 26 3 8 -8 14 -8 24 2 16 16 -20 45 -87 67 -62 21 -132
13 -193 -21 -27 -15 -61 -25 -84 -25 -35 0 -38 2 -28 18 15 25 82 70 126 87
65 23 169 19 233 -11z m-43 -88 c4 -3 -36 -6 -87 -6 -99 0 -111 6 -39 18 43 8
113 1 126 -12z m225 -238 c-9 -39 -10 -35 -10 42 0 77 1 81 10 43 6 -27 6 -59
0 -85z"/>
<path d="M3366 2751 c-9 -14 4 -41 21 -41 9 0 13 8 11 22 -3 23 -23 35 -32 19z"/>
<path d="M2762 1534 c-34 -23 -27 -83 11 -104 24 -13 30 -13 55 0 37 21 44 81
10 104 -12 9 -29 16 -38 16 -9 0 -26 -7 -38 -16z"/>
<path d="M946 3265 c6 -15 42 -30 51 -21 12 12 -8 36 -31 36 -18 0 -24 -4 -20
-15z"/>
<path d="M1152 3238 c3 -7 15 -15 28 -16 21 -3 22 -2 11 12 -16 19 -44 21 -39
4z"/>
<path d="M1070 3206 c0 -16 37 -32 48 -21 7 7 -25 35 -40 35 -4 0 -8 -6 -8
-14z"/>
<path d="M1292 3188 c6 -16 55 -34 65 -24 10 10 -26 36 -50 36 -10 0 -17 -5
-15 -12z"/>
<path d="M884 3179 c-9 -16 12 -33 31 -25 14 5 15 9 5 21 -15 18 -26 19 -36 4z"/>
<path d="M970 3170 c0 -12 40 -33 48 -25 4 4 -2 13 -12 21 -23 16 -36 18 -36
4z"/>
<path d="M783 3154 c-5 -15 11 -33 30 -34 15 0 20 32 6 41 -20 13 -29 11 -36
-7z"/>
<path d="M1195 3161 c-6 -11 26 -31 49 -31 25 0 19 20 -10 30 -31 12 -31 12
-39 1z"/>
<path d="M1432 3124 c9 -9 21 -13 27 -9 16 10 3 25 -22 25 -20 0 -20 -1 -5
-16z"/>
<path d="M897 3104 c-10 -11 13 -34 34 -34 11 0 19 7 19 15 0 8 -4 15 -9 15
-5 0 -16 2 -23 5 -8 3 -17 3 -21 -1z"/>
<path d="M1082 3098 c7 -20 48 -23 48 -4 0 11 -9 16 -26 16 -16 0 -24 -5 -22
-12z"/>
<path d="M1367 3073 c-4 -3 0 -15 10 -25 20 -22 63 -24 63 -3 0 24 -56 46 -73
28z"/>
<path d="M1240 3060 c0 -13 48 -36 56 -27 4 4 1 13 -6 22 -14 17 -50 20 -50 5z"/>
<path d="M1154 3048 c-8 -12 22 -38 44 -38 7 0 12 7 10 16 -4 21 -45 37 -54
22z"/>
<path d="M835 3040 c-7 -11 42 -37 51 -27 9 9 -15 37 -32 37 -7 0 -16 -4 -19
-10z"/>
<path d="M1040 3016 c0 -16 27 -29 41 -20 13 8 -9 34 -27 34 -8 0 -14 -6 -14
-14z"/>
<path d="M779 2986 c16 -19 44 -21 39 -3 -3 6 -15 14 -28 15 -21 3 -22 2 -11
-12z"/>
<path d="M930 2965 c7 -8 21 -15 32 -15 17 0 18 3 8 15 -7 8 -21 15 -32 15
-17 0 -18 -3 -8 -15z"/>
<path d="M1236 2961 c-9 -14 21 -33 45 -29 22 3 22 4 5 21 -19 18 -42 22 -50
8z"/>
<path d="M1482 2958 c5 -15 48 -24 48 -10 0 10 -23 22 -42 22 -5 0 -8 -6 -6
-12z"/>
<path d="M1115 2940 c-7 -11 42 -37 51 -27 9 9 -15 37 -32 37 -7 0 -16 -4 -19
-10z"/>
<path d="M1362 2933 c2 -11 14 -19 31 -21 29 -4 35 6 15 26 -19 19 -50 15 -46
-5z"/>
<path d="M882 2928 c3 -7 13 -15 22 -16 12 -3 17 1 14 10 -3 7 -13 15 -22 16
-12 3 -17 -1 -14 -10z"/>
<path d="M1002 2888 c5 -15 55 -35 64 -25 4 4 1 13 -6 22 -15 18 -64 21 -58 3z"/>
<path d="M840 2865 c0 -19 24 -29 46 -21 13 5 14 9 4 21 -16 20 -50 19 -50 0z"/>
<path d="M1430 2852 c0 -14 23 -32 42 -32 21 0 23 11 6 28 -13 13 -48 16 -48
4z"/>
<path d="M1280 2841 c0 -16 30 -33 46 -27 13 5 14 9 4 21 -13 16 -50 21 -50 6z"/>
<path d="M982 2798 c5 -15 55 -35 64 -25 4 4 1 13 -6 22 -15 18 -64 21 -58 3z"/>
<path d="M1160 2795 c0 -16 46 -32 58 -20 8 8 -26 35 -45 35 -7 0 -13 -7 -13
-15z"/>
<path d="M1310 2732 c0 -14 23 -32 42 -32 21 0 23 11 6 28 -13 13 -48 16 -48
4z"/>
<path d="M1140 2710 c0 -12 33 -30 54 -30 24 0 19 15 -9 28 -31 15 -45 15 -45
2z"/>
</g>
</svg>
