<svg xmlns="http://www.w3.org/2000/svg" width="264.717" height="174.695" viewBox="0 0 264.717 174.695">
  <g id="Logo_Blanco" data-name="Logo Blanco" transform="translate(-21.283 -21.305)">
    <g id="Grupo_1" data-name="Grupo 1" transform="translate(21.283 21.305)">
      <path id="Trazado_1" data-name="Trazado 1" d="M135.476,114.057l-4.432,4.391V119.9h1.467l4.112-4.081,5.212,5.522a10.015,10.015,0,0,0,.238-2.181q0-.294-.015-.582l-4.27-4.512q-.544.046-1.1.046c-.409,0-.814-.018-1.213-.056" transform="translate(-84.087 -74.376)" fill="gray"/>
      <path id="Trazado_2" data-name="Trazado 2" d="M122.05,108.053h-1.46L119,109.627a14.866,14.866,0,0,1,1.2,1.7l1.859-1.834v-1.438l-.007-.005" transform="translate(-77.196 -70.941)" fill="gray"/>
      <path id="Trazado_3" data-name="Trazado 3" d="M122.05,108.053h-1.46L119,109.627a14.866,14.866,0,0,1,1.2,1.7l1.859-1.834v-1.438l-.007-.005" transform="translate(-77.196 -70.941)" fill="#badfe1"/>
      <path id="Trazado_4" data-name="Trazado 4" d="M252.85,40.535a8.226,8.226,0,0,0-7.588,5,10.767,10.767,0,0,1,3.2,10.033,8.171,8.171,0,1,0,4.388-15.032" transform="translate(-149.441 -32.308)" fill="#bbdfde"/>
      <path id="Trazado_5" data-name="Trazado 5" d="M166.145,30.911a10.353,10.353,0,0,0-10.381,11.65,12.609,12.609,0,0,1,6.8,6.963,14.664,14.664,0,0,1,1.644-.851l-1.1-1.085V46.135h1.472l1.8,1.784a14.53,14.53,0,0,1,2.658-.438l0-1.707,1.026-1.021,1.045,1.021,0,1.7a14.608,14.608,0,0,1,2.983.513,10.373,10.373,0,0,0,1.733-2.794,9.343,9.343,0,0,1-7.355-9.085,9.189,9.189,0,0,1,1.219-4.593,10.512,10.512,0,0,0-3.541-.609" transform="translate(-98.184 -26.801)" fill="#bbdfde"/>
      <path id="Trazado_6" data-name="Trazado 6" d="M174.511,64.649h-1.472V66.1l1.1,1.085a14.563,14.563,0,0,1,2.171-.754Zm5.484-1.381-1.026,1.021,0,1.707q.528-.038,1.063-.038c.339,0,.676.01,1.008.034l0-1.7-1.045-1.021" transform="translate(-108.116 -45.316)"/>
      <path id="Trazado_7" data-name="Trazado 7" d="M174.511,64.649h-1.472V66.1l1.1,1.085a14.563,14.563,0,0,1,2.171-.754Zm5.484-1.381-1.026,1.021,0,1.707q.528-.038,1.063-.038c.339,0,.676.01,1.008.034l0-1.7-1.045-1.021" transform="translate(-108.116 -45.316)" fill="#fff"/>
      <path id="Trazado_8" data-name="Trazado 8" d="M229.222,29.458a5.868,5.868,0,0,0-3.052.85,9.2,9.2,0,0,1,1.452,4.969,9.38,9.38,0,0,1-.053.987,10.924,10.924,0,0,1,6.328,2.541,5.722,5.722,0,0,0,1.216-3.529,5.863,5.863,0,0,0-5.891-5.818" transform="translate(-138.517 -25.97)" fill="#bbdfde"/>
      <path id="Trazado_9" data-name="Trazado 9" d="M85.9,66.738a5.818,5.818,0,0,0,.934,11.57A5.909,5.909,0,0,0,92.292,74.7,11.755,11.755,0,0,1,85.9,66.738" transform="translate(-55.43 -47.301)" fill="#92cdcd"/>
      <path id="Trazado_10" data-name="Trazado 10" d="M43.69,83.234a9.148,9.148,0,1,0,0,18.3c.123,0,.243,0,.364-.007a15.029,15.029,0,0,1,8.788-10.477,9.215,9.215,0,0,0-9.155-7.812" transform="translate(-28.814 -56.74)" fill="#92cdcd"/>
      <path id="Trazado_11" data-name="Trazado 11" d="M103.665,33.4A11.77,11.77,0,0,0,91.852,45.1a11.584,11.584,0,0,0,.285,2.555,6.05,6.05,0,0,1,.932-.073,5.855,5.855,0,0,1,5.9,5.823,5.7,5.7,0,0,1-.442,2.212,11.756,11.756,0,0,0,3.162,1q-.054-.574-.053-1.159A12.563,12.563,0,0,1,114.26,42.972q.526,0,1.04.042A11.786,11.786,0,0,0,103.665,33.4" transform="translate(-61.662 -28.223)" fill="#bbdfde"/>
      <path id="Trazado_12" data-name="Trazado 12" d="M93.45,66.567a6.012,6.012,0,0,0-.932.073A11.752,11.752,0,0,0,98.9,74.6a5.711,5.711,0,0,0,.442-2.212,5.855,5.855,0,0,0-5.9-5.823" transform="translate(-62.043 -47.203)" fill="#70beb9"/>
      <path id="Trazado_13" data-name="Trazado 13" d="M220.148,51.306a5.933,5.933,0,0,1-7.725,1.432,9.482,9.482,0,0,1-9.946,4.143,10.686,10.686,0,0,0-.338,2.677c0,.2.007.408.017.609a14.532,14.532,0,0,1,8.017,7.93l2.3,2.276c.206.012.414.017.623.017a10.915,10.915,0,0,0,5.473-1.462v-2.44l-6.247-6.193V58.856h1.467l6.543,6.485a.985.985,0,0,1,.313.709v1.324a10.815,10.815,0,0,0,3.143-5.646,8.1,8.1,0,0,1-3.2-10.033c-.143-.135-.289-.264-.439-.39" transform="translate(-124.766 -38.471)" fill="#92cdcd"/>
      <path id="Trazado_14" data-name="Trazado 14" d="M220.917,78.195a14.422,14.422,0,0,1,.669,2.064,10.928,10.928,0,0,0,1.632.212Zm3.614-9.24h-1.467v1.438l6.247,6.192v2.44a10.994,10.994,0,0,0,2.076-1.552V76.15a.985.985,0,0,0-.311-.709l-6.545-6.485" transform="translate(-135.511 -48.57)"/>
      <path id="Trazado_15" data-name="Trazado 15" d="M220.917,78.195a14.422,14.422,0,0,1,.669,2.064,10.928,10.928,0,0,0,1.632.212Zm3.614-9.24h-1.467v1.438l6.247,6.192v2.44a10.994,10.994,0,0,0,2.076-1.552V76.15a.985.985,0,0,0-.311-.709l-6.545-6.485" transform="translate(-135.511 -48.57)" fill="#b8e0e6"/>
      <path id="Trazado_16" data-name="Trazado 16" d="M244.411,52.217a8.1,8.1,0,0,0,3.2,10.033,10.767,10.767,0,0,0-3.2-10.033" transform="translate(-148.59 -38.992)" fill="#70beb9"/>
      <path id="Trazado_17" data-name="Trazado 17" d="M227.573,45.369a9.172,9.172,0,0,1-1.4,3.973,5.936,5.936,0,0,0,7.725-1.434,10.922,10.922,0,0,0-6.328-2.539" transform="translate(-138.521 -35.074)" fill="#70beb9"/>
      <path id="Trazado_18" data-name="Trazado 18" d="M65.7,101.494a15.028,15.028,0,0,0-8.788,10.477A9.14,9.14,0,0,0,65.7,101.494" transform="translate(-41.669 -67.188)" fill="#57b5ad"/>
      <path id="Trazado_19" data-name="Trazado 19" d="M128.453,55.877a11.691,11.691,0,0,1-11.631,13.775,11.876,11.876,0,0,1-1.984-.165,12.38,12.38,0,0,0,3.225,7.241,10.39,10.39,0,0,1,8.206-.323V68.419L127.3,67.4l1.041,1.017v9.074a10.265,10.265,0,0,1,2.765,2.788,13.021,13.021,0,0,0,1.525-.572,14.334,14.334,0,0,1,5.252-15.015,10.361,10.361,0,0,1-5.49-7.848,12.632,12.632,0,0,0-3.941-.969" transform="translate(-74.814 -41.087)" fill="#92cdcd"/>
      <path id="Trazado_20" data-name="Trazado 20" d="M142.589,82.816l-1.031,1.016v7.989a10.186,10.186,0,0,1,2.071,1.087V83.832Z" transform="translate(-90.103 -56.501)" fill="gray"/>
      <path id="Trazado_21" data-name="Trazado 21" d="M132.656,104.024v3.1l.173.184a12.634,12.634,0,0,0,2.591-.5,10.245,10.245,0,0,0-2.765-2.788m-5.8-1.777a10.33,10.33,0,0,0-4.477,1.013,12.777,12.777,0,0,0,1.6,1.472h.009v0a12.639,12.639,0,0,0,6.527,2.563l.068-.068v-4.293a10.31,10.31,0,0,0-3.73-.692" transform="translate(-79.129 -67.619)" fill="#64bbb8"/>
      <path id="Trazado_22" data-name="Trazado 22" d="M141.47,103.863v4.293l-.068.068c.4.037.8.056,1.213.056.371,0,.737-.015,1.1-.046l-.174-.184v-3.1a10.223,10.223,0,0,0-2.071-1.087" transform="translate(-90.014 -68.544)" fill="silver"/>
      <path id="Trazado_23" data-name="Trazado 23" d="M126.136,108.053h-.007l.007.005Z" transform="translate(-81.275 -70.941)" fill="silver"/>
      <path id="Trazado_24" data-name="Trazado 24" d="M126.136,108.053h-.007l.007.005Z" transform="translate(-81.275 -70.941)" fill="#64bbb8"/>
      <path id="Trazado_25" data-name="Trazado 25" d="M155.874,58.142a10.359,10.359,0,0,0,5.49,7.848,14.486,14.486,0,0,1,1.308-.885,12.622,12.622,0,0,0-6.8-6.963" transform="translate(-98.294 -42.383)" fill="#75c2c2"/>
      <path id="Trazado_26" data-name="Trazado 26" d="M127.339,55.78a12.564,12.564,0,0,0-12.63,12.494q0,.585.055,1.159a12.107,12.107,0,0,0,1.984.163,11.752,11.752,0,0,0,11.819-11.687,11.552,11.552,0,0,0-.188-2.086c-.342-.029-.689-.043-1.04-.042" transform="translate(-74.74 -41.031)" fill="#75c2c2"/>
      <path id="Trazado_27" data-name="Trazado 27" d="M196.6,21.305a9.426,9.426,0,0,0-8.189,4.718,10.368,10.368,0,0,1,6.92,9.745,10.208,10.208,0,0,1-.784,3.932l.073.015a10.887,10.887,0,0,1,7.313-7.639,5.7,5.7,0,0,1-.189-1.464,5.8,5.8,0,0,1,2.819-4.97,9.434,9.434,0,0,0-7.964-4.338" transform="translate(-116.913 -21.305)" fill="#bbdfde"/>
      <path id="Trazado_28" data-name="Trazado 28" d="M186.783,32.334a9.191,9.191,0,0,0-1.221,4.593,9.341,9.341,0,0,0,7.357,9.083,10.186,10.186,0,0,0,.784-3.932,10.369,10.369,0,0,0-6.919-9.743" transform="translate(-115.281 -27.616)" fill="#91cdcc"/>
      <path id="Trazado_29" data-name="Trazado 29" d="M222.4,31.443a5.785,5.785,0,0,0-2.629,6.433,11.115,11.115,0,0,1,3.3-.5c.245,0,.488.007.728.024a9.093,9.093,0,0,0,.053-.988,9.2,9.2,0,0,0-1.452-4.97" transform="translate(-134.746 -27.106)" fill="#91cdcc"/>
      <path id="Trazado_30" data-name="Trazado 30" d="M210.24,46.482a10.9,10.9,0,0,0-7.314,7.639,9.485,9.485,0,0,0,9.948-4.143,5.825,5.825,0,0,1-2.634-3.5" transform="translate(-125.217 -35.711)" fill="#75c2c2"/>
      <path id="Trazado_31" data-name="Trazado 31" d="M223.324,45.314a11.115,11.115,0,0,0-3.3.5,5.838,5.838,0,0,0,2.633,3.5,9.173,9.173,0,0,0,1.4-3.973c-.242-.015-.483-.024-.728-.024" transform="translate(-134.999 -35.043)" fill="#5eb8b4"/>
      <path id="Trazado_32" data-name="Trazado 32" d="M160.087,85.775a12.679,12.679,0,0,1-3.656,2.493,14.3,14.3,0,0,0,2.652,5.324l4.452-4.416ZM163.505,74a12.4,12.4,0,0,1-2.078,10.233h.021l4.282,4.227a1.012,1.012,0,0,1,0,1.443l-5.255,5.206a14.541,14.541,0,0,0,2.8,2.075,14.4,14.4,0,0,1,6.183-1.906l0-18.994-1.9-1.876c-.325.031-.652.046-.984.046A10.577,10.577,0,0,1,163.505,74m11.011-3.165a10.537,10.537,0,0,1-2.987,2.384l-.006,2.619v5.149l4.507-4.612,1.467-.029.024,1.443-6,6.142,0,11.34a14.408,14.408,0,0,1,1.95.264V90.065l1.041-1.026,1.026,1.025V96.12a14.3,14.3,0,0,1,2.258,1.056,14.556,14.556,0,0,0,5.024-4.763l-.893-.883V90.088h1.467l.448.442a14.213,14.213,0,0,0,1.243-5.835A14.6,14.6,0,0,0,185,83.121l-2.522-2.494A10.852,10.852,0,0,1,176,71.342a14.147,14.147,0,0,0-1.485-.507" transform="translate(-98.613 -49.645)" fill="#2da9a6"/>
      <path id="Trazado_33" data-name="Trazado 33" d="M217.5,103.184h-1.465v1.443l.892.883a14.055,14.055,0,0,0,1.021-1.884Zm-.915-9.46,2.52,2.494a14.1,14.1,0,0,0-.311-1.786,11.035,11.035,0,0,1-2.209-.708" transform="translate(-132.715 -62.742)"/>
      <path id="Trazado_34" data-name="Trazado 34" d="M217.5,103.184h-1.465v1.443l.892.883a14.055,14.055,0,0,0,1.021-1.884Zm-.915-9.46,2.52,2.494a14.1,14.1,0,0,0-.311-1.786,11.035,11.035,0,0,1-2.209-.708" transform="translate(-132.715 -62.742)" fill="#74aeab"/>
      <path id="Trazado_35" data-name="Trazado 35" d="M165,87.421h-.022a12.455,12.455,0,0,1-1.341,1.542l3.449,3.4-4.452,4.416a14.679,14.679,0,0,0,1.39,1.517l5.257-5.206a1.011,1.011,0,0,0,0-1.443Zm10.08-11.014a10.444,10.444,0,0,1-3.969,1.188l1.9,1.876,0,18.994c.359-.026.72-.039,1.085-.039.33,0,.657.01.982.032l0-11.34,5.995-6.141-.024-1.443-1.467.029-4.5,4.612V79.027l0-2.62" transform="translate(-102.16 -52.834)"/>
      <path id="Trazado_36" data-name="Trazado 36" d="M165,87.421h-.022a12.455,12.455,0,0,1-1.341,1.542l3.449,3.4-4.452,4.416a14.679,14.679,0,0,0,1.39,1.517l5.257-5.206a1.011,1.011,0,0,0,0-1.443Zm10.08-11.014a10.444,10.444,0,0,1-3.969,1.188l1.9,1.876,0,18.994c.359-.026.72-.039,1.085-.039.33,0,.657.01.982.032l0-11.34,5.995-6.141-.024-1.443-1.467.029-4.5,4.612V79.027l0-2.62" transform="translate(-102.16 -52.834)" fill="#c1e4ef"/>
      <path id="Trazado_37" data-name="Trazado 37" d="M197.3,113.387l-1.041,1.026v5.468a14.453,14.453,0,0,1,2.067.585v-6.054Z" transform="translate(-121.403 -73.993)"/>
      <path id="Trazado_38" data-name="Trazado 38" d="M197.3,113.387l-1.041,1.026v5.468a14.453,14.453,0,0,1,2.067.585v-6.054Z" transform="translate(-121.403 -73.993)" fill="#c1e4ef"/>
      <path id="Trazado_39" data-name="Trazado 39" d="M173.408,70.829a14.731,14.731,0,0,0-1.643.851,12.416,12.416,0,0,1,.514,1.631,10.5,10.5,0,0,0,3.071.454c.332,0,.661-.015.984-.046Zm4.829-1.191a14.654,14.654,0,0,0-2.658.438l2.653,2.631,0-3.069m2.071,0,0,2.9a10.52,10.52,0,0,0,2.987-2.384,14.731,14.731,0,0,0-2.983-.513" transform="translate(-107.387 -48.958)" fill="#23a492"/>
      <path id="Trazado_40" data-name="Trazado 40" d="M181.5,69.555c-.357,0-.711.012-1.064.038l0,3.07-2.651-2.632a14.588,14.588,0,0,0-2.171.754l2.924,2.891a10.446,10.446,0,0,0,3.97-1.188l0-2.9c-.332-.022-.669-.034-1.008-.034" transform="translate(-109.586 -48.913)"/>
      <path id="Trazado_41" data-name="Trazado 41" d="M181.5,69.555c-.357,0-.711.012-1.064.038l0,3.07-2.651-2.632a14.588,14.588,0,0,0-2.171.754l2.924,2.891a10.446,10.446,0,0,0,3.97-1.188l0-2.9c-.332-.022-.669-.034-1.008-.034" transform="translate(-109.586 -48.913)" fill="#c1e4ef"/>
      <path id="Trazado_42" data-name="Trazado 42" d="M202.18,72.017a10.849,10.849,0,0,0,6.475,9.286l-.385-.379v-1.44h1.456l.468.462a14.529,14.529,0,0,0-8.015-7.93" transform="translate(-124.79 -50.322)" fill="#21a186"/>
      <path id="Trazado_43" data-name="Trazado 43" d="M217.875,89.471h-1.456v1.438l.385.381a10.839,10.839,0,0,0,2.209.708,14.386,14.386,0,0,0-.669-2.064Z" transform="translate(-132.937 -60.309)"/>
      <path id="Trazado_44" data-name="Trazado 44" d="M217.875,89.471h-1.456v1.438l.385.381a10.839,10.839,0,0,0,2.209.708,14.386,14.386,0,0,0-.669-2.064Z" transform="translate(-132.937 -60.309)" fill="#74aeab"/>
      <path id="Trazado_45" data-name="Trazado 45" d="M161.079,76.487A14.337,14.337,0,0,0,155.827,91.5a12.723,12.723,0,0,0,3.656-2.493l-.09-.089V87.467h1.431A12.4,12.4,0,0,0,162.9,77.234a10.381,10.381,0,0,1-1.822-.747" transform="translate(-98.009 -52.879)" fill="#21a186"/>
      <path id="Trazado_46" data-name="Trazado 46" d="M166.2,102.153h-1.431V103.6l.09.09a12.708,12.708,0,0,0,1.34-1.542" transform="translate(-103.382 -67.565)" fill="#404040"/>
      <path id="Trazado_47" data-name="Trazado 47" d="M166.2,102.153h-1.431V103.6l.09.09a12.708,12.708,0,0,0,1.34-1.542" transform="translate(-103.382 -67.565)" fill="#bcdfd9"/>
      <path id="Trazado_48" data-name="Trazado 48" d="M170.014,74.418a14.856,14.856,0,0,0-1.308.885,10.489,10.489,0,0,0,1.822.747,12.419,12.419,0,0,0-.514-1.632" transform="translate(-105.637 -51.696)" fill="#249f7d"/>
      <path id="Trazado_49" data-name="Trazado 49" d="M111.769,228.128v-.944a1.021,1.021,0,0,0-.3-.728l-6.329-6.24,0-11.74-1.045-1.026-1.031,1.026,0,9.7-10.946-10.8a1.028,1.028,0,0,0-1.462,0L84.9,213.071l-4.971-4.75,5.594-5.541v-1.448H84.063L78.44,206.9l-5.662-5.4,0-12.086-1.03-1.024-1.036,1.025V199.4l-4.7-4.815-1.457-.024-.024,1.452L71,202.627l.039.044L84.2,215.238a1.029,1.029,0,0,0,1.438-.011l5.757-5.685,5,4.95-5.655,5.6-5.532-.231-1.084,1,.987,1.05,6,.22h.042a.955.955,0,0,0,.723-.293l5.992-5.9,11.846,11.679v.514c0,13.244-3.057,36.758-23.472,45.36l-.546,1.327a9.187,9.187,0,0,0,1.353.556c21.521-9.072,24.719-33.49,24.717-47.244" transform="translate(-46.031 -116.907)" fill="#fff"/>
      <path id="Trazado_50" data-name="Trazado 50" d="M208.107,158.969l-.007-15.455,8.714-8.605v-1.452h-1.472l-7.242,7.171-.007-12.664L226.844,109.4l5.287,5.235a1.019,1.019,0,0,0,1.467,0l6.361-6.281v-1.452h-1.472l-5.618,5.566-4.559-4.5,11.977-11.866a1.006,1.006,0,0,0,.3-.713V88.537l-1.013-1.016-1.055,1.016v6.428l-5.434,5.384-5.539-5.478h-1.465v1.443l5.546,5.487-4.782,4.722L214.885,94.7l5.053-5.015a1.036,1.036,0,0,0,.311-.718l0-12.817a1,1,0,0,0-.311-.711l-6.545-6.483h-1.467v1.438l6.247,6.193V86.5l-8.864-8.772H207.85v1.44l9.9,9.8-4.338,4.271-4.261-4.228h-1.467v1.443l17.705,17.518-19.062,18.847a.971.971,0,0,0-.29.728v5.6h-3.562l-1.031,1.021,1.031,1.026h3.561v7.464l-3.336,3.3a1.042,1.042,0,0,0-.3.729l0,12.276-.009,1.245c-.024,1.659-.033,4.41.01,7.924.175,11.553,3.16,34.673,10.679,50.954l1.356.517.512-1.353c-6.534-14.177-10.272-36.409-10.48-50.151-.058-3.482-.03-6.233,0-7.863l.017-13.129,1.553-1.557,0,13.411c.007,46.079,21.8,53.406,22.738,53.683l1.295-.652-.672-1.285c-.211-.077-21.288-7.311-21.3-51.747" transform="translate(-124.37 -48.57)" fill="#fff"/>
      <path id="Trazado_51" data-name="Trazado 51" d="M204.012,146.206l.024-.014,12.293-12.077,0-1.453h-1.453l-11.637,11.415-5-4.726,5.655-5.206.053-1.443-1.451-.062-4.75,4.353,0-22.582-1.026-1.026-1.041,1.026,0,24.93.026.1,0,.077a.426.426,0,0,0,.029.114.561.561,0,0,0,.026.092l.047.1.047.077a.349.349,0,0,0,.087.121l.024.019,0,.015.034.038,5.786,5.43-6.254,6.128a1.074,1.074,0,0,0-.3.723l.015,95.3,1.034,1.017,1.031-1.018L197.3,152.8l6.686-6.569Z" transform="translate(-120.817 -73.992)" fill="#fff"/>
      <path id="Trazado_52" data-name="Trazado 52" d="M121.514,162.134a1.051,1.051,0,0,0-.3-.725l-5.627-5.568,6.029-5.973v-1.443h-1.458l-6.038,5.982L102.6,142.991l0-12.012a.938.938,0,0,0-.3-.7l-6.569-6.667v-5.877a.978.978,0,0,0-.311-.728l-2.992-2.962,4.61-4.55v-1.443H95.569l-4.592,4.55-3.351-3.3H86.173v1.438l7.488,7.411v5.858a1.069,1.069,0,0,0,.293.733l6.569,6.657,0,11.6-5.33,4.9-5.71-5.641,5.55-5.5v-1.438H93.578l-5.555,5.49-4.751-4.7-.01-.025,0-16.982L82.215,118.1l-1.026,1.012,0,14.946-4.464-4.433H75.271v1.452l6.16,6.107.058.071,12.95,12.8a1.024,1.024,0,0,0,1.428.024l5.669-5.206h.021l17.892,17.689v5.474h-3.331l-1.041,1.036,1.042,1.007h3.331l0,11.269c.007,44.434-21.074,51.677-21.295,51.754l-.662,1.285a8.768,8.768,0,0,0,1.3.652c.919-.278,22.724-7.611,22.717-53.691Z" transform="translate(-52.174 -70.941)" fill="#fff"/>
      <path id="Trazado_53" data-name="Trazado 53" d="M280.157,251.635a9.583,9.583,0,1,1-9.584-9.476,9.532,9.532,0,0,1,9.584,9.476" transform="translate(-158.441 -147.675)" fill="#2da9a6"/>
      <path id="Trazado_54" data-name="Trazado 54" d="M323.417,152.1A15.786,15.786,0,1,1,307.63,136.48,15.693,15.693,0,0,1,323.417,152.1" transform="translate(-176.096 -87.207)" fill="#2da9a6"/>
      <path id="Trazado_55" data-name="Trazado 55" d="M286.087,212.386a9.676,9.676,0,0,0-2.528.334l-1.094,1.094a10.023,10.023,0,0,1,.033,2.972l4.363,4.314v1.433H285.4l-3.506-3.46a10.171,10.171,0,0,1-5.032,5.4,9.391,9.391,0,0,0,.337.963,9.739,9.739,0,0,1,2.454-.315,9.592,9.592,0,0,1,8.881,5.915,9.472,9.472,0,0,0-2.45-18.651" transform="translate(-167.524 -130.639)" fill="#51b4b1"/>
      <path id="Trazado_56" data-name="Trazado 56" d="M289.227,217.233a9.981,9.981,0,0,1-.6,2.287l3.506,3.46h1.458v-1.433Zm1.061-4.067a9.642,9.642,0,0,0-1.225.422c.051.221.1.444.131.672l1.094-1.094" transform="translate(-174.254 -131.085)"/>
      <path id="Trazado_57" data-name="Trazado 57" d="M289.227,217.233a9.981,9.981,0,0,1-.6,2.287l3.506,3.46h1.458v-1.433Zm1.061-4.067a9.642,9.642,0,0,0-1.225.422c.051.221.1.444.131.672l1.094-1.094" transform="translate(-174.254 -131.085)" fill="#191718"/>
      <path id="Trazado_58" data-name="Trazado 58" d="M280.105,242.159a9.675,9.675,0,0,0-2.455.315,9.592,9.592,0,0,0,8.889,5.911,9.766,9.766,0,0,0,2.447-.312,9.592,9.592,0,0,0-8.881-5.915" transform="translate(-167.973 -147.675)" fill="#1fa188"/>
      <path id="Trazado_59" data-name="Trazado 59" d="M59.337,192.8a4.86,4.86,0,1,0,2.593,8.989l-3.182-3.257.024-1.451,1.458.024,3.182,3.263a4.806,4.806,0,0,0,.83-2.707,4.879,4.879,0,0,0-4.9-4.86" transform="translate(-40.246 -119.433)" fill="#2da9a6"/>
      <path id="Trazado_60" data-name="Trazado 60" d="M64.556,202.81l-.024,1.451,3.183,3.256A4.9,4.9,0,0,0,69.2,206.1l-3.182-3.263Z" transform="translate(-46.03 -125.16)"/>
      <path id="Trazado_61" data-name="Trazado 61" d="M64.556,202.81l-.024,1.451,3.183,3.256A4.9,4.9,0,0,0,69.2,206.1l-3.182-3.263Z" transform="translate(-46.03 -125.16)" fill="#fff"/>
      <path id="Trazado_62" data-name="Trazado 62" d="M267.651,173.013l-.01-1.438-1.451.009-12.71,12.7-1.05-1.04a11.225,11.225,0,0,1-2.24.671l-3.523-3.474,5.366,5.291L240.6,197.148l-5.561-5.5,0-10.59-1.035-1.01-1.036,1.01,0,11.007a1.016,1.016,0,0,0,.3.728l5.873,5.81L227.722,210.02l-5.556-5.492h-1.45v1.453l5.561,5.492-5.5,5.485a1.036,1.036,0,0,0-.293.728,85.674,85.674,0,0,0,.893,12.474c1.944,13.115,7.728,28.487,23.37,35.517l1.37-.5-.507-1.351c-19.866-8.923-23-32.3-23.064-45.732l11.622-11.614L239.749,212a1.012,1.012,0,0,0,.738.291H247.4l1.04-1.019-1.04-1.013h-6.491l-5.274-5.23,11.642-11.645,5.867,5.794H254.6v-1.433l-5.873-5.81Z" transform="translate(-135.266 -107.288)" fill="#fff"/>
      <path id="Trazado_63" data-name="Trazado 63" d="M273.174,157.325a17.262,17.262,0,0,1-5.71,3.144l1.271,1.254Zm4.856-2.3a18.029,18.029,0,0,1-2.495.172h-.219c-.279.329-.57.648-.873.954h1.382v1.453l-6.361,6.279a1.016,1.016,0,0,1-1.467,0l-2.872-2.841q-.493.087-1,.145a11.356,11.356,0,0,1,.257,9.392,11.133,11.133,0,0,0,2.205,2.035,10.2,10.2,0,0,1,4.577,1.871,11.473,11.473,0,0,0,3.99-.041l-3.523-3.476v-1.456H273.1l4.3,4.26a11.237,11.237,0,0,0,2.14-1.185,15.5,15.5,0,0,1-1.51-17.563" transform="translate(-160.237 -97.82)" fill="#319a95"/>
      <path id="Trazado_64" data-name="Trazado 64" d="M277.158,157.664h-1.38c-.4.41-.829.8-1.271,1.167l-4.439,4.4-1.271-1.255a17.225,17.225,0,0,1-2.338.579l2.871,2.842a1.015,1.015,0,0,0,1.467,0l6.361-6.281Z" transform="translate(-161.57 -99.328)"/>
      <path id="Trazado_65" data-name="Trazado 65" d="M277.158,157.664h-1.38c-.4.41-.829.8-1.271,1.167l-4.439,4.4-1.271-1.255a17.225,17.225,0,0,1-2.338.579l2.871,2.842a1.015,1.015,0,0,0,1.467,0l6.361-6.281Z" transform="translate(-161.57 -99.328)" fill="#fff"/>
      <path id="Trazado_66" data-name="Trazado 66" d="M295.567,154.288c-.549.131-1.109.237-1.676.317a15.5,15.5,0,0,0,1.51,17.563,10.988,10.988,0,0,0,.166-17.88" transform="translate(-176.097 -97.396)" fill="#21a28c"/>
      <path id="Trazado_67" data-name="Trazado 67" d="M258.144,210.027l-5.922,5.923a10.308,10.308,0,0,0,5.974-.909,9.35,9.35,0,0,1-.366-2.6,9.451,9.451,0,0,1,.314-2.418M246.559,200.2a11.388,11.388,0,0,1-1.491.465,10.046,10.046,0,0,0-.833,1.652,5.774,5.774,0,0,1,.545,8.477,10.17,10.17,0,0,0,5.141,4.535l2.814-2.809-5.873-5.81a1.017,1.017,0,0,1-.3-.728V200.2m7.166-4.306a10.328,10.328,0,0,0-1.888.174,11.534,11.534,0,0,1-3.207,3.077v6.42l5.561,5.5,8.955-8.946a10.154,10.154,0,0,0-3.361-4.243A11.216,11.216,0,0,1,255.208,196a10.171,10.171,0,0,0-1.484-.107" transform="translate(-148.853 -121.205)" fill="#51b4b1"/>
      <path id="Trazado_68" data-name="Trazado 68" d="M251.739,203.5a11.622,11.622,0,0,1-2.071,1.055v5.782a1.024,1.024,0,0,0,.3.728l5.873,5.808-2.812,2.811a10.175,10.175,0,0,0,2.3.617l5.923-5.924a9.545,9.545,0,0,1,5.519-6.318,9.9,9.9,0,0,0-.516-1.591l-8.955,8.948-5.561-5.5Z" transform="translate(-151.962 -125.553)" fill="#d9d9d9"/>
      <path id="Trazado_69" data-name="Trazado 69" d="M251.739,203.5a11.622,11.622,0,0,1-2.071,1.055v5.782a1.024,1.024,0,0,0,.3.728l5.873,5.808-2.812,2.811a10.175,10.175,0,0,0,2.3.617l5.923-5.924a9.545,9.545,0,0,1,5.519-6.318,9.9,9.9,0,0,0-.516-1.591l-8.955,8.948-5.561-5.5Z" transform="translate(-151.962 -125.553)" fill="#fff"/>
      <path id="Trazado_70" data-name="Trazado 70" d="M279.047,218.649l-2.719,2.721a9.435,9.435,0,0,0,.05,5.013,10.159,10.159,0,0,0,5.032-5.4Zm2.931-2.927L280.5,217.2l1.511,1.493a10.022,10.022,0,0,0-.033-2.972" transform="translate(-167.037 -132.548)" fill="#33aba8"/>
      <path id="Trazado_71" data-name="Trazado 71" d="M282.265,214.152a9.547,9.547,0,0,0-5.519,6.319l2.72-2.72,2.362,2.332a9.782,9.782,0,0,0,.6-2.287l-1.509-1.493,1.479-1.479c-.038-.226-.082-.451-.133-.672" transform="translate(-167.456 -131.65)" fill="#d9d9d9"/>
      <path id="Trazado_72" data-name="Trazado 72" d="M282.265,214.152a9.547,9.547,0,0,0-5.519,6.319l2.72-2.72,2.362,2.332a9.782,9.782,0,0,0,.6-2.287l-1.509-1.493,1.479-1.479c-.038-.226-.082-.451-.133-.672" transform="translate(-167.456 -131.65)" fill="#fff"/>
      <path id="Trazado_73" data-name="Trazado 73" d="M269.885,196.146a11.165,11.165,0,0,0,4.577,1.871,10.207,10.207,0,0,0-4.577-1.871" transform="translate(-163.53 -121.347)" fill="#36aca9"/>
      <path id="Trazado_74" data-name="Trazado 74" d="M219.541,237.917a9.355,9.355,0,1,1-9.358-9.275,9.3,9.3,0,0,1,9.358,9.275" transform="translate(-124.018 -139.941)" fill="#2da9a6"/>
      <path id="Trazado_75" data-name="Trazado 75" d="M231.1,161.971,217.235,175.7a11.695,11.695,0,0,0,10.173,2.365,10.244,10.244,0,0,1,1.49-1.852v-3.84l1.036-1.011,1.035,1.01v2.273a10.165,10.165,0,0,1,3.207-1.18,11.346,11.346,0,0,0,1.167-2.1,10.977,10.977,0,0,1-2.28-9.278,17.8,17.8,0,0,1-1.964-.112m-5.9-1.775-10.788,10.6-.024.014-.024.029-.406.4a11.463,11.463,0,0,0,1.822,3.01l12.875-12.731a17.109,17.109,0,0,1-3.456-1.32m-4.959-3.811a11.527,11.527,0,0,0-2.727,1.588c.005.15.007.3.007.449a14.134,14.134,0,0,1-4.15,10.022l.25.236,9.752-9.565a17.306,17.306,0,0,1-3.131-2.73" transform="translate(-131.193 -98.596)" fill="#64bbb8"/>
      <path id="Trazado_76" data-name="Trazado 76" d="M250.7,191.386l-1.036,1.011v3.84a10.258,10.258,0,0,1,2.071-1.569V192.4Z" transform="translate(-151.96 -118.623)" fill="#bfbfbf"/>
      <path id="Trazado_77" data-name="Trazado 77" d="M250.7,191.386l-1.036,1.011v3.84a10.258,10.258,0,0,1,2.071-1.569V192.4Z" transform="translate(-151.96 -118.623)" fill="#fff"/>
      <path id="Trazado_78" data-name="Trazado 78" d="M231.878,168.377,219,181.108a11.85,11.85,0,0,0,1.455,1.449l13.865-13.725a17.28,17.28,0,0,1-2.444-.456" transform="translate(-134.415 -105.458)" fill="#bfbfbf"/>
      <path id="Trazado_79" data-name="Trazado 79" d="M231.878,168.377,219,181.108a11.85,11.85,0,0,0,1.455,1.449l13.865-13.725a17.28,17.28,0,0,1-2.444-.456" transform="translate(-134.415 -105.458)" fill="#fff"/>
      <path id="Trazado_80" data-name="Trazado 80" d="M223.19,162.765l-9.753,9.565-.248-.234-.138.134a11.288,11.288,0,0,0,.725,2.656l.4-.4.024-.027.024-.015,10.789-10.6a16.99,16.99,0,0,1-1.828-1.082" transform="translate(-131.01 -102.247)" fill="#bfbfbf"/>
      <path id="Trazado_81" data-name="Trazado 81" d="M223.19,162.765l-9.753,9.565-.248-.234-.138.134a11.288,11.288,0,0,0,.725,2.656l.4-.4.024-.027.024-.015,10.789-10.6a16.99,16.99,0,0,1-1.828-1.082" transform="translate(-131.01 -102.247)" fill="#fff"/>
      <path id="Trazado_82" data-name="Trazado 82" d="M261.1,169.434a17.41,17.41,0,0,1-2.009.116h-.013a10.977,10.977,0,0,0,2.279,9.278,11.342,11.342,0,0,0-.257-9.394" transform="translate(-157.211 -106.063)" fill="#3badac"/>
      <path id="Trazado_83" data-name="Trazado 83" d="M247.674,199.05a10.222,10.222,0,0,0-1.49,1.852,11.528,11.528,0,0,0,1.491-.466Zm5.277-2.747a10.158,10.158,0,0,0-3.207,1.18v1.9a11.551,11.551,0,0,0,3.207-3.077" transform="translate(-149.968 -121.437)" fill="#36aca9"/>
      <path id="Trazado_84" data-name="Trazado 84" d="M251.738,199.059a10.222,10.222,0,0,0-2.071,1.569v1.383a11.5,11.5,0,0,0,2.071-1.053Z" transform="translate(-151.961 -123.014)" fill="#2a766f"/>
      <path id="Trazado_85" data-name="Trazado 85" d="M251.738,199.059a10.222,10.222,0,0,0-2.071,1.569v1.383a11.5,11.5,0,0,0,2.071-1.053Z" transform="translate(-151.961 -123.014)" fill="#fff"/>
      <path id="Trazado_86" data-name="Trazado 86" d="M29.99,162.643a7.879,7.879,0,1,0,7.973,7.885,7.924,7.924,0,0,0-7.973-7.885" transform="translate(-21.709 -102.177)" fill="#64bbb8"/>
      <path id="Trazado_87" data-name="Trazado 87" d="M57.234,148.287a8.736,8.736,0,0,0-1.546,4.97,8.9,8.9,0,0,0,8.955,8.848,9,9,0,0,0,3.7-.794,14.419,14.419,0,0,1-.152-2.1q0-.5.032-1l-2.008-1.991a15.119,15.119,0,0,1-8.985-7.943" transform="translate(-40.969 -93.962)" fill="#64bbb8"/>
      <path id="Trazado_88" data-name="Trazado 88" d="M80.3,166.853l2.008,1.99a14.482,14.482,0,0,1,.173-1.451,15.23,15.23,0,0,1-2.181-.539" transform="translate(-55.054 -104.586)"/>
      <path id="Trazado_89" data-name="Trazado 89" d="M80.3,166.853l2.008,1.99a14.482,14.482,0,0,1,.173-1.451,15.23,15.23,0,0,1-2.181-.539" transform="translate(-55.054 -104.586)" fill="#64bbb8"/>
      <path id="Trazado_90" data-name="Trazado 90" d="M105.675,248.721l-.169.026-1.017,1a1.03,1.03,0,0,1-1.438.01l-.853-.815a6.838,6.838,0,1,0,9.072,6.883l-.539.531a.958.958,0,0,1-.723.293h-.044l-6-.22-.987-1.049,1.084-1,5.532.231,1.339-1.326a6.913,6.913,0,0,0-5.26-4.564" transform="translate(-64.883 -151.43)" fill="#2da9a6"/>
      <path id="Trazado_91" data-name="Trazado 91" d="M117.243,253.319l-1.339,1.324-5.532-.229-1.084,1,.987,1.051,6,.219h.043a.955.955,0,0,0,.725-.293l.539-.531c.006-.133.012-.267.012-.4a6.691,6.691,0,0,0-.349-2.139m-5.429-4.54a12.758,12.758,0,0,1-1.759.123c-.376,0-.749-.017-1.116-.049-.146.037-.289.08-.432.126l.853.815a1.031,1.031,0,0,0,1.439-.01l1.016-1" transform="translate(-71.191 -151.463)"/>
      <path id="Trazado_92" data-name="Trazado 92" d="M117.243,253.319l-1.339,1.324-5.532-.229-1.084,1,.987,1.051,6,.219h.043a.955.955,0,0,0,.725-.293l.539-.531c.006-.133.012-.267.012-.4a6.691,6.691,0,0,0-.349-2.139m-5.429-4.54a12.758,12.758,0,0,1-1.759.123c-.376,0-.749-.017-1.116-.049-.146.037-.289.08-.432.126l.853.815a1.031,1.031,0,0,0,1.439-.01l1.016-1" transform="translate(-71.191 -151.463)" fill="#fff"/>
      <path id="Trazado_93" data-name="Trazado 93" d="M176.277,186.459a14.435,14.435,0,0,1-5.843,1.662l0,14.937a11.668,11.668,0,0,0,1.521-.713v-.166a4.356,4.356,0,0,1,0-5.008v-4.723a1.083,1.083,0,0,1,.3-.725l4.489-4.4c-.143-.294-.3-.584-.465-.864m-17.538-3.034a11.47,11.47,0,0,0-4.2,8.867c0,.119,0,.238.005.358l3.432,3.4a9.821,9.821,0,0,1,2.176.815l5.362-5.311h1.458v1.443l-5.07,5.023a9.711,9.711,0,0,1,3.254,5.119l.7.7c.117,0,.235,0,.352,0a11.9,11.9,0,0,0,2.149-.2l0-15.529a14.428,14.428,0,0,1-9.628-4.688" transform="translate(-97.531 -114.068)" fill="#47b1b0"/>
      <path id="Trazado_94" data-name="Trazado 94" d="M186.853,194.382l-.006,15.529a11.831,11.831,0,0,0,2.069-.582l0-14.939c-.322.021-.647.033-.973.033-.367,0-.733-.014-1.094-.041" transform="translate(-116.017 -120.337)" fill="#d9d9d9"/>
      <path id="Trazado_95" data-name="Trazado 95" d="M186.853,194.382l-.006,15.529a11.831,11.831,0,0,0,2.069-.582l0-14.939c-.322.021-.647.033-.973.033-.367,0-.733-.014-1.094-.041" transform="translate(-116.017 -120.337)" fill="#2d8a86"/>
      <path id="Trazado_96" data-name="Trazado 96" d="M203.565,197.485l-3.5,3.439v2.68a4.536,4.536,0,0,1,3.367.054,11.484,11.484,0,0,0,.132-6.173" transform="translate(-123.58 -122.113)" fill="#51b4b1"/>
      <path id="Trazado_97" data-name="Trazado 97" d="M195.236,207.395v.165l.085-.047-.085-.118m4.791-14.855-4.489,4.4a1.077,1.077,0,0,0-.3.723v4.725a4.506,4.506,0,0,1,2.065-1.612v-2.682l3.5-3.437a11.287,11.287,0,0,0-.774-2.116" transform="translate(-120.815 -119.283)" fill="#d9d9d9"/>
      <path id="Trazado_98" data-name="Trazado 98" d="M195.236,207.395v.165l.085-.047-.085-.118m4.791-14.855-4.489,4.4a1.077,1.077,0,0,0-.3.723v4.725a4.506,4.506,0,0,1,2.065-1.612v-2.682l3.5-3.437a11.287,11.287,0,0,0-.774-2.116" transform="translate(-120.815 -119.283)" fill="#fff"/>
      <path id="Trazado_99" data-name="Trazado 99" d="M165.165,214.006c.054.219.1.441.141.665.187.015.373.026.561.031Zm-10.614-10.488a11.431,11.431,0,0,0,.536,3.126c.17-.009.342-.012.514-.012a9.973,9.973,0,0,1,2.382.285l-3.433-3.4m12.429-1.1h-1.458l-5.361,5.313a9.878,9.878,0,0,1,1.749,1.153l5.07-5.023V202.42" transform="translate(-97.537 -124.937)" fill="#d9d9d9"/>
      <path id="Trazado_100" data-name="Trazado 100" d="M165.165,214.006c.054.219.1.441.141.665.187.015.373.026.561.031Zm-10.614-10.488a11.431,11.431,0,0,0,.536,3.126c.17-.009.342-.012.514-.012a9.973,9.973,0,0,1,2.382.285l-3.433-3.4m12.429-1.1h-1.458l-5.361,5.313a9.878,9.878,0,0,1,1.749,1.153l5.07-5.023V202.42" transform="translate(-97.537 -124.937)" fill="#fff"/>
      <path id="Trazado_101" data-name="Trazado 101" d="M90.847,216.142a8.584,8.584,0,0,1,.046.895,8.75,8.75,0,0,1-.1,1.31,12.52,12.52,0,0,0,3.371.964Zm11.573-1.514-4.692,4.635.122.022a12.5,12.5,0,0,0,6.314-2.933l-1.745-1.725m-14.1-17.351a12.382,12.382,0,0,0-4.518,6.82v2.486l5.662,5.4,5.623-5.566h1.456v1.448l-5.592,5.541,4.971,4.75,5.761-5.691a1.027,1.027,0,0,1,1.463,0l2.217,2.187a9.759,9.759,0,0,1-.08-1.249,9.638,9.638,0,0,1,3.087-7.065,12.241,12.241,0,0,0-2.21-6.307,14.9,14.9,0,0,1-17.841-2.757" transform="translate(-57.058 -121.993)" fill="#51b4b1"/>
      <path id="Trazado_102" data-name="Trazado 102" d="M83.313,213.22a12.289,12.289,0,0,0-.369,3,12.49,12.49,0,0,0,.075,1.364,8.732,8.732,0,0,1,7.335,7.683l3.318,3.168c.213.031.426.054.64.073a6.985,6.985,0,0,1,1.744-.22,6.914,6.914,0,0,1,1.179.1l4.692-4.635,1.744,1.725a12.657,12.657,0,0,0,1.268-1.276c-.024-.139-.046-.281-.065-.422l-2.217-2.189a1.039,1.039,0,0,0-.733-.3,1.025,1.025,0,0,0-.73.3l-5.76,5.692-4.971-4.752,5.592-5.541V215.54H94.6l-5.622,5.566-5.662-5.4Z" transform="translate(-56.565 -131.116)" fill="#d9d9d9"/>
      <path id="Trazado_103" data-name="Trazado 103" d="M83.313,213.22a12.289,12.289,0,0,0-.369,3,12.49,12.49,0,0,0,.075,1.364,8.732,8.732,0,0,1,7.335,7.683l3.318,3.168c.213.031.426.054.64.073a6.985,6.985,0,0,1,1.744-.22,6.914,6.914,0,0,1,1.179.1l4.692-4.635,1.744,1.725a12.657,12.657,0,0,0,1.268-1.276c-.024-.139-.046-.281-.065-.422l-2.217-2.189a1.039,1.039,0,0,0-.733-.3,1.025,1.025,0,0,0-.73.3l-5.76,5.692-4.971-4.752,5.592-5.541V215.54H94.6l-5.622,5.566-5.662-5.4Z" transform="translate(-56.565 -131.116)" fill="#fff"/>
      <path id="Trazado_104" data-name="Trazado 104" d="M116.285,248.67l-.047.046c.056-.007.114-.015.17-.024-.041-.009-.082-.015-.122-.022" transform="translate(-75.615 -151.4)" fill="#2da9a6"/>
      <path id="Trazado_105" data-name="Trazado 105" d="M111.261,248.437a6.986,6.986,0,0,0-1.744.22c.368.032.74.049,1.116.049a12.758,12.758,0,0,0,1.759-.123l.047-.046a6.909,6.909,0,0,0-1.179-.1" transform="translate(-71.769 -151.267)" fill="#d9d9d9"/>
      <path id="Trazado_106" data-name="Trazado 106" d="M111.261,248.437a6.986,6.986,0,0,0-1.744.22c.368.032.74.049,1.116.049a12.758,12.758,0,0,0,1.759-.123l.047-.046a6.909,6.909,0,0,0-1.179-.1" transform="translate(-71.769 -151.267)" fill="#2da9a6"/>
      <path id="Trazado_107" data-name="Trazado 107" d="M68.131,223.164a8.684,8.684,0,1,0,8.676,9.995,12.386,12.386,0,0,1-7.168-9.1l-.919-.877c-.194-.012-.391-.019-.589-.019" transform="translate(-43.07 -136.806)" fill="#2da9a6"/>
      <path id="Trazado_108" data-name="Trazado 108" d="M81.241,223.209l.919.878c-.048-.261-.086-.522-.114-.788-.266-.042-.533-.073-.8-.09" transform="translate(-55.59 -136.832)"/>
      <path id="Trazado_109" data-name="Trazado 109" d="M81.241,223.209l.919.878c-.048-.261-.086-.522-.114-.788-.266-.042-.533-.073-.8-.09" transform="translate(-55.59 -136.832)" fill="#2da9a6"/>
      <path id="Trazado_110" data-name="Trazado 110" d="M83.387,225.259a12.389,12.389,0,0,0,7.166,9.1,8.539,8.539,0,0,0,.1-1.31,8.726,8.726,0,0,0-.048-.895Z" transform="translate(-56.818 -138.005)" fill="#1fa188"/>
      <path id="Trazado_111" data-name="Trazado 111" d="M83.121,223.419c.029.265.068.527.114.788l7.219,6.893a8.729,8.729,0,0,0-7.333-7.681" transform="translate(-56.666 -136.952)" fill="#d9d9d9"/>
      <path id="Trazado_112" data-name="Trazado 112" d="M83.121,223.419c.029.265.068.527.114.788l7.219,6.893a8.729,8.729,0,0,0-7.333-7.681" transform="translate(-56.666 -136.952)" fill="#208870"/>
      <path id="Trazado_113" data-name="Trazado 113" d="M271.661,73.461a17.759,17.759,0,0,0-14.295,7.176c.291-.014.584-.022.878-.022a17.1,17.1,0,0,1,17.2,17,16.8,16.8,0,0,1-2.527,8.885,11.11,11.11,0,0,1,1.865.856,15.817,15.817,0,0,1,8.291-6.188c0-.059,0-.119,0-.178a8.473,8.473,0,0,1,6.189-8.124,17.549,17.549,0,0,0-17.6-19.4" transform="translate(-156.367 -51.148)" fill="#92cdcd"/>
      <path id="Trazado_114" data-name="Trazado 114" d="M306.373,138.223a15.814,15.814,0,0,0-8.29,6.188,11.365,11.365,0,0,1,1.052.686,17.727,17.727,0,0,0,7.77-4.1,8.354,8.354,0,0,1-.531-2.77" transform="translate(-179.664 -88.204)" fill="#2da9a6"/>
      <path id="Trazado_115" data-name="Trazado 115" d="M291.751,150.69a17.152,17.152,0,0,1-1.475,2.028l.221,0a17.975,17.975,0,0,0,2.494-.174q.293-.513.625-1a11.176,11.176,0,0,0-1.865-.854" transform="translate(-175.197 -95.337)" fill="#4cb2b0"/>
      <path id="Trazado_116" data-name="Trazado 116" d="M297.246,152.687c-.221.325-.429.66-.626,1q.852-.12,1.677-.317a11.307,11.307,0,0,0-1.052-.686" transform="translate(-178.827 -96.48)" fill="#24a598"/>
      <path id="Trazado_117" data-name="Trazado 117" d="M131.949,108.168a12.654,12.654,0,0,1-2.593.5l4.27,4.512a10.04,10.04,0,0,0-1.677-5.009m-11.432-2.076v1.436l-1.859,1.834a14.9,14.9,0,0,1,1.858,10.532,14.789,14.789,0,0,1,6.752,3.256,10.2,10.2,0,0,0,6.138-7.21l-5.214-5.522-4.112,4.079h-1.467v-1.451l4.432-4.391a12.661,12.661,0,0,1-6.527-2.563m-1.612-1.477a10.267,10.267,0,0,0-2.6,1.78,15.263,15.263,0,0,1,1.152,1.264l1.589-1.574h1.46a12.6,12.6,0,0,1-1.6-1.47" transform="translate(-75.656 -68.974)" fill="#92cdcd"/>
      <path id="Trazado_118" data-name="Trazado 118" d="M183.357,237.092l0,11.62a7.94,7.94,0,0,0,1.49-1.807l0-8a7.958,7.958,0,0,0-1.49-1.812" transform="translate(-114.018 -144.776)" fill="#2da9a6"/>
      <path id="Trazado_119" data-name="Trazado 119" d="M186.842,241.326l0,8a7.789,7.789,0,0,0,0-8" transform="translate(-116.013 -147.198)"/>
      <path id="Trazado_120" data-name="Trazado 120" d="M186.842,241.326l0,8a7.789,7.789,0,0,0,0-8" transform="translate(-116.013 -147.198)" fill="#2da9a6"/>
      <path id="Trazado_121" data-name="Trazado 121" d="M154.152,249.277l.193.19V249.3c-.063-.007-.128-.014-.193-.022m10.432-1.948h-3.2a9.86,9.86,0,0,1-4.961,1.969v2.2l2.27,2.239a8.073,8.073,0,0,0,5.892-.268v-6.146m0-4.257a9.724,9.724,0,0,1-1.206,2.215h1.206v-2.215" transform="translate(-97.309 -148.197)" fill="#2da9a6"/>
      <path id="Trazado_122" data-name="Trazado 122" d="M153.622,257.506a7.911,7.911,0,0,0,4.767,4.5l-2.27-2.239v-2.207a10.156,10.156,0,0,1-1.045.054,9.773,9.773,0,0,1-1.031-.053v.169l-.192-.19c-.077-.009-.153-.021-.228-.031" transform="translate(-97.006 -156.456)"/>
      <path id="Trazado_123" data-name="Trazado 123" d="M153.622,257.506a7.911,7.911,0,0,0,4.767,4.5l-2.27-2.239v-2.207a10.156,10.156,0,0,1-1.045.054,9.773,9.773,0,0,1-1.031-.053v.169l-.192-.19c-.077-.009-.153-.021-.228-.031" transform="translate(-97.006 -156.456)" fill="#fff"/>
      <path id="Trazado_124" data-name="Trazado 124" d="M174.894,234.7v.118a9.619,9.619,0,0,1-.641,3.466V240.5h-1.206a9.9,9.9,0,0,1-2,2.042h3.2l0,6.146a7.909,7.909,0,0,0,2.062-1.343l.005-11.618a7.94,7.94,0,0,0-1.424-1.026" transform="translate(-106.978 -143.405)"/>
      <path id="Trazado_125" data-name="Trazado 125" d="M174.894,234.7v.118a9.619,9.619,0,0,1-.641,3.466V240.5h-1.206a9.9,9.9,0,0,1-2,2.042h3.2l0,6.146a7.909,7.909,0,0,0,2.062-1.343l.005-11.618a7.94,7.94,0,0,0-1.424-1.026" transform="translate(-106.978 -143.405)" fill="#fff"/>
      <path id="Trazado_126" data-name="Trazado 126" d="M330.653,118.06a8.658,8.658,0,0,0-2.353.325A17.313,17.313,0,0,1,325.592,126q.666-.056,1.346-.056a15.811,15.811,0,0,1,11.208,4.614,8.361,8.361,0,0,0,1.041-4.051,8.5,8.5,0,0,0-8.534-8.445" transform="translate(-195.405 -76.667)" fill="#64bbb8"/>
      <path id="Trazado_127" data-name="Trazado 127" d="M323,136.482c-.454,0-.9.019-1.346.056A17.7,17.7,0,0,1,318.7,140a8.576,8.576,0,0,0,15.5,1.1A15.812,15.812,0,0,0,323,136.482" transform="translate(-191.463 -87.208)" fill="#21a28c"/>
      <path id="Trazado_128" data-name="Trazado 128" d="M323.646,118.819a8.472,8.472,0,0,0-6.189,8.122c0,.06,0,.119,0,.179a15.869,15.869,0,0,1,3.479-.688,17.34,17.34,0,0,0,2.708-7.613" transform="translate(-190.75 -77.101)" fill="#33a99f"/>
      <path id="Trazado_129" data-name="Trazado 129" d="M320.939,136.614a15.869,15.869,0,0,0-3.479.688,8.368,8.368,0,0,0,.531,2.771,17.684,17.684,0,0,0,2.948-3.459" transform="translate(-190.752 -87.283)" fill="#21a28c"/>
      <path id="Trazado_130" data-name="Trazado 130" d="M237.034,121.581l-.148.148c.089.1.175.207.259.315l.112-.243Zm5.214-5.146-.572.567q.408-.237.837-.444c-.089-.041-.177-.08-.266-.122m-22.732-12.181a16.93,16.93,0,0,0,4.094,14.28,11.681,11.681,0,0,1,11.819,1.765l.153-.15-16.066-15.895m3.648-7.84a16.939,16.939,0,0,0-3.065,5.523l3.505,3.476,4.338-4.27-4.779-4.729m5.2-4.212a17.181,17.181,0,0,0-3.8,2.718l3.8,3.758V92.2m7.2-1.968a17.367,17.367,0,0,0-5.123,1.042v9.867a1.031,1.031,0,0,1-.311.718l-5.051,5.015L237.034,118.7l3.336-3.292a17.422,17.422,0,0,1-4.809-25.173" transform="translate(-134.562 -60.746)" fill="#92cdcd"/>
      <path id="Trazado_131" data-name="Trazado 131" d="M230.786,92.672a17.379,17.379,0,0,0-2.076.924v6.478l-3.8-3.758a17.143,17.143,0,0,0-1.4,1.494l4.779,4.728-4.337,4.271-3.506-3.477a16.981,16.981,0,0,0-.583,2.316l16.064,15.895-.151.151a11.423,11.423,0,0,1,1.455,1.429l.15-.146.223.219a11.137,11.137,0,0,1,4.418-4.8l.573-.567a18.089,18.089,0,0,1-1.88-1.027l-3.334,3.293L225.423,108.27l5.052-5.014a1.034,1.034,0,0,0,.311-.72Z" transform="translate(-134.908 -62.14)"/>
      <path id="Trazado_132" data-name="Trazado 132" d="M230.786,92.672a17.379,17.379,0,0,0-2.076.924v6.478l-3.8-3.758a17.143,17.143,0,0,0-1.4,1.494l4.779,4.728-4.337,4.271-3.506-3.477a16.981,16.981,0,0,0-.583,2.316l16.064,15.895-.151.151a11.423,11.423,0,0,1,1.455,1.429l.15-.146.223.219a11.137,11.137,0,0,1,4.418-4.8l.573-.567a18.089,18.089,0,0,1-1.88-1.027l-3.334,3.293L225.423,108.27l5.052-5.014a1.034,1.034,0,0,0,.311-.72Z" transform="translate(-134.908 -62.14)" fill="#fff"/>
      <path id="Trazado_133" data-name="Trazado 133" d="M261.182,157.007c-.039.082-.077.162-.113.243a11.357,11.357,0,0,1,1.309,2.072c.335-.038.669-.087,1-.143Zm5.257-5.243c-.286.136-.566.284-.839.444l-3.175,3.147,3.288,3.246a17.253,17.253,0,0,0,5.71-3.144l1.179-1.169h.092q.454-.462.871-.955a17.823,17.823,0,0,1-7.126-1.569" transform="translate(-158.485 -95.952)" fill="#33a99f"/>
      <path id="Trazado_134" data-name="Trazado 134" d="M272.843,154.883h-.09l-1.179,1.168a16.814,16.814,0,0,0,1.269-1.168m-7.092-2.08a11.139,11.139,0,0,0-4.418,4.8l2.193,2.171a17.3,17.3,0,0,0,2.338-.579l-3.288-3.246,3.175-3.145" transform="translate(-158.636 -96.546)"/>
      <path id="Trazado_135" data-name="Trazado 135" d="M272.843,154.883h-.09l-1.179,1.168a16.814,16.814,0,0,0,1.269-1.168m-7.092-2.08a11.139,11.139,0,0,0-4.418,4.8l2.193,2.171a17.3,17.3,0,0,0,2.338-.579l-3.288-3.246,3.175-3.145" transform="translate(-158.636 -96.546)" fill="#fff"/>
      <path id="Trazado_136" data-name="Trazado 136" d="M242.706,158.411l-2.418,2.393a17.8,17.8,0,0,0,1.964.112,10.885,10.885,0,0,1,.714-2.19c-.085-.105-.172-.211-.26-.315m-8.84-4.067a11.618,11.618,0,0,0-4.436.874,17.214,17.214,0,0,0,3.131,2.729l1.885-1.848H235.9l0,1.453-1.506,1.477a17.265,17.265,0,0,0,3.456,1.32l3.406-3.368a11.592,11.592,0,0,0-7.385-2.636" transform="translate(-140.383 -97.428)" fill="#33a99f"/>
      <path id="Trazado_137" data-name="Trazado 137" d="M252.506,160.508l-3.4,3.366a17.186,17.186,0,0,0,2.442.457l2.418-2.394a11.537,11.537,0,0,0-1.455-1.429" transform="translate(-151.638 -100.955)" fill="#bfbfbf"/>
      <path id="Trazado_138" data-name="Trazado 138" d="M252.506,160.508l-3.4,3.366a17.186,17.186,0,0,0,2.442.457l2.418-2.394a11.537,11.537,0,0,0-1.455-1.429" transform="translate(-151.638 -100.955)" fill="#fff"/>
      <path id="Trazado_139" data-name="Trazado 139" d="M240.089,158.444h-1.452l-1.885,1.848a16.986,16.986,0,0,0,1.828,1.082l1.5-1.477Z" transform="translate(-144.572 -99.774)" fill="#bfbfbf"/>
      <path id="Trazado_140" data-name="Trazado 140" d="M240.089,158.444h-1.452l-1.885,1.848a16.986,16.986,0,0,0,1.828,1.082l1.5-1.477Z" transform="translate(-144.572 -99.774)" fill="#fff"/>
      <path id="Trazado_141" data-name="Trazado 141" d="M260.113,164.587a10.873,10.873,0,0,0-.714,2.188h.014a17.78,17.78,0,0,0,2.009-.114,11.334,11.334,0,0,0-1.309-2.074" transform="translate(-157.53 -103.289)" fill="#24a597"/>
      <path id="Trazado_142" data-name="Trazado 142" d="M253.665,90.183c-.294,0-.587.007-.88.022a17.423,17.423,0,0,0,4.809,25.173l1.448-1.429L253.5,108.46v-1.443h1.467L260.5,112.5l5.435-5.384v-6.428l1.053-1.016L268,100.682v6.855a1,1,0,0,1-.3.715l-8.229,8.153.266.123a11.33,11.33,0,0,1,8.6-.459,16.817,16.817,0,0,0,2.527-8.886,17.1,17.1,0,0,0-17.2-17" transform="translate(-151.787 -60.716)" fill="#57b5ad"/>
      <path id="Trazado_143" data-name="Trazado 143" d="M272.517,112.353l-1.055,1.016V119.8l-5.434,5.384L260.49,119.7h-1.465v1.443l5.546,5.488-1.448,1.429A18.074,18.074,0,0,0,265,129.092l8.231-8.153a1.012,1.012,0,0,0,.3-.714v-6.855Z" transform="translate(-157.316 -73.401)" fill="gray"/>
      <path id="Trazado_144" data-name="Trazado 144" d="M272.517,112.353l-1.055,1.016V119.8l-5.434,5.384L260.49,119.7h-1.465v1.443l5.546,5.488-1.448,1.429A18.074,18.074,0,0,0,265,129.092l8.231-8.153a1.012,1.012,0,0,0,.3-.714v-6.855Z" transform="translate(-157.316 -73.401)" fill="#fff"/>
      <path id="Trazado_145" data-name="Trazado 145" d="M278.473,149.206a11.242,11.242,0,0,0-4.854,1.095,17.829,17.829,0,0,0,7.126,1.567,16.81,16.81,0,0,0,1.475-2.028,11.305,11.305,0,0,0-3.747-.634" transform="translate(-165.666 -94.488)" fill="#26a599"/>
      <path id="Trazado_146" data-name="Trazado 146" d="M114.449,154.289a14.765,14.765,0,1,1-14.766-14.6,14.683,14.683,0,0,1,14.766,14.6" transform="translate(-57.696 -89.041)" fill="#2da9a6"/>
      <path id="Trazado_147" data-name="Trazado 147" d="M200.963,216.279a11.428,11.428,0,0,1-.9.894v2.918a4.539,4.539,0,0,0,1.621.3,4.455,4.455,0,0,0,3.561-1.763V217h-3.562Zm2.47-4.363A11.5,11.5,0,0,1,202,214.952h3.25v-1.624a4.459,4.459,0,0,0-1.814-1.412" transform="translate(-123.58 -130.37)" fill="#2da9a6"/>
      <path id="Trazado_148" data-name="Trazado 148" d="M206.449,215.216v1.623H203.2a11.432,11.432,0,0,1-1.033,1.328l.723.72h3.561v1.627a4.379,4.379,0,0,0,0-5.3" transform="translate(-124.781 -132.258)"/>
      <path id="Trazado_149" data-name="Trazado 149" d="M206.449,215.216v1.623H203.2a11.432,11.432,0,0,1-1.033,1.328l.723.72h3.561v1.627a4.379,4.379,0,0,0,0-5.3" transform="translate(-124.781 -132.258)" fill="#fff"/>
      <path id="Trazado_150" data-name="Trazado 150" d="M197.418,224.2a11.676,11.676,0,0,1-1.98,1.426,4.491,4.491,0,0,0,1.981,1.492Z" transform="translate(-120.932 -137.401)"/>
      <path id="Trazado_151" data-name="Trazado 151" d="M197.418,224.2a11.676,11.676,0,0,1-1.98,1.426,4.491,4.491,0,0,0,1.981,1.492Z" transform="translate(-120.932 -137.401)" fill="#2da9a6"/>
      <path id="Trazado_152" data-name="Trazado 152" d="M201.684,211.091a4.5,4.5,0,0,0-1.621.3v5.31a11.722,11.722,0,0,0,.9-.893l-.308-.306,1.031-1.021H202a11.5,11.5,0,0,0,1.436-3.036,4.453,4.453,0,0,0-1.748-.353" transform="translate(-123.579 -129.898)" fill="#1fa188"/>
      <path id="Trazado_153" data-name="Trazado 153" d="M202.788,219.011h-.311l-1.029,1.021.308.306a11.671,11.671,0,0,0,1.033-1.327" transform="translate(-124.371 -134.43)" fill="#d9d9d9"/>
      <path id="Trazado_154" data-name="Trazado 154" d="M202.788,219.011h-.311l-1.029,1.021.308.306a11.671,11.671,0,0,0,1.033-1.327" transform="translate(-124.371 -134.43)" fill="#1fa188"/>
      <path id="Trazado_155" data-name="Trazado 155" d="M194.18,215.556a4.358,4.358,0,0,0,0,5.008Z" transform="translate(-119.76 -132.453)" fill="#1fa188"/>
      <path id="Trazado_156" data-name="Trazado 156" d="M197.3,211.79a4.5,4.5,0,0,0-2.065,1.612v5.008c.027.039.056.078.085.117a11.673,11.673,0,0,0,1.98-1.426Z" transform="translate(-120.817 -130.298)" fill="#d9d9d9"/>
      <path id="Trazado_157" data-name="Trazado 157" d="M197.3,211.79a4.5,4.5,0,0,0-2.065,1.612v5.008c.027.039.056.078.085.117a11.673,11.673,0,0,0,1.98-1.426Z" transform="translate(-120.817 -130.298)" fill="#1fa188"/>
      <path id="Trazado_158" data-name="Trazado 158" d="M143.474,212.336a9.861,9.861,0,0,0-5.955,2.621q.022.372.022.752a12.2,12.2,0,0,1-2.8,7.788l7.959,7.853a7.808,7.808,0,0,1,.536-6.41v-2.762l1.031-1.026,1.045,1.026v.355a8.016,8.016,0,0,1,7.119-1.342l-1.513-1.5a11.642,11.642,0,0,1-7.013-6.934Z" transform="translate(-86.203 -130.61)" fill="#2da9a6"/>
      <path id="Trazado_159" data-name="Trazado 159" d="M134.521,235.29c-.054.066-.109.131-.165.2a9.816,9.816,0,0,0,8.242,7.967c-.041-.1-.08-.206-.118-.31Zm9.527-2.344-1.031,1.026v2.76a7.941,7.941,0,0,1,2.075-2.406v-.354l-1.045-1.026" transform="translate(-85.982 -142.403)"/>
      <path id="Trazado_160" data-name="Trazado 160" d="M134.521,235.29c-.054.066-.109.131-.165.2a9.816,9.816,0,0,0,8.242,7.967c-.041-.1-.08-.206-.118-.31Zm9.527-2.344-1.031,1.026v2.76a7.941,7.941,0,0,1,2.075-2.406v-.354l-1.045-1.026" transform="translate(-85.982 -142.403)" fill="#fff"/>
      <path id="Trazado_161" data-name="Trazado 161" d="M162.6,219.671l1.513,1.5a7.971,7.971,0,0,1,1.686.711,9.769,9.769,0,0,0-.145-1.557,11.72,11.72,0,0,1-3.055-.65m-7.166-7.378c-.094.005-.187.01-.279.019l.432.425q-.082-.219-.153-.444" transform="translate(-97.882 -130.586)"/>
      <path id="Trazado_162" data-name="Trazado 162" d="M162.6,219.671l1.513,1.5a7.971,7.971,0,0,1,1.686.711,9.769,9.769,0,0,0-.145-1.557,11.72,11.72,0,0,1-3.055-.65m-7.166-7.378c-.094.005-.187.01-.279.019l.432.425q-.082-.219-.153-.444" transform="translate(-97.882 -130.586)" fill="#fff"/>
      <path id="Trazado_163" data-name="Trazado 163" d="M162.833,214.9l-.96.949,4.214,4.17a9.7,9.7,0,0,0-3.254-5.119m-6.67-1.8a11.642,11.642,0,0,0,7.013,6.934l-7.013-6.934m2.743-.172,1.5,1.487.677-.67a9.787,9.787,0,0,0-2.178-.816" transform="translate(-98.46 -130.951)" fill="#1fa188"/>
      <path id="Trazado_164" data-name="Trazado 164" d="M156.319,212.263c-.172,0-.344.005-.514.014.048.148.1.3.151.444l7.015,6.934a11.7,11.7,0,0,0,3.052.649c-.039-.225-.087-.447-.141-.667l-4.214-4.168.96-.951a9.993,9.993,0,0,0-1.749-1.153l-.677.67-1.5-1.487a9.972,9.972,0,0,0-2.382-.285" transform="translate(-98.255 -130.569)" fill="#d9d9d9"/>
      <path id="Trazado_165" data-name="Trazado 165" d="M156.319,212.263c-.172,0-.344.005-.514.014.048.148.1.3.151.444l7.015,6.934a11.7,11.7,0,0,0,3.052.649c-.039-.225-.087-.447-.141-.667l-4.214-4.168.96-.951a9.993,9.993,0,0,0-1.749-1.153l-.677.67-1.5-1.487a9.972,9.972,0,0,0-2.382-.285" transform="translate(-98.255 -130.569)" fill="#fff"/>
      <path id="Trazado_166" data-name="Trazado 166" d="M137.1,218.463a9.636,9.636,0,0,0-3.088,7.065,9.79,9.79,0,0,0,.08,1.249l.23.226a12.2,12.2,0,0,0,2.8-7.788c0-.253-.007-.5-.022-.752" transform="translate(-85.788 -134.116)" fill="#1fa188"/>
      <path id="Trazado_167" data-name="Trazado 167" d="M134.205,237.9c.019.142.039.283.065.422.056-.065.111-.13.165-.2Z" transform="translate(-85.896 -145.236)" fill="#d9d9d9"/>
      <path id="Trazado_168" data-name="Trazado 168" d="M134.205,237.9c.019.142.039.283.065.422.056-.065.111-.13.165-.2Z" transform="translate(-85.896 -145.236)" fill="#1fa188"/>
      <path id="Trazado_169" data-name="Trazado 169" d="M153.283,236.361a7.806,7.806,0,0,0-.537,6.41l.346.34c.063.009.128.015.192.022Zm6.95-4.066a7.943,7.943,0,0,0-4.874,1.659v9.178a9.848,9.848,0,0,0,4.96-1.969h-.127l-1.042-1.007,1.041-1.035h2.125a9.637,9.637,0,0,0,1.2-2.215v-3.26l-1.045-1.032a7.981,7.981,0,0,0-2.243-.318" transform="translate(-96.247 -142.031)" fill="#219f83"/>
      <path id="Trazado_170" data-name="Trazado 170" d="M153.347,244.991c.037.1.077.207.117.309l.228.031Zm2.612-8.818a7.945,7.945,0,0,0-2.075,2.406v6.774a10.1,10.1,0,0,0,2.076,0l0-9.178" transform="translate(-96.848 -144.25)"/>
      <path id="Trazado_171" data-name="Trazado 171" d="M153.347,244.991c.037.1.077.207.117.309l.228.031Zm2.612-8.818a7.945,7.945,0,0,0-2.075,2.406v6.774a10.1,10.1,0,0,0,2.076,0l0-9.178" transform="translate(-96.848 -144.25)" fill="#fff"/>
      <path id="Trazado_172" data-name="Trazado 172" d="M171.482,239.544h-2.124l-1.041,1.034,1.042,1.008h.127a9.868,9.868,0,0,0,2-2.042m.16-6.508,1.045,1.034v3.258a9.62,9.62,0,0,0,.643-3.466c0-.039,0-.078,0-.118a8.015,8.015,0,0,0-1.686-.709" transform="translate(-105.414 -142.455)"/>
      <path id="Trazado_173" data-name="Trazado 173" d="M171.482,239.544h-2.124l-1.041,1.034,1.042,1.008h.127a9.868,9.868,0,0,0,2-2.042m.16-6.508,1.045,1.034v3.258a9.62,9.62,0,0,0,.643-3.466c0-.039,0-.078,0-.118a8.015,8.015,0,0,0-1.686-.709" transform="translate(-105.414 -142.455)" fill="#fff"/>
      <path id="Trazado_174" data-name="Trazado 174" d="M27.5,125.971a6.143,6.143,0,1,0,6.208,6.149,6.2,6.2,0,0,0-6.208-6.149" transform="translate(-21.283 -81.194)" fill="#64bbb8"/>
      <path id="Trazado_175" data-name="Trazado 175" d="M227.65,207.8a5.87,5.87,0,0,0-5.881,5.815,5.751,5.751,0,0,0,.913,3.115c.131.007.262.017.391.029l3.9-3.86h1.472v1.453l-2.991,2.954a9.372,9.372,0,0,1,3.231,2.038,5.851,5.851,0,0,0,3.243-1.738,10.021,10.021,0,0,1-.545-8.477,5.87,5.87,0,0,0-3.73-1.33" transform="translate(-135.998 -128.016)" fill="#2da9a6"/>
      <path id="Trazado_176" data-name="Trazado 176" d="M230.187,219.723h-1.472l-3.9,3.859a9.365,9.365,0,0,1,2.377.548l2.991-2.954Z" transform="translate(-137.744 -134.837)"/>
      <path id="Trazado_177" data-name="Trazado 177" d="M230.187,219.723h-1.472l-3.9,3.859a9.365,9.365,0,0,1,2.377.548l2.991-2.954Z" transform="translate(-137.744 -134.837)" fill="#fff"/>
      <path id="Trazado_178" data-name="Trazado 178" d="M243.311,210.91a10.025,10.025,0,0,0,.545,8.478,5.776,5.776,0,0,0-.545-8.478" transform="translate(-147.93 -129.795)" fill="#1fa188"/>
      <path id="Trazado_179" data-name="Trazado 179" d="M223.9,228.677a5.9,5.9,0,0,0,4.97,2.7,6.079,6.079,0,0,0,1.031-.089,9.371,9.371,0,0,0-5.61-2.585c-.129-.012-.261-.022-.391-.029" transform="translate(-137.22 -139.961)" fill="#219f83"/>
      <path id="Trazado_180" data-name="Trazado 180" d="M156.155,141.319a14.16,14.16,0,0,0,3.274,12.915,11.712,11.712,0,0,1,4.365-2.264l-7.208-7.133-.066-.042-.053-.066-.005-.021a.962.962,0,0,1-.306-.709Zm16.926-7.28a14.783,14.783,0,0,1-1.952.261l0,18.039a11.682,11.682,0,0,1,5.842,4.93,14.217,14.217,0,0,0,1.876-1.193l-5.435-5.1-.032-.037-.005-.015-.024-.019a.382.382,0,0,1-.087-.119l-.047-.078-.048-.1a.409.409,0,0,1-.024-.09.348.348,0,0,1-.029-.116l-.005-.077-.024-.1,0-16.189m-10.2-1.622a14.436,14.436,0,0,0-4.656,4.311v4.928l4.767-4.714h1.458v1.439l-5.723,5.686,7.583,7.506q.293-.015.592-.015a11.834,11.834,0,0,1,2.157.2l0-17.459a14.579,14.579,0,0,1-6.182-1.877m14.527-.007a14.517,14.517,0,0,1-2.259,1.047l0,14.422,4.75-4.353,1.453.062-.053,1.443-5.657,5.207,4.579,4.323a11.386,11.386,0,0,1,4.32-10.307,14.22,14.22,0,0,0-7.136-11.844" transform="translate(-98.22 -84.878)" fill="#64bbb8"/>
      <path id="Trazado_181" data-name="Trazado 181" d="M158.772,139.249a14.076,14.076,0,0,0-2.065,4.591v2.68a.961.961,0,0,0,.306.71l.005.02.053.066.066.043,7.207,7.133a11.747,11.747,0,0,1,2.513-.4l-7.581-7.506L165,140.9v-1.44h-1.458l-4.769,4.714Zm10.84-2.433,0,17.459a11.666,11.666,0,0,1,2.068.585l0-18.039q-.49.033-.99.034c-.362,0-.722-.014-1.077-.039" transform="translate(-98.771 -87.399)"/>
      <path id="Trazado_182" data-name="Trazado 182" d="M158.772,139.249a14.076,14.076,0,0,0-2.065,4.591v2.68a.961.961,0,0,0,.306.71l.005.02.053.066.066.043,7.207,7.133a11.747,11.747,0,0,1,2.513-.4l-7.581-7.506L165,140.9v-1.44h-1.458l-4.769,4.714Zm10.84-2.433,0,17.459a11.666,11.666,0,0,1,2.068.585l0-18.039q-.49.033-.99.034c-.362,0-.722-.014-1.077-.039" transform="translate(-98.771 -87.399)" fill="#1a1818"/>
      <path id="Trazado_183" data-name="Trazado 183" d="M198.331,134.856a14.635,14.635,0,0,1-2.067.582l0,16.19.026.1.005.077a.4.4,0,0,0,.027.116.608.608,0,0,0,.026.09l.048.095.047.078a.352.352,0,0,0,.087.119l.024.018.005.015.033.038,5.435,5.1a14.317,14.317,0,0,0,1.417-1.213c-.013-.1-.027-.2-.039-.3l-4.579-4.323,5.655-5.207.053-1.443-1.452-.063-4.75,4.355Z" transform="translate(-121.405 -86.277)"/>
      <path id="Trazado_184" data-name="Trazado 184" d="M198.331,134.856a14.635,14.635,0,0,1-2.067.582l0,16.19.026.1.005.077a.4.4,0,0,0,.027.116.608.608,0,0,0,.026.09l.048.095.047.078a.352.352,0,0,0,.087.119l.024.018.005.015.033.038,5.435,5.1a14.317,14.317,0,0,0,1.417-1.213c-.013-.1-.027-.2-.039-.3l-4.579-4.323,5.655-5.207.053-1.443-1.452-.063-4.75,4.355Z" transform="translate(-121.405 -86.277)" fill="#fff"/>
      <path id="Trazado_185" data-name="Trazado 185" d="M217.175,160.1a11.371,11.371,0,0,0-4.4,8.973,11.181,11.181,0,0,0,.079,1.334l.175.165a14.133,14.133,0,0,0,4.15-10.022c0-.15,0-.3-.007-.449" transform="translate(-130.854 -100.719)" fill="#26a594"/>
      <path id="Trazado_186" data-name="Trazado 186" d="M212.96,184.187c.012.1.026.2.039.3.046-.046.092-.09.136-.136Z" transform="translate(-130.958 -114.504)" fill="#bfbfbf"/>
      <path id="Trazado_187" data-name="Trazado 187" d="M212.96,184.187c.012.1.026.2.039.3.046-.046.092-.09.136-.136Z" transform="translate(-130.958 -114.504)" fill="#25a595"/>
      <path id="Trazado_188" data-name="Trazado 188" d="M176.052,177.946v6.593a14.435,14.435,0,0,0,5.843-1.662,11.688,11.688,0,0,0-5.842-4.932m-7.33-.366a11.689,11.689,0,0,0-4.366,2.264,14.432,14.432,0,0,0,9.628,4.688v-1.742l-5.263-5.209m3.105-.414q-.3,0-.592.015l2.75,2.72v-2.539a11.869,11.869,0,0,0-2.157-.2" transform="translate(-103.148 -110.487)" fill="#23a492"/>
      <path id="Trazado_189" data-name="Trazado 189" d="M177.075,177.2a11.741,11.741,0,0,0-2.513.4l5.263,5.209v1.742c.361.027.726.041,1.094.041.327,0,.652-.01.973-.033v-6.592a11.665,11.665,0,0,0-2.067-.585v2.54Z" transform="translate(-108.987 -110.506)" fill="#d9d9d9"/>
      <path id="Trazado_190" data-name="Trazado 190" d="M177.075,177.2a11.741,11.741,0,0,0-2.513.4l5.263,5.209v1.742c.361.027.726.041,1.094.041.327,0,.652-.01.973-.033v-6.592a11.665,11.665,0,0,0-2.067-.585v2.54Z" transform="translate(-108.987 -110.506)" fill="#20806f"/>
      <path id="Trazado_191" data-name="Trazado 191" d="M71.193,98.657a15.223,15.223,0,0,0-5.979,1.214,9.152,9.152,0,0,1-8.789,10.478,14.909,14.909,0,0,0-.364,3.28,14.755,14.755,0,0,0,1.386,6.261A9,9,0,0,1,70.2,117.763v-4.031l1.026-1.011,1.045,1.01v6.178q.214.314.4.645a14.781,14.781,0,0,1,8.008-4.137,10.064,10.064,0,0,1-1.934-7.525l-3.562-3.525v-1.438h1.453l2.723,2.679a10.183,10.183,0,0,1,2.479-3.623,15.154,15.154,0,0,0-10.644-4.329" transform="translate(-41.183 -65.565)" fill="#92cdcd"/>
      <path id="Trazado_192" data-name="Trazado 192" d="M90.13,119.772,89.1,120.783v4.031a8.885,8.885,0,0,1,2.071,2.148v-6.18Zm5.411-8.792H94.088v1.438l3.562,3.525a10.041,10.041,0,0,1,.613-2.282l-2.723-2.681" transform="translate(-60.089 -72.616)"/>
      <path id="Trazado_193" data-name="Trazado 193" d="M90.13,119.772,89.1,120.783v4.031a8.885,8.885,0,0,1,2.071,2.148v-6.18Zm5.411-8.792H94.088v1.438l3.562,3.525a10.041,10.041,0,0,1,.613-2.282l-2.723-2.681" transform="translate(-60.089 -72.616)" fill="#fff"/>
      <path id="Trazado_194" data-name="Trazado 194" d="M74.123,143.116v1.06c.13-.143.264-.281.4-.417-.124-.221-.259-.436-.4-.643m-7.417-3.906a8.978,8.978,0,0,0-7.406,3.884,15.128,15.128,0,0,0,8.985,7.943L66.132,148.9v-1.453H67.59l3.1,3.078a14.353,14.353,0,0,1,1.366-3.482v-6.077a8.957,8.957,0,0,0-5.346-1.757" transform="translate(-43.036 -88.769)" fill="#33a99f"/>
      <path id="Trazado_195" data-name="Trazado 195" d="M76.728,149.8H75.272v1.452l2.153,2.135a15.228,15.228,0,0,0,2.181.539c.059-.354.134-.7.219-1.05Zm4.462-6.484v6.078a14.718,14.718,0,0,1,2.071-2.869v-1.06a8.966,8.966,0,0,0-2.071-2.149" transform="translate(-52.175 -91.118)"/>
      <path id="Trazado_196" data-name="Trazado 196" d="M76.728,149.8H75.272v1.452l2.153,2.135a15.228,15.228,0,0,0,2.181.539c.059-.354.134-.7.219-1.05Zm4.462-6.484v6.078a14.718,14.718,0,0,1,2.071-2.869v-1.06a8.966,8.966,0,0,0-2.071-2.149" transform="translate(-52.175 -91.118)" fill="#fff"/>
      <path id="Trazado_197" data-name="Trazado 197" d="M108.938,114.682a10.311,10.311,0,0,0-.105,1.46,10.018,10.018,0,0,0,2.039,6.064,15.065,15.065,0,0,1,1.994-.2v-3.44Zm5.443-2.94-2.753,2.716,2.992,2.962a.981.981,0,0,1,.311.728v3.93c.441.046.877.113,1.305.2a14.876,14.876,0,0,0-1.856-10.532m-2.35-2.967a10.181,10.181,0,0,0-2.479,3.623l.628.618,3-2.976a15.048,15.048,0,0,0-1.152-1.264" transform="translate(-71.378 -71.355)" fill="#57b5ad"/>
      <path id="Trazado_198" data-name="Trazado 198" d="M113.325,111.733l-3,2.975-.628-.616a10.026,10.026,0,0,0-.614,2.282l3.926,3.885v3.44c.167-.005.332-.009.5-.009a14.986,14.986,0,0,1,1.569.081v-3.93a.98.98,0,0,0-.313-.73l-2.992-2.962,2.753-2.714a14.82,14.82,0,0,0-1.2-1.7" transform="translate(-71.519 -73.047)" fill="gray"/>
      <path id="Trazado_199" data-name="Trazado 199" d="M113.325,111.733l-3,2.975-.628-.616a10.026,10.026,0,0,0-.614,2.282l3.926,3.885v3.44c.167-.005.332-.009.5-.009a14.986,14.986,0,0,1,1.569.081v-3.93a.98.98,0,0,0-.313-.73l-2.992-2.962,2.753-2.714a14.82,14.82,0,0,0-1.2-1.7" transform="translate(-71.519 -73.047)" fill="#fff"/>
      <path id="Trazado_200" data-name="Trazado 200" d="M99.957,139.684c-.166,0-.333,0-.5.009a15.007,15.007,0,0,0-1.992.2,14.786,14.786,0,0,0-8.008,4.137c-.136.136-.27.276-.4.417a14.594,14.594,0,0,0-2.07,2.869,14.346,14.346,0,0,0-1.366,3.482q-.13.518-.221,1.05a15.451,15.451,0,0,0,2.585.216,15.09,15.09,0,0,0,14.845-12.1c-.429-.083-.864-.15-1.307-.2a14.806,14.806,0,0,0-1.567-.081" transform="translate(-57.97 -89.04)" fill="#21a495"/>
      <path id="Trazado_201" data-name="Trazado 201" d="M184.69,128.8v2.1a14.565,14.565,0,0,0,2.258-1.045,14.157,14.157,0,0,0-2.258-1.058m-6.084-.843a14.434,14.434,0,0,0-6.183,1.907,14.575,14.575,0,0,0,6.182,1.879v-3.786m2.067-.007v3.8a14.78,14.78,0,0,0,1.952-.262v-3.272a14.405,14.405,0,0,0-1.95-.263" transform="translate(-107.763 -82.327)" fill="#239c77"/>
      <path id="Trazado_202" data-name="Trazado 202" d="M187.957,127.875c-.366,0-.726.014-1.086.039V131.7c.354.026.714.039,1.075.039.334,0,.664-.012.992-.034v-3.8c-.325-.022-.654-.032-.984-.032" transform="translate(-116.03 -82.283)"/>
      <path id="Trazado_203" data-name="Trazado 203" d="M187.957,127.875c-.366,0-.726.014-1.086.039V131.7c.354.026.714.039,1.075.039.334,0,.664-.012.992-.034v-3.8c-.325-.022-.654-.032-.984-.032" transform="translate(-116.03 -82.283)" fill="#1a1818"/>
      <path id="Trazado_204" data-name="Trazado 204" d="M196.264,128.566v3.272a14.5,14.5,0,0,0,2.067-.581v-2.1a14.225,14.225,0,0,0-2.068-.587" transform="translate(-121.405 -82.678)"/>
      <path id="Trazado_205" data-name="Trazado 205" d="M196.264,128.566v3.272a14.5,14.5,0,0,0,2.067-.581v-2.1a14.225,14.225,0,0,0-2.068-.587" transform="translate(-121.405 -82.678)" fill="#fff"/>
      <path id="Trazado_206" data-name="Trazado 206" d="M131.949,108.168a12.654,12.654,0,0,1-2.593.5l4.27,4.512a10.04,10.04,0,0,0-1.677-5.009m-11.432-2.076v1.436l-1.859,1.834a14.9,14.9,0,0,1,1.858,10.532,14.789,14.789,0,0,1,6.752,3.256,10.2,10.2,0,0,0,6.138-7.21l-5.214-5.522-4.112,4.079h-1.467v-1.451l4.432-4.391a12.661,12.661,0,0,1-6.527-2.563m-1.612-1.477a10.267,10.267,0,0,0-2.6,1.78,15.263,15.263,0,0,1,1.152,1.264l1.589-1.574h1.46a12.6,12.6,0,0,1-1.6-1.47" transform="translate(-75.656 -68.974)" fill="#92cdcd"/>
      <path id="Trazado_207" data-name="Trazado 207" d="M135.476,114.057l-4.432,4.391V119.9h1.467l4.112-4.081,5.212,5.522a10.015,10.015,0,0,0,.238-2.181q0-.294-.015-.582l-4.27-4.512q-.544.046-1.1.046c-.409,0-.814-.018-1.213-.056" transform="translate(-84.087 -74.376)" fill="#fff"/>
      <path id="Trazado_208" data-name="Trazado 208" d="M142.589,82.816l-1.031,1.016v7.989a10.186,10.186,0,0,1,2.071,1.087V83.832Z" transform="translate(-90.103 -56.501)" fill="#fff"/>
      <path id="Trazado_209" data-name="Trazado 209" d="M141.47,103.863v4.293l-.068.068c.4.037.8.056,1.213.056.371,0,.737-.015,1.1-.046l-.174-.184v-3.1a10.223,10.223,0,0,0-2.071-1.087" transform="translate(-90.014 -68.544)" fill="#fff"/>
      <path id="Trazado_210" data-name="Trazado 210" d="M171.416,155.717l.018-76.116,5.995-6.142-.024-1.443-1.467.029-4.5,4.611V71.511l.012-7.22L170.4,63.27l-1.026,1.021-.008,4.774-4.45-4.415h-1.472V66.1l5.922,5.852-.009,42.775L159.026,104.5l5.723-5.685V97.381h-1.458l-4.769,4.714V92.623l7.118-7.049a1.015,1.015,0,0,0,0-1.443l-4.282-4.226H159.9v1.452l3.538,3.489-5.866,5.82-1.086-1.147c.012.193.017.386.017.582a10.02,10.02,0,0,1-.238,2.181l.186.2,0,11.96a.96.96,0,0,0,.306.709l.005.019.053.068.066.043,12.47,12.342-.013,38.1.014,1.274c.014,1.559.048,4.075.006,7.288-.138,11.121-3.115,34.719-10.475,50.73l.507,1.352,1.376-.517c7.562-16.4,10.511-39.813,10.668-51.546.028-3.231,0-5.782-.006-7.335Z" transform="translate(-98.521 -45.317)" fill="#fff"/>
      <path id="Trazado_211" data-name="Trazado 211" d="M283.139,188.892h-1.464v1.456l3.524,3.476a11.281,11.281,0,0,0,2.239-.673Z" transform="translate(-170.276 -117.196)" fill="#fff"/>
    </g>
    <g id="Grupo_2" data-name="Grupo 2" transform="translate(156.164 158.557)">
      <path id="Trazado_212" data-name="Trazado 212" d="M338.019,353.851a5.7,5.7,0,0,1-1.454-4.19v-7.088H338.9v7q0,3.7,3.2,3.7,3.175,0,3.175-3.7v-7h2.3v7.088a5.712,5.712,0,0,1-1.444,4.19,6.343,6.343,0,0,1-8.1,0Z" transform="translate(-336.564 -342.381)" fill="#fff"/>
      <path id="Trazado_213" data-name="Trazado 213" d="M381.073,342.565l0,12.562h-1.92l-6.928-8.5v8.506h-2.315l0-12.562h1.92l6.928,8.5v-8.506Z" transform="translate(-355.644 -342.378)" fill="#fff"/>
      <path id="Trazado_214" data-name="Trazado 214" d="M403.886,342.563h2.333l0,12.562h-2.333Z" transform="translate(-375.085 -342.377)" fill="#fff"/>
      <path id="Trazado_215" data-name="Trazado 215" d="M426.168,342.558,420.7,355.121h-2.3l-5.494-12.561h2.53l4.182,9.69,4.216-9.691Z" transform="translate(-380.246 -342.374)" fill="#fff"/>
      <path id="Trazado_216" data-name="Trazado 216" d="M456.431,353.161v1.956l-9.422,0,0-12.562h9.171v1.956h-6.837v3.267h6.066v1.92h-6.066v3.464Z" transform="translate(-399.759 -342.372)" fill="#fff"/>
      <path id="Trazado_217" data-name="Trazado 217" d="M483.334,355.113l-2.568-3.678c-.108.012-.269.018-.484.018h-2.836v3.66h-2.333l0-12.561h5.169a6.944,6.944,0,0,1,2.843.538,4.133,4.133,0,0,1,1.858,1.544,4.318,4.318,0,0,1,.646,2.386,4.26,4.26,0,0,1-.691,2.441,4.112,4.112,0,0,1-1.982,1.526l2.89,4.127Zm-.846-9.941a3.579,3.579,0,0,0-2.314-.646h-2.729v5.006h2.728a3.544,3.544,0,0,0,2.314-.655,2.276,2.276,0,0,0,.789-1.858A2.25,2.25,0,0,0,482.488,345.172Z" transform="translate(-415.839 -342.371)" fill="#fff"/>
      <path id="Trazado_218" data-name="Trazado 218" d="M505.451,354.636a5.865,5.865,0,0,1-2.145-1.094l.807-1.813a6.349,6.349,0,0,0,1.893,1,6.878,6.878,0,0,0,2.253.385,3.893,3.893,0,0,0,2.09-.449,1.36,1.36,0,0,0,.691-1.184,1.153,1.153,0,0,0-.385-.889,2.72,2.72,0,0,0-.979-.546q-.593-.2-1.615-.448a19.017,19.017,0,0,1-2.325-.682,3.837,3.837,0,0,1-1.526-1.067,2.882,2.882,0,0,1-.637-1.965,3.344,3.344,0,0,1,.564-1.893,3.828,3.828,0,0,1,1.7-1.355,6.907,6.907,0,0,1,2.791-.5,8.994,8.994,0,0,1,2.26.287,6.237,6.237,0,0,1,1.921.825l-.736,1.813a7.277,7.277,0,0,0-1.723-.736,6.446,6.446,0,0,0-1.74-.25,3.638,3.638,0,0,0-2.056.466,1.441,1.441,0,0,0-.673,1.239,1.117,1.117,0,0,0,.385.879,2.782,2.782,0,0,0,.979.538q.594.2,1.615.448a16.953,16.953,0,0,1,2.3.673,3.953,3.953,0,0,1,1.535,1.067,2.82,2.82,0,0,1,.637,1.938,3.309,3.309,0,0,1-.565,1.884,3.853,3.853,0,0,1-1.713,1.346,6.983,6.983,0,0,1-2.8.5A9.594,9.594,0,0,1,505.451,354.636Z" transform="translate(-431.972 -342.128)" fill="#fff"/>
      <path id="Trazado_219" data-name="Trazado 219" d="M532.16,342.544h2.333l0,12.562h-2.333Z" transform="translate(-448.481 -342.366)" fill="#fff"/>
      <path id="Trazado_220" data-name="Trazado 220" d="M545.54,342.542h5.492a7.877,7.877,0,0,1,3.571.78,5.769,5.769,0,0,1,2.423,2.206,6.719,6.719,0,0,1,0,6.587,5.764,5.764,0,0,1-2.422,2.207,7.873,7.873,0,0,1-3.571.782h-5.491Zm5.385,10.587a5.342,5.342,0,0,0,2.433-.53,3.792,3.792,0,0,0,1.615-1.508,4.841,4.841,0,0,0,0-4.539,3.792,3.792,0,0,0-1.615-1.508,5.347,5.347,0,0,0-2.432-.529h-3.051v8.614Z" transform="translate(-456.137 -342.364)" fill="#fff"/>
      <path id="Trazado_221" data-name="Trazado 221" d="M585.545,352.19h-6.281l-1.238,2.907h-2.4l5.651-12.563h2.3l5.673,12.561H586.8Zm-.771-1.83-2.37-5.491-2.349,5.492Z" transform="translate(-473.35 -342.361)" fill="#fff"/>
      <path id="Trazado_222" data-name="Trazado 222" d="M611.187,342.532h5.491a7.875,7.875,0,0,1,3.571.78,5.77,5.77,0,0,1,2.423,2.206,6.719,6.719,0,0,1,0,6.587,5.768,5.768,0,0,1-2.422,2.207,7.875,7.875,0,0,1-3.57.782h-5.492Zm5.385,10.587a5.339,5.339,0,0,0,2.432-.53,3.794,3.794,0,0,0,1.615-1.508,4.842,4.842,0,0,0,0-4.54A3.792,3.792,0,0,0,619,345.034a5.343,5.343,0,0,0-2.433-.529h-3.05v8.614Z" transform="translate(-493.7 -342.359)" fill="#fff"/>
    </g>
    <path id="Trazado_223" data-name="Trazado 223" d="M336.4,283.848l0-30.016,7.449-.457,0,30.472Z" transform="translate(-180.304 -132.787)" fill="#fff"/>
    <path id="Trazado_224" data-name="Trazado 224" d="M384.922,283.332l0-20.892a7.145,7.145,0,0,0-.141-1.44,2.814,2.814,0,0,0-.461-1.082,2.037,2.037,0,0,0-.885-.7A3.682,3.682,0,0,0,382,258.97a5.75,5.75,0,0,0-1.562.262,9.078,9.078,0,0,0-1.758.764,14.374,14.374,0,0,0-1.886,1.218,20.148,20.148,0,0,0-1.905,1.656l0,20.464h-7.562l0-30.141,6.578-.45a5.67,5.67,0,0,1,.246.832c.083.344.148.726.205,1.142s.117.839.166,1.292.092.911.129,1.388a19.893,19.893,0,0,1,5.248-3.695,12.23,12.23,0,0,1,5.079-1.222,10.7,10.7,0,0,1,3.518.518,5.381,5.381,0,0,1,2.335,1.573,6.552,6.552,0,0,1,1.3,2.639,15.426,15.426,0,0,1,.406,3.751l0,22.37Z" transform="translate(-198 -132.276)" fill="#fff"/>
    <path id="Trazado_225" data-name="Trazado 225" d="M456.581,262.993c-.068-.212-.133-.457-.216-.745-.065-.3-.129-.6-.175-.934s-.1-.689-.124-1.039-.047-.7-.047-1.028a16.279,16.279,0,0,1-1.773,1.541,11.918,11.918,0,0,1-2.014,1.23,10.652,10.652,0,0,1-2.251.814,10.371,10.371,0,0,1-2.5.3,12.194,12.194,0,0,1-5.2-1,8.545,8.545,0,0,1-3.43-2.915,12.6,12.6,0,0,1-1.888-4.609,29.191,29.191,0,0,1-.579-6.129,22.814,22.814,0,0,1,.993-7.071,14.811,14.811,0,0,1,2.817-5.177,11.869,11.869,0,0,1,4.386-3.188,14.383,14.383,0,0,1,5.668-1.082,19.909,19.909,0,0,1,2.992.207,10.066,10.066,0,0,1,2.533.741l0-16,7.559-.516.007,46.047Zm-.8-24.467a11.531,11.531,0,0,0-4.788-.96,7.013,7.013,0,0,0-2.832.56,5.41,5.41,0,0,0-2.181,1.812,9.076,9.076,0,0,0-1.41,3.213,19.909,19.909,0,0,0-.5,4.81,20.522,20.522,0,0,0,.4,4.424,7.82,7.82,0,0,0,1.165,2.842,4.067,4.067,0,0,0,1.856,1.524,6.558,6.558,0,0,0,2.522.449,6.787,6.787,0,0,0,1.694-.211,9.977,9.977,0,0,0,1.562-.53,9.8,9.8,0,0,0,1.38-.741,12.145,12.145,0,0,0,1.13-.813Z" transform="translate(-237.519 -111.625)" fill="#fff"/>
    <path id="Trazado_226" data-name="Trazado 226" d="M532.843,281.793a23.736,23.736,0,0,1-3.07,1.119,22.58,22.58,0,0,1-3.286.708,23.756,23.756,0,0,1-3.414.246,18.951,18.951,0,0,1-5.68-.786,10.323,10.323,0,0,1-4.224-2.517,11.183,11.183,0,0,1-2.631-4.423,20.5,20.5,0,0,1-.914-6.5,23.706,23.706,0,0,1,.979-7.029,15,15,0,0,1,2.851-5.363,12.824,12.824,0,0,1,4.6-3.423,15.57,15.57,0,0,1,6.25-1.191,11.825,11.825,0,0,1,5.021.959,8.369,8.369,0,0,1,3.31,2.765,11.862,11.862,0,0,1,1.822,4.363,26.769,26.769,0,0,1,.567,5.726c0,.431-.011.914-.017,1.447-.023.529-.079,1.2-.174,2.02l-17.779,0a13.96,13.96,0,0,0,.406,3.543,6.44,6.44,0,0,0,1.274,2.536,5.4,5.4,0,0,0,2.193,1.5,8.8,8.8,0,0,0,3.184.507,13.819,13.819,0,0,0,2.42-.22,20.6,20.6,0,0,0,2.492-.625,24.015,24.015,0,0,0,2.466-.908c.8-.352,1.569-.722,2.295-1.115l1.8,5.153a18.732,18.732,0,0,1-2.742,1.51m-4.562-16.551c0-2.389-.409-4.132-1.23-5.248a4.109,4.109,0,0,0-3.55-1.678,6.12,6.12,0,0,0-2.333.427,5.089,5.089,0,0,0-1.845,1.3,6.783,6.783,0,0,0-1.312,2.162,11.983,11.983,0,0,0-.707,3.04Z" transform="translate(-279.422 -132.361)" fill="#fff"/>
    <path id="Trazado_227" data-name="Trazado 227" d="M592.292,268.988l9.546,15.346h-8.621l-6.185-10.257-5.885,10.259H573.7l9.54-15.349-9.168-14.726h8.61l5.761,9.932,5.938-9.934h7.309Z" transform="translate(-316.087 -133.293)" fill="#fff"/>
    <path id="Trazado_228" data-name="Trazado 228" d="M332.1,225.077a5.564,5.564,0,1,0,5.561-5.721,5.646,5.646,0,0,0-5.561,5.721" transform="translate(-177.844 -113.322)" fill="#fff"/>
  </g>
</svg>
