<svg xmlns="http://www.w3.org/2000/svg" width="149.993" height="98.985" viewBox="0 0 149.993 98.985">
  <g id="Grupo_60" data-name="Grupo 60" transform="translate(-21.283 -21.305)">
    <g id="Grupo_1" data-name="Grupo 1" transform="translate(21.283 21.305)">
      <path id="Trazado_1" data-name="Trazado 1" d="M133.555,114.057l-2.511,2.488v.823h.831l2.33-2.312,2.953,3.129a5.675,5.675,0,0,0,.135-1.236q0-.167-.009-.33l-2.419-2.556q-.308.026-.623.026-.347,0-.687-.032" transform="translate(-104.437 -91.573)" fill="gray"/>
      <path id="Trazado_2" data-name="Trazado 2" d="M120.729,108.053H119.9l-.9.892a8.424,8.424,0,0,1,.678.965l1.053-1.039v-.815l0,0" transform="translate(-95.314 -87.025)" fill="gray"/>
      <path id="Trazado_3" data-name="Trazado 3" d="M120.729,108.053H119.9l-.9.892a8.424,8.424,0,0,1,.678.965l1.053-1.039v-.815l0,0" transform="translate(-95.314 -87.025)" fill="#badfe1"/>
      <path id="Trazado_4" data-name="Trazado 4" d="M249.561,40.535a4.661,4.661,0,0,0-4.3,2.832,6.1,6.1,0,0,1,1.813,5.685,4.63,4.63,0,1,0,2.486-8.517" transform="translate(-190.968 -35.874)" fill="#bbdfde"/>
      <path id="Trazado_5" data-name="Trazado 5" d="M161.61,30.911a5.866,5.866,0,0,0-5.882,6.6,7.145,7.145,0,0,1,3.852,3.945,8.307,8.307,0,0,1,.931-.482l-.622-.615v-.823h.834l1.018,1.011a8.232,8.232,0,0,1,1.506-.248l0-.967.581-.579.592.578,0,.965a8.277,8.277,0,0,1,1.69.291,5.878,5.878,0,0,0,.982-1.583,5.294,5.294,0,0,1-4.167-5.147,5.207,5.207,0,0,1,.691-2.6,5.956,5.956,0,0,0-2.006-.345" transform="translate(-123.103 -28.582)" fill="#bbdfde"/>
      <path id="Trazado_6" data-name="Trazado 6" d="M173.873,64.05h-.834v.823l.622.615a8.252,8.252,0,0,1,1.23-.427Zm3.107-.782-.581.579,0,.967q.3-.022.6-.021c.192,0,.383.006.571.019l0-.965-.592-.578" transform="translate(-136.252 -53.096)"/>
      <path id="Trazado_7" data-name="Trazado 7" d="M173.873,64.05h-.834v.823l.622.615a8.252,8.252,0,0,1,1.23-.427Zm3.107-.782-.581.579,0,.967q.3-.022.6-.021c.192,0,.383.006.571.019l0-.965-.592-.578" transform="translate(-136.252 -53.096)" fill="#fff"/>
      <path id="Trazado_8" data-name="Trazado 8" d="M227.9,29.458a3.325,3.325,0,0,0-1.73.481,5.211,5.211,0,0,1,.823,2.816,5.317,5.317,0,0,1-.03.559,6.19,6.19,0,0,1,3.586,1.44,3.242,3.242,0,0,0,.689-2,3.322,3.322,0,0,0-3.338-3.3" transform="translate(-176.504 -27.482)" fill="#bbdfde"/>
      <path id="Trazado_9" data-name="Trazado 9" d="M83.762,66.738a3.3,3.3,0,0,0,.529,6.556,3.348,3.348,0,0,0,3.09-2.044,6.661,6.661,0,0,1-3.619-4.511" transform="translate(-66.495 -55.725)" fill="#92cdcd"/>
      <path id="Trazado_10" data-name="Trazado 10" d="M39.683,83.234a5.184,5.184,0,1,0,0,10.367c.07,0,.138,0,.207,0a8.516,8.516,0,0,1,4.98-5.937,5.221,5.221,0,0,0-5.187-4.426" transform="translate(-31.254 -68.222)" fill="#92cdcd"/>
      <path id="Trazado_11" data-name="Trazado 11" d="M98.546,33.4a6.669,6.669,0,0,0-6.694,6.634,6.564,6.564,0,0,0,.161,1.448,3.428,3.428,0,0,1,.528-.041,3.317,3.317,0,0,1,3.341,3.3,3.231,3.231,0,0,1-.25,1.253,6.661,6.661,0,0,0,1.791.569q-.031-.325-.03-.657a7.119,7.119,0,0,1,7.155-7.079q.3,0,.589.024a6.678,6.678,0,0,0-6.592-5.45" transform="translate(-74.746 -30.465)" fill="#bbdfde"/>
      <path id="Trazado_12" data-name="Trazado 12" d="M93.046,66.567a3.406,3.406,0,0,0-.528.041,6.659,6.659,0,0,0,3.619,4.511,3.236,3.236,0,0,0,.25-1.253,3.317,3.317,0,0,0-3.341-3.3" transform="translate(-75.25 -55.595)" fill="#70beb9"/>
      <path id="Trazado_13" data-name="Trazado 13" d="M212.343,51.306a3.362,3.362,0,0,1-4.377.812,5.373,5.373,0,0,1-5.636,2.347,6.054,6.054,0,0,0-.192,1.517c0,.116,0,.231.01.345a8.234,8.234,0,0,1,4.542,4.493l1.3,1.29c.117.007.234.01.353.009a6.185,6.185,0,0,0,3.1-.829V59.908l-3.54-3.509v-.815h.831l3.708,3.675a.558.558,0,0,1,.177.4v.75a6.128,6.128,0,0,0,1.781-3.2,4.589,4.589,0,0,1-1.813-5.685c-.081-.076-.164-.15-.249-.221" transform="translate(-158.298 -44.034)" fill="#92cdcd"/>
      <path id="Trazado_14" data-name="Trazado 14" d="M220.917,74.19a8.17,8.17,0,0,1,.379,1.169,6.192,6.192,0,0,0,.925.12Zm2.048-5.235h-.831v.815l3.54,3.509v1.383a6.229,6.229,0,0,0,1.176-.879v-.75a.558.558,0,0,0-.176-.4l-3.709-3.675" transform="translate(-172.525 -57.404)"/>
      <path id="Trazado_15" data-name="Trazado 15" d="M220.917,74.19a8.17,8.17,0,0,1,.379,1.169,6.192,6.192,0,0,0,.925.12Zm2.048-5.235h-.831v.815l3.54,3.509v1.383a6.229,6.229,0,0,0,1.176-.879v-.75a.558.558,0,0,0-.176-.4l-3.709-3.675" transform="translate(-172.525 -57.404)" fill="#b8e0e6"/>
      <path id="Trazado_16" data-name="Trazado 16" d="M244.135,52.217a4.589,4.589,0,0,0,1.813,5.685,6.1,6.1,0,0,0-1.813-5.685" transform="translate(-189.842 -44.724)" fill="#70beb9"/>
      <path id="Trazado_17" data-name="Trazado 17" d="M226.968,45.369a5.2,5.2,0,0,1-.791,2.251,3.363,3.363,0,0,0,4.377-.812,6.189,6.189,0,0,0-3.586-1.439" transform="translate(-176.509 -39.536)" fill="#70beb9"/>
      <path id="Trazado_18" data-name="Trazado 18" d="M61.892,101.494a8.515,8.515,0,0,0-4.98,5.937,5.179,5.179,0,0,0,4.98-5.937" transform="translate(-48.275 -82.056)" fill="#57b5ad"/>
      <path id="Trazado_19" data-name="Trazado 19" d="M122.552,55.877a6.624,6.624,0,0,1-6.59,7.805,6.729,6.729,0,0,1-1.124-.093,7.014,7.014,0,0,0,1.827,4.1,5.887,5.887,0,0,1,4.65-.183V62.983l.584-.576.59.576v5.141a5.816,5.816,0,0,1,1.567,1.58,7.379,7.379,0,0,0,.864-.324,8.122,8.122,0,0,1,2.976-8.508,5.871,5.871,0,0,1-3.111-4.447,7.157,7.157,0,0,0-2.233-.549" transform="translate(-92.16 -47.497)" fill="#92cdcd"/>
      <path id="Trazado_20" data-name="Trazado 20" d="M142.142,82.816l-.584.576v4.526a5.772,5.772,0,0,1,1.173.616V83.391Z" transform="translate(-112.403 -67.905)" fill="gray"/>
      <path id="Trazado_21" data-name="Trazado 21" d="M128.2,103.254v1.757l.1.1a7.157,7.157,0,0,0,1.468-.282,5.805,5.805,0,0,0-1.567-1.58m-3.287-1.007a5.853,5.853,0,0,0-2.537.574,7.239,7.239,0,0,0,.908.834h0v0a7.161,7.161,0,0,0,3.7,1.452l.039-.039v-2.433a5.842,5.842,0,0,0-2.113-.392" transform="translate(-97.873 -82.626)" fill="#64bbb8"/>
      <path id="Trazado_22" data-name="Trazado 22" d="M141.441,103.863V106.3l-.039.039c.226.021.456.032.687.032.21,0,.417-.009.623-.026l-.1-.1v-1.757a5.793,5.793,0,0,0-1.173-.616" transform="translate(-112.285 -83.85)" fill="silver"/>
      <path id="Trazado_23" data-name="Trazado 23" d="M126.133,108.053h0l0,0Z" transform="translate(-100.714 -87.025)" fill="silver"/>
      <path id="Trazado_24" data-name="Trazado 24" d="M126.133,108.053h0l0,0Z" transform="translate(-100.714 -87.025)" fill="#64bbb8"/>
      <path id="Trazado_25" data-name="Trazado 25" d="M155.874,58.142a5.87,5.87,0,0,0,3.111,4.447,8.209,8.209,0,0,1,.741-.5,7.152,7.152,0,0,0-3.852-3.945" transform="translate(-123.248 -49.212)" fill="#75c2c2"/>
      <path id="Trazado_26" data-name="Trazado 26" d="M121.865,55.78a7.119,7.119,0,0,0-7.156,7.079q0,.331.031.657a6.86,6.86,0,0,0,1.124.092,6.659,6.659,0,0,0,6.7-6.622,6.546,6.546,0,0,0-.106-1.182c-.194-.016-.391-.024-.589-.024" transform="translate(-92.062 -47.423)" fill="#75c2c2"/>
      <path id="Trazado_27" data-name="Trazado 27" d="M193.054,21.305a5.341,5.341,0,0,0-4.64,2.673,5.875,5.875,0,0,1,3.921,5.522,5.784,5.784,0,0,1-.444,2.228l.041.009a6.169,6.169,0,0,1,4.144-4.328,3.231,3.231,0,0,1-.107-.829,3.289,3.289,0,0,1,1.6-2.816,5.345,5.345,0,0,0-4.512-2.458" transform="translate(-147.9 -21.305)" fill="#bbdfde"/>
      <path id="Trazado_28" data-name="Trazado 28" d="M186.254,32.334a5.207,5.207,0,0,0-.692,2.6,5.293,5.293,0,0,0,4.168,5.147,5.772,5.772,0,0,0,.444-2.228,5.875,5.875,0,0,0-3.921-5.521" transform="translate(-145.74 -29.661)" fill="#91cdcc"/>
      <path id="Trazado_29" data-name="Trazado 29" d="M221.177,31.443a3.278,3.278,0,0,0-1.49,3.645,6.3,6.3,0,0,1,1.87-.283c.139,0,.277,0,.413.013a5.153,5.153,0,0,0,.03-.56,5.211,5.211,0,0,0-.823-2.816" transform="translate(-171.512 -28.985)" fill="#91cdcc"/>
      <path id="Trazado_30" data-name="Trazado 30" d="M207.07,46.482a6.173,6.173,0,0,0-4.144,4.328,5.374,5.374,0,0,0,5.637-2.347,3.3,3.3,0,0,1-1.492-1.981" transform="translate(-158.895 -40.379)" fill="#75c2c2"/>
      <path id="Trazado_31" data-name="Trazado 31" d="M221.893,45.314a6.3,6.3,0,0,0-1.87.283,3.308,3.308,0,0,0,1.492,1.982,5.2,5.2,0,0,0,.791-2.251c-.137-.009-.274-.013-.413-.013" transform="translate(-171.847 -39.494)" fill="#5eb8b4"/>
      <path id="Trazado_32" data-name="Trazado 32" d="M158.5,79.3a7.184,7.184,0,0,1-2.072,1.412,8.1,8.1,0,0,0,1.5,3.017l2.523-2.5Zm1.937-6.672a7.025,7.025,0,0,1-1.177,5.8h.012l2.426,2.4a.573.573,0,0,1,0,.818l-2.978,2.95a8.239,8.239,0,0,0,1.585,1.176,8.162,8.162,0,0,1,3.5-1.08V73.922l-1.075-1.063c-.184.017-.369.026-.557.026a5.993,5.993,0,0,1-1.74-.257m6.239-1.793a5.97,5.97,0,0,1-1.693,1.351l0,1.484v2.917l2.553-2.613.831-.016.014.817-3.4,3.48v6.426a8.164,8.164,0,0,1,1.1.149v-3.1l.59-.581.581.581v3.431a8.1,8.1,0,0,1,1.279.6,8.248,8.248,0,0,0,2.847-2.7l-.506-.5v-.818h.831l.254.251a8.053,8.053,0,0,0,.7-3.306,8.268,8.268,0,0,0-.048-.892l-1.429-1.413a6.149,6.149,0,0,1-3.669-5.262,8.013,8.013,0,0,0-.842-.287" transform="translate(-123.67 -58.829)" fill="#2da9a6"/>
      <path id="Trazado_33" data-name="Trazado 33" d="M216.861,99.084h-.83V99.9l.505.5a7.961,7.961,0,0,0,.578-1.068Zm-.519-5.36,1.428,1.413a7.986,7.986,0,0,0-.176-1.012,6.254,6.254,0,0,1-1.252-.4" transform="translate(-168.823 -76.169)"/>
      <path id="Trazado_34" data-name="Trazado 34" d="M216.861,99.084h-.83V99.9l.505.5a7.961,7.961,0,0,0,.578-1.068Zm-.519-5.36,1.428,1.413a7.986,7.986,0,0,0-.176-1.012,6.254,6.254,0,0,1-1.252-.4" transform="translate(-168.823 -76.169)" fill="#74aeab"/>
      <path id="Trazado_35" data-name="Trazado 35" d="M163.971,82.647h-.012a7.058,7.058,0,0,1-.76.874l1.955,1.927-2.523,2.5a8.319,8.319,0,0,0,.788.86l2.979-2.95a.573.573,0,0,0,0-.817Zm5.711-6.241a5.917,5.917,0,0,1-2.249.673l1.076,1.063,0,10.762c.2-.015.408-.022.615-.022.187,0,.372.006.556.018l0-6.426,3.4-3.48-.014-.818-.831.016-2.553,2.613V77.892l0-1.485" transform="translate(-128.367 -63.05)"/>
      <path id="Trazado_36" data-name="Trazado 36" d="M163.971,82.647h-.012a7.058,7.058,0,0,1-.76.874l1.955,1.927-2.523,2.5a8.319,8.319,0,0,0,.788.86l2.979-2.95a.573.573,0,0,0,0-.817Zm5.711-6.241a5.917,5.917,0,0,1-2.249.673l1.076,1.063,0,10.762c.2-.015.408-.022.615-.022.187,0,.372.006.556.018l0-6.426,3.4-3.48-.014-.818-.831.016-2.553,2.613V77.892l0-1.485" transform="translate(-128.367 -63.05)" fill="#c1e4ef"/>
      <path id="Trazado_37" data-name="Trazado 37" d="M196.851,113.387l-.59.582v3.1a8.188,8.188,0,0,1,1.171.332v-3.43Z" transform="translate(-153.845 -91.066)"/>
      <path id="Trazado_38" data-name="Trazado 38" d="M196.851,113.387l-.59.582v3.1a8.188,8.188,0,0,1,1.171.332v-3.43Z" transform="translate(-153.845 -91.066)" fill="#c1e4ef"/>
      <path id="Trazado_39" data-name="Trazado 39" d="M172.7,70.311a8.347,8.347,0,0,0-.931.482,7.04,7.04,0,0,1,.291.924,5.952,5.952,0,0,0,1.74.257c.188,0,.374-.009.557-.026Zm2.736-.675a8.3,8.3,0,0,0-1.506.248l1.5,1.491,0-1.739m1.173,0,0,1.642a5.961,5.961,0,0,0,1.693-1.351,8.347,8.347,0,0,0-1.69-.291" transform="translate(-135.287 -57.919)" fill="#23a492"/>
      <path id="Trazado_40" data-name="Trazado 40" d="M178.946,69.555c-.2,0-.4.007-.6.021l0,1.739-1.5-1.491a8.266,8.266,0,0,0-1.23.427l1.657,1.638a5.919,5.919,0,0,0,2.249-.673l0-1.642c-.188-.013-.379-.019-.571-.019" transform="translate(-138.199 -57.859)"/>
      <path id="Trazado_41" data-name="Trazado 41" d="M178.946,69.555c-.2,0-.4.007-.6.021l0,1.739-1.5-1.491a8.266,8.266,0,0,0-1.23.427l1.657,1.638a5.919,5.919,0,0,0,2.249-.673l0-1.642c-.188-.013-.379-.019-.571-.019" transform="translate(-138.199 -57.859)" fill="#c1e4ef"/>
      <path id="Trazado_42" data-name="Trazado 42" d="M202.18,72.017a6.147,6.147,0,0,0,3.669,5.262l-.218-.215v-.816h.825l.265.262a8.232,8.232,0,0,0-4.541-4.493" transform="translate(-158.329 -59.724)" fill="#21a186"/>
      <path id="Trazado_43" data-name="Trazado 43" d="M217.244,89.471h-.825v.815l.218.216a6.142,6.142,0,0,0,1.252.4,8.149,8.149,0,0,0-.379-1.169Z" transform="translate(-169.117 -72.947)"/>
      <path id="Trazado_44" data-name="Trazado 44" d="M217.244,89.471h-.825v.815l.218.216a6.142,6.142,0,0,0,1.252.4,8.149,8.149,0,0,0-.379-1.169Z" transform="translate(-169.117 -72.947)" fill="#74aeab"/>
      <path id="Trazado_45" data-name="Trazado 45" d="M158.608,76.487a8.124,8.124,0,0,0-2.976,8.508,7.209,7.209,0,0,0,2.072-1.413l-.051-.05v-.823h.811a7.025,7.025,0,0,0,1.177-5.8,5.883,5.883,0,0,1-1.033-.423" transform="translate(-122.871 -63.111)" fill="#21a186"/>
      <path id="Trazado_46" data-name="Trazado 46" d="M165.577,102.153h-.811v.822l.051.051a7.2,7.2,0,0,0,.759-.874" transform="translate(-129.985 -82.555)" fill="#404040"/>
      <path id="Trazado_47" data-name="Trazado 47" d="M165.577,102.153h-.811v.822l.051.051a7.2,7.2,0,0,0,.759-.874" transform="translate(-129.985 -82.555)" fill="#bcdfd9"/>
      <path id="Trazado_48" data-name="Trazado 48" d="M169.447,74.418a8.417,8.417,0,0,0-.741.5,5.943,5.943,0,0,0,1.033.423,7.041,7.041,0,0,0-.291-.925" transform="translate(-132.97 -61.543)" fill="#249f7d"/>
      <path id="Trazado_49" data-name="Trazado 49" d="M91.3,210.9v-.535a.579.579,0,0,0-.168-.413l-3.586-3.536v-6.652l-.592-.581-.584.582v5.5l-6.2-6.118a.583.583,0,0,0-.828,0l-3.265,3.224-2.817-2.691,3.169-3.14v-.82H75.6l-3.186,3.154-3.208-3.061v-6.848l-.583-.58-.587.581v5.657L65.373,191.9l-.825-.013-.013.822,3.664,3.75.022.025,7.456,7.121a.583.583,0,0,0,.815-.006l3.262-3.221,2.836,2.8-3.2,3.17-3.134-.131-.614.568.559.595,3.4.125h.024a.541.541,0,0,0,.41-.166l3.4-3.344,6.712,6.617v.291c0,7.5-1.732,20.828-13.3,25.7l-.309.752a5.206,5.206,0,0,0,.766.315C89.487,232.534,91.3,218.7,91.3,210.9" transform="translate(-54.05 -147.885)" fill="#1a1818"/>
      <path id="Trazado_50" data-name="Trazado 50" d="M205.221,119.959l0-8.757,4.937-4.876V105.5h-.834l-4.1,4.063,0-7.176,10.625-10.516,3,2.966a.577.577,0,0,0,.831,0l3.6-3.559V90.46h-.834l-3.183,3.154-2.583-2.551,6.786-6.724a.57.57,0,0,0,.169-.4V80.051l-.574-.575-.6.576v3.642l-3.079,3.051-3.139-3.1h-.83v.817l3.142,3.109-2.71,2.676-6.776-6.7,2.863-2.842a.587.587,0,0,0,.176-.407V73.033a.564.564,0,0,0-.176-.4l-3.709-3.673h-.831v.815l3.54,3.509V78.9l-5.023-4.97h-.826v.816l5.61,5.55-2.458,2.42-2.414-2.4h-.831v.817l10.032,9.926-10.8,10.679a.55.55,0,0,0-.165.413v3.175H202.03l-.584.579.584.581h2.018v4.229l-1.89,1.872a.591.591,0,0,0-.172.413v6.956l0,.706c-.013.94-.019,2.5.006,4.49.1,6.546,1.79,19.646,6.051,28.872l.768.293.29-.766c-3.7-8.033-5.82-20.63-5.938-28.417-.033-1.973-.017-3.532,0-4.455l.009-7.439.88-.882v7.6c0,26.109,12.354,30.261,12.884,30.418l.734-.369-.381-.728c-.12-.043-12.062-4.143-12.066-29.321" transform="translate(-157.773 -57.405)" fill="#1a1818"/>
      <path id="Trazado_51" data-name="Trazado 51" d="M200.209,131.982l.014-.008,6.966-6.843,0-.823h-.823l-6.593,6.468-2.836-2.678,3.2-2.95.03-.818-.822-.035-2.691,2.466,0-12.8-.582-.581-.59.582,0,14.126.015.058,0,.043a.241.241,0,0,0,.016.064.316.316,0,0,0,.015.052l.027.054.027.043a.2.2,0,0,0,.049.068l.014.011,0,.008.019.021,3.279,3.077-3.544,3.472a.609.609,0,0,0-.171.41l.008,54,.586.576.584-.577-.008-53.753L200.2,132Z" transform="translate(-153.069 -91.064)" fill="#1a1818"/>
      <path id="Trazado_52" data-name="Trazado 52" d="M101.473,138.7a.6.6,0,0,0-.169-.411l-3.189-3.155,3.416-3.384v-.817h-.826l-3.421,3.389-6.531-6.468v-6.806a.531.531,0,0,0-.168-.4l-3.722-3.778v-3.33a.554.554,0,0,0-.176-.413l-1.7-1.678L87.6,108.87v-.818h-.831l-2.6,2.578-1.9-1.869h-.823v.815l4.243,4.2v3.319a.605.605,0,0,0,.166.415l3.722,3.772v6.575l-3.02,2.779-3.235-3.2,3.144-3.118v-.815h-.825L82.5,126.617,79.8,123.954l-.006-.014v-9.623l-.592-.574-.581.574v8.469L76.1,120.274h-.825v.822l3.49,3.461.033.04,7.338,7.251a.58.58,0,0,0,.809.013l3.212-2.95h.012L100.3,138.935v3.1H98.415l-.59.587.59.571H100.3l0,6.385c0,25.177-11.941,29.281-12.066,29.325l-.375.728A4.967,4.967,0,0,0,88.6,180c.521-.157,12.876-4.312,12.872-30.422Z" transform="translate(-62.184 -87.024)" fill="#1a1818"/>
      <path id="Trazado_53" data-name="Trazado 53" d="M271.851,247.528a5.43,5.43,0,1,1-5.431-5.369,5.4,5.4,0,0,1,5.431,5.369" transform="translate(-202.884 -188.623)" fill="#2da9a6"/>
      <path id="Trazado_54" data-name="Trazado 54" d="M309.735,145.331a8.945,8.945,0,1,1-8.945-8.851,8.892,8.892,0,0,1,8.945,8.851" transform="translate(-226.26 -108.561)" fill="#2da9a6"/>
      <path id="Trazado_55" data-name="Trazado 55" d="M282.09,212.386a5.483,5.483,0,0,0-1.433.189l-.62.62a5.678,5.678,0,0,1,.019,1.684l2.472,2.445v.812H281.7l-1.986-1.961a5.763,5.763,0,0,1-2.851,3.06,5.317,5.317,0,0,0,.191.546,5.518,5.518,0,0,1,1.39-.179,5.435,5.435,0,0,1,5.032,3.352,5.367,5.367,0,0,0-1.388-10.568" transform="translate(-214.91 -166.067)" fill="#51b4b1"/>
      <path id="Trazado_56" data-name="Trazado 56" d="M288.967,215.47a5.655,5.655,0,0,1-.34,1.3l1.987,1.961h.826v-.812Zm.6-2.3a5.466,5.466,0,0,0-.694.239c.029.125.054.252.074.381l.62-.62" transform="translate(-223.821 -166.658)"/>
      <path id="Trazado_57" data-name="Trazado 57" d="M288.967,215.47a5.655,5.655,0,0,1-.34,1.3l1.987,1.961h.826v-.812Zm.6-2.3a5.466,5.466,0,0,0-.694.239c.029.125.054.252.074.381l.62-.62" transform="translate(-223.821 -166.658)" fill="#191718"/>
      <path id="Trazado_58" data-name="Trazado 58" d="M279.041,242.159a5.482,5.482,0,0,0-1.391.179,5.435,5.435,0,0,0,5.037,3.35,5.535,5.535,0,0,0,1.386-.177,5.435,5.435,0,0,0-5.032-3.352" transform="translate(-215.505 -188.623)" fill="#1fa188"/>
      <path id="Trazado_59" data-name="Trazado 59" d="M57.208,192.8a2.754,2.754,0,1,0,1.469,5.093l-1.8-1.845.013-.822.826.013,1.8,1.849a2.723,2.723,0,0,0,.47-1.534,2.765,2.765,0,0,0-2.779-2.754" transform="translate(-46.39 -151.23)" fill="#2da9a6"/>
      <path id="Trazado_60" data-name="Trazado 60" d="M64.545,202.81l-.013.822,1.8,1.845a2.774,2.774,0,0,0,.839-.805l-1.8-1.849Z" transform="translate(-54.048 -158.812)"/>
      <path id="Trazado_61" data-name="Trazado 61" d="M64.545,202.81l-.013.822,1.8,1.845a2.774,2.774,0,0,0,.839-.805l-1.8-1.849Z" transform="translate(-54.048 -158.812)" fill="#1a1818"/>
      <path id="Trazado_62" data-name="Trazado 62" d="M247.212,172.39l-.006-.815-.822.005-7.2,7.2-.6-.589a6.359,6.359,0,0,1-1.269.38l-2-1.968,3.04,3-6.475,6.468-3.151-3.114v-6l-.586-.573-.587.573v6.237a.576.576,0,0,0,.172.413l3.328,3.292-6.474,6.467-3.148-3.112h-.822v.823l3.151,3.112-3.114,3.108a.587.587,0,0,0-.166.413A48.544,48.544,0,0,0,221,204.77c1.1,7.431,4.379,16.141,13.242,20.124l.776-.284-.288-.766c-11.256-5.056-13.03-18.3-13.068-25.913l6.585-6.581,3.16,3.131a.574.574,0,0,0,.418.165h3.917l.589-.577-.589-.574h-3.678l-2.988-2.963,6.6-6.6,3.325,3.283h.826v-.812l-3.327-3.292Z" transform="translate(-172.2 -135.149)" fill="#1a1818"/>
      <path id="Trazado_63" data-name="Trazado 63" d="M269.255,156.33a9.781,9.781,0,0,1-3.235,1.781l.72.71Zm2.752-1.3a10.214,10.214,0,0,1-1.413.1h-.124c-.158.186-.323.367-.495.541h.783v.823l-3.6,3.558a.576.576,0,0,1-.831,0l-1.628-1.61q-.279.049-.564.082a6.434,6.434,0,0,1,.145,5.322,6.309,6.309,0,0,0,1.25,1.153,5.781,5.781,0,0,1,2.594,1.06,6.5,6.5,0,0,0,2.261-.023l-2-1.97v-.825h.829l2.437,2.414a6.365,6.365,0,0,0,1.212-.671,8.781,8.781,0,0,1-.855-9.951" transform="translate(-205.262 -122.613)" fill="#64bbb8"/>
      <path id="Trazado_64" data-name="Trazado 64" d="M272.522,157.664h-.782c-.229.232-.47.453-.72.662l-2.515,2.492-.72-.711a9.759,9.759,0,0,1-1.324.328l1.627,1.611a.575.575,0,0,0,.831,0l3.6-3.559Z" transform="translate(-207.028 -124.61)"/>
      <path id="Trazado_65" data-name="Trazado 65" d="M272.522,157.664h-.782c-.229.232-.47.453-.72.662l-2.515,2.492-.72-.711a9.759,9.759,0,0,1-1.324.328l1.627,1.611a.575.575,0,0,0,.831,0l3.6-3.559Z" transform="translate(-207.028 -124.61)" fill="#1a1818"/>
      <path id="Trazado_66" data-name="Trazado 66" d="M293.956,154.288c-.311.074-.629.134-.95.18a8.78,8.78,0,0,0,.856,9.951,6.226,6.226,0,0,0,.094-10.131" transform="translate(-226.262 -122.052)" fill="#21a28c"/>
      <path id="Trazado_67" data-name="Trazado 67" d="M252.116,203.9l-3.356,3.356a5.84,5.84,0,0,0,3.385-.515,5.3,5.3,0,0,1-.208-1.471,5.355,5.355,0,0,1,.178-1.37m-6.564-5.566a6.454,6.454,0,0,1-.845.263,5.692,5.692,0,0,0-.472.936,3.272,3.272,0,0,1,.309,4.8,5.762,5.762,0,0,0,2.913,2.57l1.594-1.592-3.328-3.292a.576.576,0,0,1-.172-.413v-3.276m4.06-2.44a5.852,5.852,0,0,0-1.07.1,6.535,6.535,0,0,1-1.817,1.743v3.638l3.151,3.114,5.074-5.069a5.754,5.754,0,0,0-1.9-2.4,6.355,6.355,0,0,1-2.594-1.06,5.763,5.763,0,0,0-.841-.061" transform="translate(-190.19 -153.576)" fill="#51b4b1"/>
      <path id="Trazado_68" data-name="Trazado 68" d="M250.841,203.5a6.587,6.587,0,0,1-1.173.6v3.276a.58.58,0,0,0,.171.413l3.328,3.291-1.594,1.593a5.765,5.765,0,0,0,1.3.35l3.356-3.357a5.408,5.408,0,0,1,3.127-3.58,5.607,5.607,0,0,0-.292-.9l-5.074,5.07-3.151-3.116Z" transform="translate(-194.306 -159.333)" fill="#d9d9d9"/>
      <path id="Trazado_69" data-name="Trazado 69" d="M250.841,203.5a6.587,6.587,0,0,1-1.173.6v3.276a.58.58,0,0,0,.171.413l3.328,3.291-1.594,1.593a5.765,5.765,0,0,0,1.3.35l3.356-3.357a5.408,5.408,0,0,1,3.127-3.58,5.607,5.607,0,0,0-.292-.9l-5.074,5.07-3.151-3.116Z" transform="translate(-194.306 -159.333)" fill="#2d8a86"/>
      <path id="Trazado_70" data-name="Trazado 70" d="M277.733,217.381l-1.54,1.542a5.346,5.346,0,0,0,.028,2.84,5.757,5.757,0,0,0,2.851-3.06Zm1.661-1.659-.837.838.856.846a5.676,5.676,0,0,0-.019-1.684" transform="translate(-214.266 -168.594)" fill="#33aba8"/>
      <path id="Trazado_71" data-name="Trazado 71" d="M279.873,214.152a5.409,5.409,0,0,0-3.127,3.58l1.541-1.541,1.338,1.322a5.543,5.543,0,0,0,.34-1.3l-.855-.846.838-.838c-.021-.128-.046-.256-.075-.381" transform="translate(-214.82 -167.405)" fill="#d9d9d9"/>
      <path id="Trazado_72" data-name="Trazado 72" d="M279.873,214.152a5.409,5.409,0,0,0-3.127,3.58l1.541-1.541,1.338,1.322a5.543,5.543,0,0,0,.34-1.3l-.855-.846.838-.838c-.021-.128-.046-.256-.075-.381" transform="translate(-214.82 -167.405)" fill="#2d8a86"/>
      <path id="Trazado_73" data-name="Trazado 73" d="M269.885,196.146a6.326,6.326,0,0,0,2.594,1.06,5.784,5.784,0,0,0-2.594-1.06" transform="translate(-209.622 -153.763)" fill="#36aca9"/>
      <path id="Trazado_74" data-name="Trazado 74" d="M211.432,233.9a5.3,5.3,0,1,1-5.3-5.255,5.272,5.272,0,0,1,5.3,5.255" transform="translate(-157.307 -178.382)" fill="#2da9a6"/>
      <path id="Trazado_75" data-name="Trazado 75" d="M223.416,159.55l-7.856,7.777a6.626,6.626,0,0,0,5.764,1.34,5.8,5.8,0,0,1,.845-1.049v-2.176l.587-.573.586.573v1.288a5.759,5.759,0,0,1,1.817-.668,6.429,6.429,0,0,0,.661-1.191,6.219,6.219,0,0,1-1.292-5.257,10.089,10.089,0,0,1-1.113-.064m-3.343-1.006-6.113,6.006-.013.008-.014.016-.23.226a6.5,6.5,0,0,0,1.033,1.705l7.3-7.214a9.694,9.694,0,0,1-1.958-.748m-2.81-2.159a6.531,6.531,0,0,0-1.545.9c0,.085,0,.17,0,.255a8.009,8.009,0,0,1-2.352,5.679l.142.134,5.525-5.42a9.805,9.805,0,0,1-1.774-1.547" transform="translate(-166.808 -123.641)" fill="#64bbb8"/>
      <path id="Trazado_76" data-name="Trazado 76" d="M250.252,191.386l-.587.573v2.176a5.812,5.812,0,0,1,1.173-.889v-1.287Z" transform="translate(-194.304 -150.157)" fill="#bfbfbf"/>
      <path id="Trazado_77" data-name="Trazado 77" d="M250.252,191.386l-.587.573v2.176a5.812,5.812,0,0,1,1.173-.889v-1.287Z" transform="translate(-194.304 -150.157)" fill="#2a766f"/>
      <path id="Trazado_78" data-name="Trazado 78" d="M226.3,168.377l-7.3,7.214a6.714,6.714,0,0,0,.824.821l7.856-7.777a9.792,9.792,0,0,1-1.385-.258" transform="translate(-171.074 -132.726)" fill="#bfbfbf"/>
      <path id="Trazado_79" data-name="Trazado 79" d="M226.3,168.377l-7.3,7.214a6.714,6.714,0,0,0,.824.821l7.856-7.777a9.792,9.792,0,0,1-1.385-.258" transform="translate(-171.074 -132.726)" fill="#2b7771"/>
      <path id="Trazado_80" data-name="Trazado 80" d="M218.8,162.765l-5.526,5.42-.141-.133-.078.076a6.4,6.4,0,0,0,.411,1.5l.229-.226.014-.015.014-.009,6.113-6.005a9.625,9.625,0,0,1-1.036-.613" transform="translate(-166.565 -128.474)" fill="#bfbfbf"/>
      <path id="Trazado_81" data-name="Trazado 81" d="M218.8,162.765l-5.526,5.42-.141-.133-.078.076a6.4,6.4,0,0,0,.411,1.5l.229-.226.014-.015.014-.009,6.113-6.005a9.625,9.625,0,0,1-1.036-.613" transform="translate(-166.565 -128.474)" fill="#2b7771"/>
      <path id="Trazado_82" data-name="Trazado 82" d="M260.123,169.434a9.863,9.863,0,0,1-1.139.066h-.008a6.22,6.22,0,0,0,1.292,5.257,6.427,6.427,0,0,0-.145-5.323" transform="translate(-201.256 -133.527)" fill="#3badac"/>
      <path id="Trazado_83" data-name="Trazado 83" d="M247.028,197.859a5.792,5.792,0,0,0-.844,1.049,6.53,6.53,0,0,0,.845-.264Zm2.99-1.556a5.756,5.756,0,0,0-1.817.669v1.075a6.545,6.545,0,0,0,1.817-1.743" transform="translate(-191.667 -153.882)" fill="#36aca9"/>
      <path id="Trazado_84" data-name="Trazado 84" d="M250.84,199.059a5.793,5.793,0,0,0-1.173.889v.784a6.516,6.516,0,0,0,1.173-.6Z" transform="translate(-194.305 -155.97)" fill="#2a766f"/>
      <path id="Trazado_85" data-name="Trazado 85" d="M250.84,199.059a5.793,5.793,0,0,0-1.173.889v.784a6.516,6.516,0,0,0,1.173-.6Z" transform="translate(-194.305 -155.97)" fill="#25655d"/>
      <path id="Trazado_86" data-name="Trazado 86" d="M26.539,162.643a4.464,4.464,0,1,0,4.517,4.468,4.49,4.49,0,0,0-4.517-4.468" transform="translate(-21.847 -128.382)" fill="#64bbb8"/>
      <path id="Trazado_87" data-name="Trazado 87" d="M56.564,148.287a4.95,4.95,0,0,0-.876,2.816,5.044,5.044,0,0,0,5.074,5.013,5.1,5.1,0,0,0,2.1-.45,8.17,8.17,0,0,1-.086-1.188q0-.285.018-.564l-1.138-1.128a8.567,8.567,0,0,1-5.091-4.5" transform="translate(-47.348 -117.506)" fill="#64bbb8"/>
      <path id="Trazado_88" data-name="Trazado 88" d="M80.3,166.853l1.138,1.128a8.207,8.207,0,0,1,.1-.822,8.632,8.632,0,0,1-1.236-.305" transform="translate(-65.997 -131.571)"/>
      <path id="Trazado_89" data-name="Trazado 89" d="M80.3,166.853l1.138,1.128a8.207,8.207,0,0,1,.1-.822,8.632,8.632,0,0,1-1.236-.305" transform="translate(-65.997 -131.571)" fill="#64bbb8"/>
      <path id="Trazado_90" data-name="Trazado 90" d="M102.125,248.721l-.1.015-.576.569a.583.583,0,0,1-.815.006l-.483-.462a3.874,3.874,0,1,0,5.14,3.9l-.305.3a.543.543,0,0,1-.41.166h-.025l-3.4-.125-.559-.595.614-.568,3.134.131.759-.751a3.917,3.917,0,0,0-2.98-2.586" transform="translate(-79.011 -193.594)" fill="#2da9a6"/>
      <path id="Trazado_91" data-name="Trazado 91" d="M113.457,251.352l-.758.75-3.134-.13-.614.567.559.6,3.4.124h.024a.541.541,0,0,0,.411-.166l.306-.3c0-.075.007-.152.007-.229a3.792,3.792,0,0,0-.2-1.212m-3.076-2.573a7.227,7.227,0,0,1-1,.07c-.213,0-.424-.01-.632-.028-.083.021-.164.045-.245.071l.483.462a.584.584,0,0,0,.815-.006l.575-.569" transform="translate(-87.363 -193.638)"/>
      <path id="Trazado_92" data-name="Trazado 92" d="M113.457,251.352l-.758.75-3.134-.13-.614.567.559.6,3.4.124h.024a.541.541,0,0,0,.411-.166l.306-.3c0-.075.007-.152.007-.229a3.792,3.792,0,0,0-.2-1.212m-3.076-2.573a7.227,7.227,0,0,1-1,.07c-.213,0-.424-.01-.632-.028-.083.021-.164.045-.245.071l.483.462a.584.584,0,0,0,.815-.006l.575-.569" transform="translate(-87.363 -193.638)" fill="#1a1818"/>
      <path id="Trazado_93" data-name="Trazado 93" d="M166.857,185.144a8.179,8.179,0,0,1-3.311.941l0,8.464a6.61,6.61,0,0,0,.862-.4v-.094a2.468,2.468,0,0,1,0-2.837v-2.676a.614.614,0,0,1,.172-.411l2.544-2.493c-.081-.167-.169-.331-.263-.49m-9.937-1.719a6.5,6.5,0,0,0-2.379,5.024c0,.068,0,.135,0,.2l1.945,1.926a5.565,5.565,0,0,1,1.233.462l3.038-3.009h.826v.818l-2.873,2.846a5.5,5.5,0,0,1,1.844,2.9l.4.394c.066,0,.133,0,.2,0a6.744,6.744,0,0,0,1.218-.111l0-8.8a8.175,8.175,0,0,1-5.455-2.656" transform="translate(-122.238 -144.126)" fill="#47b1b0"/>
      <path id="Trazado_94" data-name="Trazado 94" d="M186.851,194.382l0,8.8a6.7,6.7,0,0,0,1.172-.33l0-8.465c-.182.012-.367.018-.551.018-.208,0-.415-.008-.62-.023" transform="translate(-146.713 -152.427)" fill="#d9d9d9"/>
      <path id="Trazado_95" data-name="Trazado 95" d="M186.851,194.382l0,8.8a6.7,6.7,0,0,0,1.172-.33l0-8.465c-.182.012-.367.018-.551.018-.208,0-.415-.008-.62-.023" transform="translate(-146.713 -152.427)" fill="#2d8a86"/>
      <path id="Trazado_96" data-name="Trazado 96" d="M202.048,197.485l-1.983,1.949v1.518a2.57,2.57,0,0,1,1.908.031,6.507,6.507,0,0,0,.075-3.5" transform="translate(-156.727 -154.778)" fill="#51b4b1"/>
      <path id="Trazado_97" data-name="Trazado 97" d="M195.235,200.957v.094l.048-.027-.048-.067m2.714-8.417-2.544,2.493a.61.61,0,0,0-.172.41v2.677a2.553,2.553,0,0,1,1.17-.913v-1.519l1.984-1.948a6.4,6.4,0,0,0-.439-1.2" transform="translate(-153.067 -151.032)" fill="#d9d9d9"/>
      <path id="Trazado_98" data-name="Trazado 98" d="M195.235,200.957v.094l.048-.027-.048-.067m2.714-8.417-2.544,2.493a.61.61,0,0,0-.172.41v2.677a2.553,2.553,0,0,1,1.17-.913v-1.519l1.984-1.948a6.4,6.4,0,0,0-.439-1.2" transform="translate(-153.067 -151.032)" fill="#2d8a86"/>
      <path id="Trazado_99" data-name="Trazado 99" d="M160.565,208.985c.031.124.058.25.08.377.106.009.211.015.318.017Zm-6.014-5.943a6.477,6.477,0,0,0,.3,1.771c.1,0,.194-.007.291-.007a5.651,5.651,0,0,1,1.35.162l-1.945-1.926m7.043-.622h-.826l-3.037,3.01a5.6,5.6,0,0,1,.991.654l2.873-2.846v-.818" transform="translate(-122.246 -158.517)" fill="#d9d9d9"/>
      <path id="Trazado_100" data-name="Trazado 100" d="M160.565,208.985c.031.124.058.25.08.377.106.009.211.015.318.017Zm-6.014-5.943a6.477,6.477,0,0,0,.3,1.771c.1,0,.194-.007.291-.007a5.651,5.651,0,0,1,1.35.162l-1.945-1.926m7.043-.622h-.826l-3.037,3.01a5.6,5.6,0,0,1,.991.654l2.873-2.846v-.818" transform="translate(-122.246 -158.517)" fill="#2d8a86"/>
      <path id="Trazado_101" data-name="Trazado 101" d="M87.8,207.966a4.864,4.864,0,0,1,.026.507,4.958,4.958,0,0,1-.056.742,7.094,7.094,0,0,0,1.91.546Zm6.558-.858-2.658,2.626.069.013a7.083,7.083,0,0,0,3.578-1.662l-.989-.977m-7.987-9.831a7.016,7.016,0,0,0-2.56,3.864v1.408l3.208,3.062,3.186-3.154h.825v.821l-3.168,3.139,2.817,2.691,3.264-3.224a.582.582,0,0,1,.829,0l1.256,1.239a5.531,5.531,0,0,1-.045-.708,5.461,5.461,0,0,1,1.749-4,6.936,6.936,0,0,0-1.252-3.574,8.441,8.441,0,0,1-10.109-1.562" transform="translate(-68.65 -154.62)" fill="#51b4b1"/>
      <path id="Trazado_102" data-name="Trazado 102" d="M83.153,213.22a6.963,6.963,0,0,0-.209,1.7,7.078,7.078,0,0,0,.042.773,4.948,4.948,0,0,1,4.156,4.353l1.88,1.795c.121.017.241.031.363.041a3.958,3.958,0,0,1,.988-.125,3.919,3.919,0,0,1,.668.057l2.658-2.626.988.977a7.173,7.173,0,0,0,.718-.723c-.014-.079-.026-.159-.037-.239l-1.256-1.24a.588.588,0,0,0-.415-.173.581.581,0,0,0-.414.173l-3.264,3.225L87.2,218.495l3.168-3.139v-.821h-.825l-3.186,3.154-3.208-3.061Z" transform="translate(-67.997 -166.699)" fill="#d9d9d9"/>
      <path id="Trazado_103" data-name="Trazado 103" d="M83.153,213.22a6.963,6.963,0,0,0-.209,1.7,7.078,7.078,0,0,0,.042.773,4.948,4.948,0,0,1,4.156,4.353l1.88,1.795c.121.017.241.031.363.041a3.958,3.958,0,0,1,.988-.125,3.919,3.919,0,0,1,.668.057l2.658-2.626.988.977a7.173,7.173,0,0,0,.718-.723c-.014-.079-.026-.159-.037-.239l-1.256-1.24a.588.588,0,0,0-.415-.173.581.581,0,0,0-.414.173l-3.264,3.225L87.2,218.495l3.168-3.139v-.821h-.825l-3.186,3.154-3.208-3.061Z" transform="translate(-67.997 -166.699)" fill="#2d8a86"/>
      <path id="Trazado_104" data-name="Trazado 104" d="M116.265,248.67l-.027.026.1-.014-.069-.012" transform="translate(-93.22 -193.555)" fill="#2da9a6"/>
      <path id="Trazado_105" data-name="Trazado 105" d="M110.505,248.437a3.958,3.958,0,0,0-.988.125c.208.018.419.028.632.028a7.227,7.227,0,0,0,1-.07l.027-.026a3.916,3.916,0,0,0-.668-.057" transform="translate(-88.129 -193.379)" fill="#d9d9d9"/>
      <path id="Trazado_106" data-name="Trazado 106" d="M110.505,248.437a3.958,3.958,0,0,0-.988.125c.208.018.419.028.632.028a7.227,7.227,0,0,0,1-.07l.027-.026a3.916,3.916,0,0,0-.668-.057" transform="translate(-88.129 -193.379)" fill="#2da9a6"/>
      <path id="Trazado_107" data-name="Trazado 107" d="M64.33,223.164a4.92,4.92,0,1,0,4.916,5.663,7.018,7.018,0,0,1-4.062-5.155l-.521-.5c-.11-.007-.222-.011-.334-.011" transform="translate(-50.13 -174.232)" fill="#2da9a6"/>
      <path id="Trazado_108" data-name="Trazado 108" d="M81.241,223.209l.521.5c-.027-.148-.048-.3-.065-.447-.151-.024-.3-.041-.456-.051" transform="translate(-66.707 -174.266)"/>
      <path id="Trazado_109" data-name="Trazado 109" d="M81.241,223.209l.521.5c-.027-.148-.048-.3-.065-.447-.151-.024-.3-.041-.456-.051" transform="translate(-66.707 -174.266)" fill="#2da9a6"/>
      <path id="Trazado_110" data-name="Trazado 110" d="M83.387,225.259a7.02,7.02,0,0,0,4.061,5.155,4.838,4.838,0,0,0,.057-.742,4.945,4.945,0,0,0-.027-.507Z" transform="translate(-68.333 -175.819)" fill="#1fa188"/>
      <path id="Trazado_111" data-name="Trazado 111" d="M83.121,223.419c.016.15.039.3.064.446l4.09,3.906a4.946,4.946,0,0,0-4.155-4.352" transform="translate(-68.131 -174.425)" fill="#d9d9d9"/>
      <path id="Trazado_112" data-name="Trazado 112" d="M83.121,223.419c.016.15.039.3.064.446l4.09,3.906a4.946,4.946,0,0,0-4.155-4.352" transform="translate(-68.131 -174.425)" fill="#208870"/>
      <path id="Trazado_113" data-name="Trazado 113" d="M265.466,73.461a10.062,10.062,0,0,0-8.1,4.066c.165-.008.331-.013.5-.013a9.687,9.687,0,0,1,9.747,9.633,9.517,9.517,0,0,1-1.432,5.035,6.3,6.3,0,0,1,1.057.485,8.962,8.962,0,0,1,4.7-3.506c0-.034,0-.067,0-.1a4.8,4.8,0,0,1,3.507-4.6,9.944,9.944,0,0,0-9.973-10.995" transform="translate(-200.138 -60.818)" fill="#92cdcd"/>
      <path id="Trazado_114" data-name="Trazado 114" d="M302.78,138.223a8.961,8.961,0,0,0-4.7,3.506,6.438,6.438,0,0,1,.6.389,10.044,10.044,0,0,0,4.4-2.325,4.733,4.733,0,0,1-.3-1.57" transform="translate(-230.985 -109.881)" fill="#2da9a6"/>
      <path id="Trazado_115" data-name="Trazado 115" d="M291.112,150.69a9.724,9.724,0,0,1-.836,1.149h.125a10.184,10.184,0,0,0,1.413-.1q.166-.29.354-.568a6.334,6.334,0,0,0-1.057-.484" transform="translate(-225.07 -119.326)" fill="#4cb2b0"/>
      <path id="Trazado_116" data-name="Trazado 116" d="M296.975,152.687c-.125.184-.243.374-.355.568q.483-.068.95-.179a6.405,6.405,0,0,0-.6-.389" transform="translate(-229.877 -120.839)" fill="#24a598"/>
      <path id="Trazado_117" data-name="Trazado 117" d="M125.171,106.628a7.17,7.17,0,0,1-1.469.282l2.419,2.556a5.689,5.689,0,0,0-.95-2.838m-6.478-1.176v.814L117.64,107.3a8.442,8.442,0,0,1,1.053,5.968,8.38,8.38,0,0,1,3.826,1.845A5.78,5.78,0,0,0,126,111.032l-2.954-3.129-2.33,2.311h-.831v-.822l2.511-2.488a7.174,7.174,0,0,1-3.7-1.452m-.913-.837a5.817,5.817,0,0,0-1.471,1.009,8.647,8.647,0,0,1,.653.716l.9-.892h.827a7.14,7.14,0,0,1-.909-.833" transform="translate(-93.274 -84.42)" fill="#92cdcd"/>
      <path id="Trazado_118" data-name="Trazado 118" d="M183.356,237.092l0,6.584a4.5,4.5,0,0,0,.844-1.024l0-4.533a4.509,4.509,0,0,0-.845-1.027" transform="translate(-144.067 -184.784)" fill="#2da9a6"/>
      <path id="Trazado_119" data-name="Trazado 119" d="M186.841,241.326v4.534a4.413,4.413,0,0,0,0-4.534" transform="translate(-146.708 -187.992)"/>
      <path id="Trazado_120" data-name="Trazado 120" d="M186.841,241.326v4.534a4.413,4.413,0,0,0,0-4.534" transform="translate(-146.708 -187.992)" fill="#2da9a6"/>
      <path id="Trazado_121" data-name="Trazado 121" d="M154.152,246.588l.109.108v-.1l-.109-.013m5.911-1.1h-1.814a5.587,5.587,0,0,1-2.811,1.116v1.249l1.286,1.269a4.574,4.574,0,0,0,3.339-.152v-3.482m0-2.412a5.51,5.51,0,0,1-.683,1.255h.684v-1.255" transform="translate(-121.944 -189.314)" fill="#2da9a6"/>
      <path id="Trazado_122" data-name="Trazado 122" d="M153.622,257.506a4.483,4.483,0,0,0,2.7,2.548l-1.286-1.269v-1.25a5.751,5.751,0,0,1-.592.031,5.537,5.537,0,0,1-.584-.03v.1l-.109-.108c-.043,0-.087-.012-.129-.017" transform="translate(-121.542 -200.249)"/>
      <path id="Trazado_123" data-name="Trazado 123" d="M153.622,257.506a4.483,4.483,0,0,0,2.7,2.548l-1.286-1.269v-1.25a5.751,5.751,0,0,1-.592.031,5.537,5.537,0,0,1-.584-.03v.1l-.109-.108c-.043,0-.087-.012-.129-.017" transform="translate(-121.542 -200.249)" fill="#1a1818"/>
      <path id="Trazado_124" data-name="Trazado 124" d="M173.228,234.7v.067a5.45,5.45,0,0,1-.363,1.964v1.255h-.684a5.61,5.61,0,0,1-1.131,1.157h1.814v3.482a4.482,4.482,0,0,0,1.168-.761l0-6.583a4.5,4.5,0,0,0-.807-.581" transform="translate(-134.746 -182.969)"/>
      <path id="Trazado_125" data-name="Trazado 125" d="M173.228,234.7v.067a5.45,5.45,0,0,1-.363,1.964v1.255h-.684a5.61,5.61,0,0,1-1.131,1.157h1.814v3.482a4.482,4.482,0,0,0,1.168-.761l0-6.583a4.5,4.5,0,0,0-.807-.581" transform="translate(-134.746 -182.969)" fill="#1a1818"/>
      <path id="Trazado_126" data-name="Trazado 126" d="M328.459,118.06a4.906,4.906,0,0,0-1.333.184,9.809,9.809,0,0,1-1.534,4.314q.377-.032.763-.032a8.959,8.959,0,0,1,6.351,2.615,4.737,4.737,0,0,0,.59-2.3,4.818,4.818,0,0,0-4.836-4.785" transform="translate(-251.826 -94.606)" fill="#64bbb8"/>
      <path id="Trazado_127" data-name="Trazado 127" d="M321.136,136.482c-.257,0-.511.011-.763.032a10.029,10.029,0,0,1-1.67,1.96,4.859,4.859,0,0,0,8.783.623,8.96,8.96,0,0,0-6.35-2.616" transform="translate(-246.607 -108.562)" fill="#21a28c"/>
      <path id="Trazado_128" data-name="Trazado 128" d="M320.964,118.819a4.8,4.8,0,0,0-3.507,4.6c0,.034,0,.068,0,.1a8.992,8.992,0,0,1,1.971-.39,9.825,9.825,0,0,0,1.534-4.314" transform="translate(-245.663 -95.181)" fill="#33a99f"/>
      <path id="Trazado_129" data-name="Trazado 129" d="M319.431,136.614a8.992,8.992,0,0,0-1.971.39,4.743,4.743,0,0,0,.3,1.57,10.02,10.02,0,0,0,1.67-1.96" transform="translate(-245.665 -108.662)" fill="#21a28c"/>
      <path id="Trazado_130" data-name="Trazado 130" d="M229.33,108l-.084.084c.05.058.1.118.147.178l.064-.138Zm2.954-2.916-.324.321q.231-.135.474-.252l-.151-.069m-12.88-6.9a9.593,9.593,0,0,0,2.32,8.091,6.619,6.619,0,0,1,6.7,1l.087-.085-9.1-9.006m2.067-4.442a9.6,9.6,0,0,0-1.737,3.13l1.986,1.97,2.458-2.419-2.708-2.68m2.946-2.386a9.735,9.735,0,0,0-2.152,1.54l2.152,2.129V91.35m4.078-1.115a9.841,9.841,0,0,0-2.9.59v5.591a.584.584,0,0,1-.176.407l-2.862,2.841,6.775,6.7,1.89-1.866A9.872,9.872,0,0,1,228.5,90.235" transform="translate(-171.268 -73.526)" fill="#92cdcd"/>
      <path id="Trazado_131" data-name="Trazado 131" d="M226.052,92.672a9.847,9.847,0,0,0-1.176.524v3.67l-2.152-2.129a9.714,9.714,0,0,0-.794.847l2.708,2.679-2.457,2.42-1.986-1.97a9.619,9.619,0,0,0-.33,1.312l9.1,9.006-.086.086a6.473,6.473,0,0,1,.824.81l.085-.083.126.124a6.31,6.31,0,0,1,2.5-2.719l.325-.321a10.253,10.253,0,0,1-1.065-.582l-1.889,1.866-6.776-6.7,2.863-2.841a.586.586,0,0,0,.176-.408Z" transform="translate(-171.727 -75.372)"/>
      <path id="Trazado_132" data-name="Trazado 132" d="M226.052,92.672a9.847,9.847,0,0,0-1.176.524v3.67l-2.152-2.129a9.714,9.714,0,0,0-.794.847l2.708,2.679-2.457,2.42-1.986-1.97a9.619,9.619,0,0,0-.33,1.312l9.1,9.006-.086.086a6.473,6.473,0,0,1,.824.81l.085-.083.126.124a6.31,6.31,0,0,1,2.5-2.719l.325-.321a10.253,10.253,0,0,1-1.065-.582l-1.889,1.866-6.776-6.7,2.863-2.841a.586.586,0,0,0,.176-.408Z" transform="translate(-171.727 -75.372)" fill="#1a1818"/>
      <path id="Trazado_133" data-name="Trazado 133" d="M261.133,154.735c-.022.046-.043.092-.064.138a6.434,6.434,0,0,1,.742,1.174c.19-.021.379-.049.565-.081Zm2.978-2.971c-.162.077-.321.161-.475.252l-1.8,1.783,1.863,1.839a9.776,9.776,0,0,0,3.235-1.781l.668-.662h.052q.257-.262.494-.541a10.1,10.1,0,0,1-4.038-.889" transform="translate(-202.943 -120.14)" fill="#33a99f"/>
      <path id="Trazado_134" data-name="Trazado 134" d="M267.855,153.982H267.8l-.668.662a9.531,9.531,0,0,0,.719-.662m-4.018-1.179a6.312,6.312,0,0,0-2.5,2.719l1.243,1.23a9.8,9.8,0,0,0,1.325-.328l-1.863-1.839,1.8-1.782" transform="translate(-203.143 -120.927)"/>
      <path id="Trazado_135" data-name="Trazado 135" d="M267.855,153.982H267.8l-.668.662a9.531,9.531,0,0,0,.719-.662m-4.018-1.179a6.312,6.312,0,0,0-2.5,2.719l1.243,1.23a9.8,9.8,0,0,0,1.325-.328l-1.863-1.839,1.8-1.782" transform="translate(-203.143 -120.927)" fill="#1a1818"/>
      <path id="Trazado_136" data-name="Trazado 136" d="M236.953,156.648,235.583,158a10.082,10.082,0,0,0,1.113.064,6.167,6.167,0,0,1,.4-1.241c-.048-.06-.1-.12-.147-.178m-5.009-2.3a6.583,6.583,0,0,0-2.513.495,9.755,9.755,0,0,0,1.774,1.546l1.068-1.047h.823l0,.823-.853.837a9.781,9.781,0,0,0,1.958.748l1.93-1.908a6.568,6.568,0,0,0-4.184-1.494" transform="translate(-178.975 -122.095)" fill="#33a99f"/>
      <path id="Trazado_137" data-name="Trazado 137" d="M251.031,160.508l-1.929,1.907a9.737,9.737,0,0,0,1.383.259l1.37-1.357a6.539,6.539,0,0,0-.824-.81" transform="translate(-193.877 -126.764)" fill="#bfbfbf"/>
      <path id="Trazado_138" data-name="Trazado 138" d="M251.031,160.508l-1.929,1.907a9.737,9.737,0,0,0,1.383.259l1.37-1.357a6.539,6.539,0,0,0-.824-.81" transform="translate(-193.877 -126.764)" fill="#238678"/>
      <path id="Trazado_139" data-name="Trazado 139" d="M238.643,158.444h-.822l-1.068,1.047a9.626,9.626,0,0,0,1.036.613l.852-.837Z" transform="translate(-184.521 -125.201)" fill="#bfbfbf"/>
      <path id="Trazado_140" data-name="Trazado 140" d="M238.643,158.444h-.822l-1.068,1.047a9.626,9.626,0,0,0,1.036.613l.852-.837Z" transform="translate(-184.521 -125.201)" fill="#238678"/>
      <path id="Trazado_141" data-name="Trazado 141" d="M259.8,164.587a6.162,6.162,0,0,0-.4,1.24h.008a10.074,10.074,0,0,0,1.139-.065,6.422,6.422,0,0,0-.742-1.175" transform="translate(-201.678 -129.855)" fill="#24a597"/>
      <path id="Trazado_142" data-name="Trazado 142" d="M251.8,90.183c-.167,0-.333,0-.5.013a9.872,9.872,0,0,0,2.725,14.263l.82-.81-3.142-3.11v-.817h.831l3.137,3.1,3.08-3.051V96.132l.6-.576.574.575v3.884a.57.57,0,0,1-.169.405l-4.663,4.62.151.07a6.42,6.42,0,0,1,4.873-.26,9.529,9.529,0,0,0,1.432-5.035,9.686,9.686,0,0,0-9.747-9.633" transform="translate(-194.074 -73.487)" fill="#57b5ad"/>
      <path id="Trazado_143" data-name="Trazado 143" d="M266.67,112.353l-.6.575v3.642l-3.079,3.051-3.139-3.1h-.83v.817l3.142,3.11-.82.81a10.235,10.235,0,0,0,1.064.582l4.664-4.62a.573.573,0,0,0,.169-.4v-3.884Z" transform="translate(-201.395 -90.282)" fill="gray"/>
      <path id="Trazado_144" data-name="Trazado 144" d="M266.67,112.353l-.6.575v3.642l-3.079,3.051-3.139-3.1h-.83v.817l3.142,3.11-.82.81a10.235,10.235,0,0,0,1.064.582l4.664-4.62a.573.573,0,0,0,.169-.4v-3.884Z" transform="translate(-201.395 -90.282)" fill="#16463f"/>
      <path id="Trazado_145" data-name="Trazado 145" d="M276.369,149.206a6.37,6.37,0,0,0-2.75.62,10.1,10.1,0,0,0,4.038.888,9.521,9.521,0,0,0,.836-1.149,6.405,6.405,0,0,0-2.123-.359" transform="translate(-212.451 -118.202)" fill="#26a599"/>
      <path id="Trazado_146" data-name="Trazado 146" d="M101.652,147.96a8.366,8.366,0,1,1-8.367-8.274,8.32,8.32,0,0,1,8.367,8.274" transform="translate(-69.495 -110.99)" fill="#2da9a6"/>
      <path id="Trazado_147" data-name="Trazado 147" d="M200.574,214.388a6.475,6.475,0,0,1-.509.506v1.653a2.572,2.572,0,0,0,.919.168,2.524,2.524,0,0,0,2.018-1V214.8h-2.018Zm1.4-2.472a6.515,6.515,0,0,1-.814,1.72H203v-.92a2.527,2.527,0,0,0-1.028-.8" transform="translate(-156.727 -165.711)" fill="#2da9a6"/>
      <path id="Trazado_148" data-name="Trazado 148" d="M204.592,215.216v.92H202.75a6.478,6.478,0,0,1-.585.752l.41.408h2.018v.922a2.481,2.481,0,0,0,0-3" transform="translate(-158.318 -168.211)"/>
      <path id="Trazado_149" data-name="Trazado 149" d="M204.592,215.216v.92H202.75a6.478,6.478,0,0,1-.585.752l.41.408h2.018v.922a2.481,2.481,0,0,0,0-3" transform="translate(-158.318 -168.211)" fill="#1a1818"/>
      <path id="Trazado_150" data-name="Trazado 150" d="M196.56,224.2a6.614,6.614,0,0,1-1.122.808,2.545,2.545,0,0,0,1.122.845Z" transform="translate(-153.222 -175.019)"/>
      <path id="Trazado_151" data-name="Trazado 151" d="M196.56,224.2a6.614,6.614,0,0,1-1.122.808,2.545,2.545,0,0,0,1.122.845Z" transform="translate(-153.222 -175.019)" fill="#2da9a6"/>
      <path id="Trazado_152" data-name="Trazado 152" d="M200.982,211.091a2.552,2.552,0,0,0-.919.17v3.009a6.642,6.642,0,0,0,.509-.506l-.175-.174.584-.579h.176a6.515,6.515,0,0,0,.814-1.72,2.523,2.523,0,0,0-.99-.2" transform="translate(-156.726 -165.086)" fill="#1fa188"/>
      <path id="Trazado_153" data-name="Trazado 153" d="M202.207,219.011h-.176l-.583.578.175.174a6.614,6.614,0,0,0,.585-.752" transform="translate(-157.774 -171.086)" fill="#d9d9d9"/>
      <path id="Trazado_154" data-name="Trazado 154" d="M202.207,219.011h-.176l-.583.578.175.174a6.614,6.614,0,0,0,.585-.752" transform="translate(-157.774 -171.086)" fill="#1fa188"/>
      <path id="Trazado_155" data-name="Trazado 155" d="M193.837,215.556a2.469,2.469,0,0,0,0,2.837Z" transform="translate(-151.669 -168.468)" fill="#1fa188"/>
      <path id="Trazado_156" data-name="Trazado 156" d="M196.407,211.79a2.548,2.548,0,0,0-1.17.913v2.837l.048.066a6.614,6.614,0,0,0,1.122-.808Z" transform="translate(-153.069 -165.615)" fill="#d9d9d9"/>
      <path id="Trazado_157" data-name="Trazado 157" d="M196.407,211.79a2.548,2.548,0,0,0-1.17.913v2.837l.048.066a6.614,6.614,0,0,0,1.122-.808Z" transform="translate(-153.069 -165.615)" fill="#1fa188"/>
      <path id="Trazado_158" data-name="Trazado 158" d="M139.69,212.336a5.588,5.588,0,0,0-3.374,1.485c.008.141.012.282.012.426a6.913,6.913,0,0,1-1.586,4.413l4.51,4.45a4.424,4.424,0,0,1,.3-3.632v-1.565l.584-.582.592.581v.2a4.542,4.542,0,0,1,4.034-.76l-.857-.847a6.6,6.6,0,0,1-3.974-3.929Z" transform="translate(-107.239 -166.029)" fill="#2da9a6"/>
      <path id="Trazado_159" data-name="Trazado 159" d="M134.45,234.274c-.031.038-.062.074-.094.111a5.562,5.562,0,0,0,4.67,4.514c-.023-.058-.045-.117-.067-.176Zm5.4-1.328-.584.582v1.564a4.5,4.5,0,0,1,1.176-1.364v-.2l-.592-.581" transform="translate(-106.946 -181.643)"/>
      <path id="Trazado_160" data-name="Trazado 160" d="M134.45,234.274c-.031.038-.062.074-.094.111a5.562,5.562,0,0,0,4.67,4.514c-.023-.058-.045-.117-.067-.176Zm5.4-1.328-.584.582v1.564a4.5,4.5,0,0,1,1.176-1.364v-.2l-.592-.581" transform="translate(-106.946 -181.643)" fill="#1a1818"/>
      <path id="Trazado_161" data-name="Trazado 161" d="M159.371,216.474l.857.847a4.516,4.516,0,0,1,.955.4,5.533,5.533,0,0,0-.082-.882,6.641,6.641,0,0,1-1.731-.368m-4.06-4.181c-.053,0-.106.006-.158.011l.245.241q-.046-.124-.087-.252" transform="translate(-122.702 -165.996)"/>
      <path id="Trazado_162" data-name="Trazado 162" d="M159.371,216.474l.857.847a4.516,4.516,0,0,1,.955.4,5.533,5.533,0,0,0-.082-.882,6.641,6.641,0,0,1-1.731-.368m-4.06-4.181c-.053,0-.106.006-.158.011l.245.241q-.046-.124-.087-.252" transform="translate(-122.702 -165.996)" fill="#1f816b"/>
      <path id="Trazado_163" data-name="Trazado 163" d="M159.942,214.047l-.544.538,2.387,2.363a5.5,5.5,0,0,0-1.844-2.9m-3.779-1.019a6.6,6.6,0,0,0,3.974,3.929l-3.974-3.929m1.554-.1.851.842.383-.38a5.545,5.545,0,0,0-1.234-.463" transform="translate(-123.467 -166.48)" fill="#1fa188"/>
      <path id="Trazado_164" data-name="Trazado 164" d="M156.1,212.263c-.1,0-.195,0-.291.008.027.084.056.169.086.252l3.975,3.929a6.628,6.628,0,0,0,1.73.368c-.022-.127-.049-.254-.08-.378l-2.387-2.362.544-.539a5.662,5.662,0,0,0-.991-.654l-.384.38-.85-.842a5.651,5.651,0,0,0-1.35-.162" transform="translate(-123.196 -165.974)" fill="#d9d9d9"/>
      <path id="Trazado_165" data-name="Trazado 165" d="M156.1,212.263c-.1,0-.195,0-.291.008.027.084.056.169.086.252l3.975,3.929a6.628,6.628,0,0,0,1.73.368c-.022-.127-.049-.254-.08-.378l-2.387-2.362.544-.539a5.662,5.662,0,0,0-.991-.654l-.384.38-.85-.842a5.651,5.651,0,0,0-1.35-.162" transform="translate(-123.196 -165.974)" fill="#1f816b"/>
      <path id="Trazado_166" data-name="Trazado 166" d="M135.766,218.463a5.46,5.46,0,0,0-1.749,4,5.548,5.548,0,0,0,.046.708l.13.128a6.915,6.915,0,0,0,1.586-4.413c0-.144,0-.285-.012-.426" transform="translate(-106.69 -170.671)" fill="#1fa188"/>
      <path id="Trazado_167" data-name="Trazado 167" d="M134.205,237.9c.011.08.022.16.037.239.032-.037.063-.073.094-.111Z" transform="translate(-106.832 -185.393)" fill="#d9d9d9"/>
      <path id="Trazado_168" data-name="Trazado 168" d="M134.205,237.9c.011.08.022.16.037.239.032-.037.063-.073.094-.111Z" transform="translate(-106.832 -185.393)" fill="#1fa188"/>
      <path id="Trazado_169" data-name="Trazado 169" d="M152.855,234.6a4.423,4.423,0,0,0-.3,3.632l.2.193.109.013Zm3.938-2.3a4.5,4.5,0,0,0-2.762.94v5.2a5.58,5.58,0,0,0,2.81-1.116h-.072l-.59-.571.59-.586h1.2a5.46,5.46,0,0,0,.682-1.255V233.06l-.592-.585a4.522,4.522,0,0,0-1.271-.18" transform="translate(-120.538 -181.15)" fill="#219f83"/>
      <path id="Trazado_170" data-name="Trazado 170" d="M153.347,241.169c.021.059.043.118.066.175l.129.017Zm1.48-5a4.5,4.5,0,0,0-1.176,1.363v3.838a5.727,5.727,0,0,0,1.176,0v-5.2" transform="translate(-121.334 -184.088)"/>
      <path id="Trazado_171" data-name="Trazado 171" d="M153.347,241.169c.021.059.043.118.066.175l.129.017Zm1.48-5a4.5,4.5,0,0,0-1.176,1.363v3.838a5.727,5.727,0,0,0,1.176,0v-5.2" transform="translate(-121.334 -184.088)" fill="#1a1818"/>
      <path id="Trazado_172" data-name="Trazado 172" d="M170.11,236.724h-1.2l-.59.586.59.571h.072a5.592,5.592,0,0,0,1.131-1.157m.091-3.688.592.586v1.846a5.451,5.451,0,0,0,.364-1.964c0-.022,0-.044,0-.067a4.54,4.54,0,0,0-.956-.4" transform="translate(-132.675 -181.711)"/>
      <path id="Trazado_173" data-name="Trazado 173" d="M170.11,236.724h-1.2l-.59.586.59.571h.072a5.592,5.592,0,0,0,1.131-1.157m.091-3.688.592.586v1.846a5.451,5.451,0,0,0,.364-1.964c0-.022,0-.044,0-.067a4.54,4.54,0,0,0-.956-.4" transform="translate(-132.675 -181.711)" fill="#1a1818"/>
      <path id="Trazado_174" data-name="Trazado 174" d="M24.808,125.971a3.481,3.481,0,1,0,3.518,3.484,3.514,3.514,0,0,0-3.518-3.484" transform="translate(-21.283 -100.599)" fill="#64bbb8"/>
      <path id="Trazado_175" data-name="Trazado 175" d="M225.1,207.8a3.326,3.326,0,0,0-3.332,3.295,3.258,3.258,0,0,0,.517,1.765c.074,0,.149.01.222.016l2.208-2.187h.834v.823l-1.695,1.674a5.31,5.31,0,0,1,1.831,1.155,3.315,3.315,0,0,0,1.837-.985,5.678,5.678,0,0,1-.309-4.8,3.326,3.326,0,0,0-2.114-.754" transform="translate(-173.17 -162.594)" fill="#2da9a6"/>
      <path id="Trazado_176" data-name="Trazado 176" d="M227.861,219.723h-.834l-2.207,2.187a5.3,5.3,0,0,1,1.347.31l1.695-1.674Z" transform="translate(-175.481 -171.625)"/>
      <path id="Trazado_177" data-name="Trazado 177" d="M227.861,219.723h-.834l-2.207,2.187a5.3,5.3,0,0,1,1.347.31l1.695-1.674Z" transform="translate(-175.481 -171.625)" fill="#1a1818"/>
      <path id="Trazado_178" data-name="Trazado 178" d="M243.012,210.91a5.68,5.68,0,0,0,.309,4.8,3.273,3.273,0,0,0-.309-4.8" transform="translate(-188.967 -164.949)" fill="#1fa188"/>
      <path id="Trazado_179" data-name="Trazado 179" d="M223.9,228.677a3.342,3.342,0,0,0,2.816,1.532,3.446,3.446,0,0,0,.584-.05,5.31,5.31,0,0,0-3.179-1.465c-.073-.007-.148-.013-.222-.016" transform="translate(-174.787 -178.409)" fill="#219f83"/>
      <path id="Trazado_180" data-name="Trazado 180" d="M155.977,137.458a8.023,8.023,0,0,0,1.855,7.318,6.636,6.636,0,0,1,2.474-1.283l-4.084-4.042-.038-.024-.03-.038,0-.012a.545.545,0,0,1-.174-.4Zm9.59-4.125a8.376,8.376,0,0,1-1.106.148l0,10.221a6.619,6.619,0,0,1,3.31,2.793,8.055,8.055,0,0,0,1.063-.676l-3.08-2.89-.018-.021,0-.009-.014-.011a.217.217,0,0,1-.049-.067l-.027-.044-.027-.054a.231.231,0,0,1-.013-.051.2.2,0,0,1-.016-.065l0-.043-.014-.057v-9.173m-5.781-.919a8.18,8.18,0,0,0-2.638,2.442v2.792l2.7-2.671h.826v.815l-3.243,3.222,4.3,4.253q.166-.009.335-.009a6.7,6.7,0,0,1,1.222.112v-9.893a8.261,8.261,0,0,1-3.5-1.064m8.231,0a8.227,8.227,0,0,1-1.28.593v8.172l2.691-2.466.823.035-.03.818-3.205,2.951,2.595,2.45a6.452,6.452,0,0,1,2.448-5.84,8.057,8.057,0,0,0-4.043-6.711" transform="translate(-123.15 -105.477)" fill="#64bbb8"/>
      <path id="Trazado_181" data-name="Trazado 181" d="M157.877,138.195a7.976,7.976,0,0,0-1.17,2.6v1.518a.545.545,0,0,0,.174.4l0,.011.03.038.038.024,4.084,4.042a6.654,6.654,0,0,1,1.424-.226l-4.3-4.253,3.243-3.221v-.816h-.826l-2.7,2.671Zm6.142-1.379,0,9.893a6.611,6.611,0,0,1,1.172.331l0-10.221q-.277.019-.561.019c-.205,0-.409-.008-.61-.022" transform="translate(-123.879 -108.815)"/>
      <path id="Trazado_182" data-name="Trazado 182" d="M157.877,138.195a7.976,7.976,0,0,0-1.17,2.6v1.518a.545.545,0,0,0,.174.4l0,.011.03.038.038.024,4.084,4.042a6.654,6.654,0,0,1,1.424-.226l-4.3-4.253,3.243-3.221v-.816h-.826l-2.7,2.671Zm6.142-1.379,0,9.893a6.611,6.611,0,0,1,1.172.331l0-10.221q-.277.019-.561.019c-.205,0-.409-.008-.61-.022" transform="translate(-123.879 -108.815)" fill="#1a1818"/>
      <path id="Trazado_183" data-name="Trazado 183" d="M197.435,134.856a8.291,8.291,0,0,1-1.171.33v9.173l.015.057,0,.043a.224.224,0,0,0,.015.065.342.342,0,0,0,.015.051l.027.054.027.044a.2.2,0,0,0,.049.068l.013.01,0,.009.018.021,3.08,2.89a8.112,8.112,0,0,0,.8-.687c-.008-.057-.015-.114-.022-.171l-2.595-2.449,3.2-2.951.03-.818-.822-.036-2.691,2.468Z" transform="translate(-153.848 -107.331)"/>
      <path id="Trazado_184" data-name="Trazado 184" d="M197.435,134.856a8.291,8.291,0,0,1-1.171.33v9.173l.015.057,0,.043a.224.224,0,0,0,.015.065.342.342,0,0,0,.015.051l.027.054.027.044a.2.2,0,0,0,.049.068l.013.01,0,.009.018.021,3.08,2.89a8.112,8.112,0,0,0,.8-.687c-.008-.057-.015-.114-.022-.171l-2.595-2.449,3.2-2.951.03-.818-.822-.036-2.691,2.468Z" transform="translate(-153.848 -107.331)" fill="#1a1818"/>
      <path id="Trazado_185" data-name="Trazado 185" d="M215.269,160.1a6.443,6.443,0,0,0-2.491,5.084,6.334,6.334,0,0,0,.045.756l.1.093a8.008,8.008,0,0,0,2.352-5.679c0-.085,0-.17,0-.255" transform="translate(-166.358 -126.452)" fill="#26a594"/>
      <path id="Trazado_186" data-name="Trazado 186" d="M212.96,184.187c.007.057.015.114.022.171l.077-.077Z" transform="translate(-166.496 -144.703)" fill="#bfbfbf"/>
      <path id="Trazado_187" data-name="Trazado 187" d="M212.96,184.187c.007.057.015.114.022.171l.077-.077Z" transform="translate(-166.496 -144.703)" fill="#25a595"/>
      <path id="Trazado_188" data-name="Trazado 188" d="M170.983,177.608v3.736a8.179,8.179,0,0,0,3.311-.941,6.623,6.623,0,0,0-3.31-2.794m-4.153-.208a6.623,6.623,0,0,0-2.474,1.283,8.177,8.177,0,0,0,5.455,2.656v-.987L166.83,177.4m1.759-.235q-.169,0-.335.009l1.558,1.541v-1.438a6.724,6.724,0,0,0-1.222-.112" transform="translate(-129.674 -139.384)" fill="#23a492"/>
      <path id="Trazado_189" data-name="Trazado 189" d="M175.986,177.2a6.653,6.653,0,0,0-1.424.226l2.982,2.952v.987c.2.015.412.023.62.023.185,0,.369-.006.551-.018v-3.735a6.61,6.61,0,0,0-1.171-.331v1.439Z" transform="translate(-137.406 -139.41)" fill="#d9d9d9"/>
      <path id="Trazado_190" data-name="Trazado 190" d="M175.986,177.2a6.653,6.653,0,0,0-1.424.226l2.982,2.952v.987c.2.015.412.023.62.023.185,0,.369-.006.551-.018v-3.735a6.61,6.61,0,0,0-1.171-.331v1.439Z" transform="translate(-137.406 -139.41)" fill="#20806f"/>
      <path id="Trazado_191" data-name="Trazado 191" d="M64.635,98.657a8.625,8.625,0,0,0-3.388.688,5.186,5.186,0,0,1-4.98,5.937,8.448,8.448,0,0,0-.206,1.859,8.361,8.361,0,0,0,.785,3.548,5.1,5.1,0,0,1,7.225-1.205V107.2l.581-.573.592.573v3.5c.081.119.156.24.227.365a8.375,8.375,0,0,1,4.538-2.344,5.7,5.7,0,0,1-1.1-4.264l-2.018-2v-.815h.823l1.543,1.518a5.77,5.77,0,0,1,1.4-2.053,8.586,8.586,0,0,0-6.031-2.453" transform="translate(-47.631 -79.906)" fill="#92cdcd"/>
      <path id="Trazado_192" data-name="Trazado 192" d="M89.685,115.962l-.581.573v2.284a5.034,5.034,0,0,1,1.173,1.217v-3.5Zm3.066-4.982h-.823v.815l2.018,2a5.689,5.689,0,0,1,.348-1.293l-1.543-1.519" transform="translate(-72.664 -89.242)"/>
      <path id="Trazado_193" data-name="Trazado 193" d="M89.685,115.962l-.581.573v2.284a5.034,5.034,0,0,1,1.173,1.217v-3.5Zm3.066-4.982h-.823v.815l2.018,2a5.689,5.689,0,0,1,.348-1.293l-1.543-1.519" transform="translate(-72.664 -89.242)" fill="#1a1818"/>
      <path id="Trazado_194" data-name="Trazado 194" d="M67.7,141.423v.6c.073-.081.15-.159.227-.236-.07-.125-.147-.247-.227-.364m-4.2-2.213a5.087,5.087,0,0,0-4.2,2.2,8.572,8.572,0,0,0,5.091,4.5l-1.22-1.21v-.823H64l1.755,1.744a8.132,8.132,0,0,1,.774-1.973v-3.444a5.075,5.075,0,0,0-3.029-1" transform="translate(-50.084 -110.629)" fill="#33a99f"/>
      <path id="Trazado_195" data-name="Trazado 195" d="M76.1,146.989h-.825v.822l1.22,1.21a8.628,8.628,0,0,0,1.236.305c.034-.2.076-.4.124-.595Zm2.528-3.674v3.444a8.34,8.34,0,0,1,1.173-1.626v-.6a5.08,5.08,0,0,0-1.173-1.218" transform="translate(-62.185 -113.739)"/>
      <path id="Trazado_196" data-name="Trazado 196" d="M76.1,146.989h-.825v.822l1.22,1.21a8.628,8.628,0,0,0,1.236.305c.034-.2.076-.4.124-.595Zm2.528-3.674v3.444a8.34,8.34,0,0,1,1.173-1.626v-.6a5.08,5.08,0,0,0-1.173-1.218" transform="translate(-62.185 -113.739)" fill="#1a1818"/>
      <path id="Trazado_197" data-name="Trazado 197" d="M108.893,112.123a5.842,5.842,0,0,0-.06.827,5.676,5.676,0,0,0,1.156,3.436,8.534,8.534,0,0,1,1.13-.113v-1.949Zm3.084-1.666L110.417,112l1.7,1.678a.556.556,0,0,1,.176.413v2.227c.25.026.5.064.74.111a8.429,8.429,0,0,0-1.052-5.968m-1.332-1.681a5.769,5.769,0,0,0-1.4,2.053l.356.35,1.7-1.686a8.525,8.525,0,0,0-.653-.716" transform="translate(-87.61 -87.573)" fill="#57b5ad"/>
      <path id="Trazado_198" data-name="Trazado 198" d="M111.485,111.733l-1.7,1.685-.356-.349a5.681,5.681,0,0,0-.348,1.293l2.225,2.2v1.949c.095,0,.188,0,.283,0a8.492,8.492,0,0,1,.889.046v-2.227a.555.555,0,0,0-.177-.414l-1.7-1.678,1.56-1.538a8.4,8.4,0,0,0-.678-.965" transform="translate(-87.797 -89.813)" fill="gray"/>
      <path id="Trazado_199" data-name="Trazado 199" d="M111.485,111.733l-1.7,1.685-.356-.349a5.681,5.681,0,0,0-.348,1.293l2.225,2.2v1.949c.095,0,.188,0,.283,0a8.492,8.492,0,0,1,.889.046v-2.227a.555.555,0,0,0-.177-.414l-1.7-1.678,1.56-1.538a8.4,8.4,0,0,0-.678-.965" transform="translate(-87.797 -89.813)" fill="#16463f"/>
      <path id="Trazado_200" data-name="Trazado 200" d="M93.649,139.684c-.094,0-.189,0-.282,0a8.5,8.5,0,0,0-1.129.113,8.378,8.378,0,0,0-4.538,2.344c-.077.077-.153.156-.227.236a8.269,8.269,0,0,0-1.173,1.626,8.129,8.129,0,0,0-.774,1.973q-.074.293-.125.595a8.754,8.754,0,0,0,1.465.122,8.55,8.55,0,0,0,8.411-6.857c-.243-.047-.49-.085-.741-.111a8.389,8.389,0,0,0-.888-.046" transform="translate(-69.858 -110.988)" fill="#21a495"/>
      <path id="Trazado_201" data-name="Trazado 201" d="M179.373,128.434v1.192a8.254,8.254,0,0,0,1.279-.592,8.023,8.023,0,0,0-1.279-.6m-3.447-.478a8.179,8.179,0,0,0-3.5,1.08,8.258,8.258,0,0,0,3.5,1.065v-2.145m1.171,0V130.1a8.375,8.375,0,0,0,1.106-.149V128.1a8.162,8.162,0,0,0-1.1-.149" transform="translate(-135.785 -102.1)" fill="#239c77"/>
      <path id="Trazado_202" data-name="Trazado 202" d="M187.486,127.875c-.207,0-.412.008-.615.022v2.145c.2.015.4.022.609.022.189,0,.376-.007.562-.019v-2.152c-.184-.012-.37-.018-.557-.018" transform="translate(-146.731 -102.042)"/>
      <path id="Trazado_203" data-name="Trazado 203" d="M187.486,127.875c-.207,0-.412.008-.615.022v2.145c.2.015.4.022.609.022.189,0,.376-.007.562-.019v-2.152c-.184-.012-.37-.018-.557-.018" transform="translate(-146.731 -102.042)" fill="#1a1818"/>
      <path id="Trazado_204" data-name="Trazado 204" d="M196.264,128.566v1.854a8.215,8.215,0,0,0,1.171-.329V128.9a8.061,8.061,0,0,0-1.172-.333" transform="translate(-153.848 -102.565)"/>
      <path id="Trazado_205" data-name="Trazado 205" d="M196.264,128.566v1.854a8.215,8.215,0,0,0,1.171-.329V128.9a8.061,8.061,0,0,0-1.172-.333" transform="translate(-153.848 -102.565)" fill="#1a1818"/>
      <path id="Trazado_206" data-name="Trazado 206" d="M125.171,106.628a7.17,7.17,0,0,1-1.469.282l2.419,2.556a5.689,5.689,0,0,0-.95-2.838m-6.478-1.176v.814L117.64,107.3a8.442,8.442,0,0,1,1.053,5.968,8.38,8.38,0,0,1,3.826,1.845A5.78,5.78,0,0,0,126,111.032l-2.954-3.129-2.33,2.311h-.831v-.822l2.511-2.488a7.174,7.174,0,0,1-3.7-1.452m-.913-.837a5.817,5.817,0,0,0-1.471,1.009,8.647,8.647,0,0,1,.653.716l.9-.892h.827a7.14,7.14,0,0,1-.909-.833" transform="translate(-93.274 -84.42)" fill="#92cdcd"/>
      <path id="Trazado_207" data-name="Trazado 207" d="M133.555,114.057l-2.511,2.488v.823h.831l2.33-2.312,2.953,3.129a5.675,5.675,0,0,0,.135-1.236q0-.167-.009-.33l-2.419-2.556q-.308.026-.623.026-.347,0-.687-.032" transform="translate(-104.437 -91.573)" fill="#254844"/>
      <path id="Trazado_208" data-name="Trazado 208" d="M142.142,82.816l-.584.576v4.526a5.772,5.772,0,0,1,1.173.616V83.391Z" transform="translate(-112.403 -67.905)" fill="#254844"/>
      <path id="Trazado_209" data-name="Trazado 209" d="M141.441,103.863V106.3l-.039.039c.226.021.456.032.687.032.21,0,.417-.009.623-.026l-.1-.1v-1.757a5.793,5.793,0,0,0-1.173-.616" transform="translate(-112.285 -83.85)" fill="#2b7671"/>
      <path id="Trazado_210" data-name="Trazado 210" d="M164.852,115.652l.01-43.129,3.4-3.48-.014-.817-.831.016-2.553,2.613V67.939l.007-4.091-.592-.578-.581.579,0,2.705-2.521-2.5h-.834v.823l3.356,3.316-.005,24.237-5.854-5.8,3.243-3.221V82.6h-.826l-2.7,2.671V79.9l4.033-3.994a.575.575,0,0,0,0-.818L159.152,72.7h-.823v.822l2,1.977-3.324,3.3-.615-.65c.007.109.01.219.01.33a5.677,5.677,0,0,1-.135,1.236l.105.111V86.6a.544.544,0,0,0,.174.4l0,.011.03.039.038.024,7.066,6.993-.007,21.587.008.722c.008.883.027,2.309,0,4.129-.078,6.3-1.765,19.672-5.936,28.744l.287.766.78-.293c4.285-9.293,5.956-22.559,6.044-29.207.016-1.831,0-3.276,0-4.156Z" transform="translate(-123.548 -53.097)" fill="#1a1818"/>
      <path id="Trazado_211" data-name="Trazado 211" d="M282.5,188.892h-.829v.825l2,1.97a6.393,6.393,0,0,0,1.269-.381Z" transform="translate(-218.554 -148.268)" fill="#2d8a86"/>
    </g>
    <g id="Grupo_2" data-name="Grupo 2" transform="translate(97.709 99.074)">
      <path id="Trazado_212" data-name="Trazado 212" d="M337.388,348.963a3.227,3.227,0,0,1-.824-2.374v-4.016h1.322v3.966q0,2.1,1.811,2.095t1.8-2.1v-3.966h1.3v4.016a3.236,3.236,0,0,1-.818,2.374,3.594,3.594,0,0,1-4.591,0Z" transform="translate(-336.564 -342.464)" fill="#fff"/>
      <path id="Trazado_213" data-name="Trazado 213" d="M376.235,342.565v7.118h-1.088l-3.926-4.819v4.82h-1.312v-7.118H371l3.926,4.819v-4.82Z" transform="translate(-361.827 -342.459)" fill="#fff"/>
      <path id="Trazado_214" data-name="Trazado 214" d="M403.886,342.563h1.322v7.118h-1.322Z" transform="translate(-387.567 -342.458)" fill="#fff"/>
      <path id="Trazado_215" data-name="Trazado 215" d="M420.421,342.558l-3.1,7.118h-1.3l-3.113-7.117h1.434l2.37,5.491,2.389-5.491Z" transform="translate(-394.401 -342.454)" fill="#fff"/>
      <path id="Trazado_216" data-name="Trazado 216" d="M452.347,348.564v1.108h-5.339v-7.118h5.2v1.108H448.33v1.851h3.437V346.6h-3.437v1.963Z" transform="translate(-420.236 -342.451)" fill="#fff"/>
      <path id="Trazado_217" data-name="Trazado 217" d="M479.771,349.669l-1.455-2.084c-.061.007-.152.01-.274.01h-1.607v2.074h-1.322v-7.118h2.929a3.934,3.934,0,0,1,1.611.3,2.342,2.342,0,0,1,1.053.875,2.446,2.446,0,0,1,.366,1.352,2.414,2.414,0,0,1-.391,1.383,2.33,2.33,0,0,1-1.123.864l1.637,2.338Zm-.479-5.633a2.028,2.028,0,0,0-1.311-.366h-1.546v2.837h1.546a2.008,2.008,0,0,0,1.311-.371,1.29,1.29,0,0,0,.447-1.053A1.275,1.275,0,0,0,479.292,344.036Z" transform="translate(-441.527 -342.449)" fill="#fff"/>
      <path id="Trazado_218" data-name="Trazado 218" d="M504.522,349.215a3.323,3.323,0,0,1-1.216-.62l.457-1.027a3.6,3.6,0,0,0,1.072.564,3.9,3.9,0,0,0,1.277.218,2.206,2.206,0,0,0,1.184-.254.771.771,0,0,0,.391-.671.653.653,0,0,0-.218-.5,1.541,1.541,0,0,0-.555-.31q-.336-.112-.915-.254a10.775,10.775,0,0,1-1.317-.386,2.174,2.174,0,0,1-.864-.6,1.633,1.633,0,0,1-.361-1.114,1.9,1.9,0,0,1,.32-1.072,2.169,2.169,0,0,1,.966-.768,3.914,3.914,0,0,1,1.582-.285,5.1,5.1,0,0,1,1.28.163,3.535,3.535,0,0,1,1.088.467l-.417,1.027a4.122,4.122,0,0,0-.976-.417,3.652,3.652,0,0,0-.986-.142,2.061,2.061,0,0,0-1.165.264.816.816,0,0,0-.381.7.633.633,0,0,0,.218.5,1.576,1.576,0,0,0,.555.3q.336.112.915.254a9.608,9.608,0,0,1,1.3.381,2.239,2.239,0,0,1,.87.6,1.6,1.6,0,0,1,.361,1.1,1.875,1.875,0,0,1-.32,1.068,2.183,2.183,0,0,1-.971.763,3.956,3.956,0,0,1-1.586.285A5.435,5.435,0,0,1,504.522,349.215Z" transform="translate(-462.887 -342.128)" fill="#fff"/>
      <path id="Trazado_219" data-name="Trazado 219" d="M532.16,342.544h1.322v7.118h-1.322Z" transform="translate(-484.746 -342.443)" fill="#fff"/>
      <path id="Trazado_220" data-name="Trazado 220" d="M545.54,342.541h3.112a4.464,4.464,0,0,1,2.023.442,3.269,3.269,0,0,1,1.373,1.25,3.807,3.807,0,0,1,0,3.732,3.266,3.266,0,0,1-1.372,1.251,4.462,4.462,0,0,1-2.023.443h-3.112Zm3.051,6a3.027,3.027,0,0,0,1.378-.3,2.148,2.148,0,0,0,.915-.855,2.743,2.743,0,0,0,0-2.572,2.148,2.148,0,0,0-.915-.854,3.03,3.03,0,0,0-1.378-.3h-1.729v4.881Z" transform="translate(-494.883 -342.441)" fill="#fff"/>
      <path id="Trazado_221" data-name="Trazado 221" d="M581.244,348.006h-3.559l-.7,1.647h-1.362l3.2-7.118h1.3l3.215,7.117h-1.383Zm-.437-1.037-1.343-3.112-1.331,3.112Z" transform="translate(-517.673 -342.437)" fill="#fff"/>
      <path id="Trazado_222" data-name="Trazado 222" d="M611.187,342.531H614.3a4.462,4.462,0,0,1,2.023.442,3.27,3.27,0,0,1,1.373,1.25,3.807,3.807,0,0,1,0,3.732,3.268,3.268,0,0,1-1.372,1.251,4.462,4.462,0,0,1-2.023.443h-3.112Zm3.051,6a3.025,3.025,0,0,0,1.378-.3,2.15,2.15,0,0,0,.915-.854,2.743,2.743,0,0,0,0-2.572,2.148,2.148,0,0,0-.915-.854,3.027,3.027,0,0,0-1.379-.3h-1.728v4.881Z" transform="translate(-544.617 -342.433)" fill="#fff"/>
    </g>
    <path id="Trazado_223" data-name="Trazado 223" d="M336.4,270.641l0-17.008,4.221-.259,0,17.266Z" transform="translate(-238.728 -175.814)" fill="#fff"/>
    <path id="Trazado_224" data-name="Trazado 224" d="M377.3,269.962l0-11.838a4.049,4.049,0,0,0-.08-.816,1.6,1.6,0,0,0-.261-.613,1.155,1.155,0,0,0-.5-.394,2.086,2.086,0,0,0-.812-.143,3.258,3.258,0,0,0-.885.148,5.144,5.144,0,0,0-1,.433,8.144,8.144,0,0,0-1.069.69,11.411,11.411,0,0,0-1.08.939l0,11.6h-4.285l0-17.078,3.727-.255a3.213,3.213,0,0,1,.139.471c.047.195.084.411.116.647s.066.475.094.732.052.516.073.786a11.272,11.272,0,0,1,2.973-2.093,6.93,6.93,0,0,1,2.878-.693,6.06,6.06,0,0,1,1.993.293,3.049,3.049,0,0,1,1.323.891,3.713,3.713,0,0,1,.737,1.5,8.741,8.741,0,0,1,.23,2.125l0,12.675Z" transform="translate(-262.159 -175.138)" fill="#fff"/>
    <path id="Trazado_225" data-name="Trazado 225" d="M447.831,242.8c-.039-.12-.075-.259-.122-.422s-.073-.341-.1-.529-.056-.39-.07-.589-.027-.4-.027-.583a9.225,9.225,0,0,1-1,.873,6.753,6.753,0,0,1-1.141.7,6.037,6.037,0,0,1-1.275.461,5.876,5.876,0,0,1-1.416.171,6.909,6.909,0,0,1-2.944-.569,4.842,4.842,0,0,1-1.943-1.652,7.137,7.137,0,0,1-1.07-2.611,16.543,16.543,0,0,1-.328-3.473,12.925,12.925,0,0,1,.563-4.006,8.392,8.392,0,0,1,1.6-2.933,6.725,6.725,0,0,1,2.485-1.807,8.15,8.15,0,0,1,3.211-.613,11.28,11.28,0,0,1,1.7.118,5.705,5.705,0,0,1,1.435.42v-9.066l4.283-.292,0,26.091Zm-.454-13.863a6.534,6.534,0,0,0-2.713-.544,3.973,3.973,0,0,0-1.6.317,3.065,3.065,0,0,0-1.236,1.027,5.142,5.142,0,0,0-.8,1.821,11.282,11.282,0,0,0-.283,2.726,11.629,11.629,0,0,0,.228,2.507,4.431,4.431,0,0,0,.66,1.611,2.3,2.3,0,0,0,1.052.864,3.716,3.716,0,0,0,1.429.255,3.845,3.845,0,0,0,.96-.12,5.654,5.654,0,0,0,.885-.3,5.552,5.552,0,0,0,.782-.42,6.88,6.88,0,0,0,.64-.461Z" transform="translate(-314.483 -147.795)" fill="#fff"/>
    <path id="Trazado_226" data-name="Trazado 226" d="M522.78,269.154a13.445,13.445,0,0,1-1.739.634,12.8,12.8,0,0,1-1.862.4,13.461,13.461,0,0,1-1.935.14,10.739,10.739,0,0,1-3.218-.445,5.849,5.849,0,0,1-2.393-1.426,6.336,6.336,0,0,1-1.491-2.506,11.616,11.616,0,0,1-.518-3.685,13.432,13.432,0,0,1,.555-3.983,8.5,8.5,0,0,1,1.616-3.039A7.267,7.267,0,0,1,514.4,253.3a8.822,8.822,0,0,1,3.542-.675,6.7,6.7,0,0,1,2.845.543,4.742,4.742,0,0,1,1.876,1.566,6.723,6.723,0,0,1,1.032,2.472,15.169,15.169,0,0,1,.321,3.244c0,.244-.006.518-.01.82s-.045.681-.1,1.144l-10.074,0a7.91,7.91,0,0,0,.23,2.008,3.648,3.648,0,0,0,.722,1.437,3.062,3.062,0,0,0,1.243.85,4.985,4.985,0,0,0,1.8.287,7.832,7.832,0,0,0,1.371-.125,11.668,11.668,0,0,0,1.412-.354,13.621,13.621,0,0,0,1.4-.514c.452-.2.889-.409,1.3-.632l1.018,2.92a10.608,10.608,0,0,1-1.554.856m-2.585-9.378a5.046,5.046,0,0,0-.7-2.973,2.328,2.328,0,0,0-2.012-.951,3.467,3.467,0,0,0-1.322.242,2.883,2.883,0,0,0-1.046.736,3.844,3.844,0,0,0-.744,1.225,6.792,6.792,0,0,0-.4,1.723Z" transform="translate(-369.964 -175.25)" fill="#fff"/>
    <path id="Trazado_227" data-name="Trazado 227" d="M584.235,262.6l5.409,8.7H584.76l-3.5-5.812-3.335,5.813H573.7l5.406-8.7-5.195-8.344h4.879l3.264,5.628,3.364-5.629h4.142Z" transform="translate(-418.51 -176.484)" fill="#fff"/>
    <path id="Trazado_228" data-name="Trazado 228" d="M332.1,222.6a3.153,3.153,0,1,0,3.151-3.242A3.2,3.2,0,0,0,332.1,222.6" transform="translate(-235.472 -150.042)" fill="#fff"/>
  </g>
</svg>
