<svg xmlns="http://www.w3.org/2000/svg" viewBox="0 0 48 48"><defs><style>.cls-1{fill:none;stroke:#201602;stroke-linejoin:round;stroke-width:2px;}</style></defs><title>Recurso 54</title><g id="Capa_2" data-name="Capa 2"><g id="Capa_1-2" data-name="Capa 1"><polyline class="cls-1" points="47 39 47 47 1 47 1 7 6 7"/><polyline class="cls-1" points="42 7 47 7 47 31"/><path class="cls-1" d="M41,41H29a5,5,0,0,0-5,5"/><path class="cls-1" d="M24,9V6a5,5,0,0,1,5-5H41V11"/><path class="cls-1" d="M24,6a5,5,0,0,0-5-5H7V41H19a5,5,0,0,1,5,5V33"/><circle class="cls-1" cx="29" cy="21" r="13"/><path class="cls-1" d="M29,13a8,8,0,0,1,8,8"/><polyline class="cls-1" points="36 32 43 39 47 35 40 28"/></g></g></svg>