<svg xmlns="http://www.w3.org/2000/svg" viewBox="0 0 48 48"><defs><style>.cls-1{fill:none;stroke:#201602;stroke-linejoin:round;stroke-width:2px;}</style></defs><title>Recurso 2</title><g id="Capa_2" data-name="Capa 2"><g id="Capa_1-2" data-name="Capa 1"><path class="cls-1" d="M41,29v9a3,3,0,0,1-3,3H4a3,3,0,0,1-3-3V4A3,3,0,0,1,4,1H38a3,3,0,0,1,3,3V6"/><rect class="cls-1" x="13" y="41" width="16" height="6"/><line class="cls-1" x1="5" y1="47" x2="37" y2="47"/><polygon class="cls-1" points="47 26 28 26 19 31 19 26 13 26 13 9 47 9 47 26"/><line class="cls-1" x1="33" y1="15" x2="42" y2="15"/><line class="cls-1" x1="18" y1="15" x2="31" y2="15"/><line class="cls-1" x1="28" y1="20" x2="37" y2="20"/><line class="cls-1" x1="18" y1="20" x2="26" y2="20"/><line class="cls-1" x1="41" y1="35" x2="1" y2="35"/></g></g></svg>