<svg xmlns="http://www.w3.org/2000/svg" viewBox="0 0 44 48"><defs><style>.cls-1{fill:none;stroke:#201602;stroke-linejoin:round;stroke-width:2px;}</style></defs><title>Recurso 58</title><g id="Capa_2" data-name="Capa 2"><g id="Capa_1-2" data-name="Capa 1"><path class="cls-1" d="M38,48V41.29a30,30,0,0,1,3-13.58A19.13,19.13,0,0,0,43,19,17.7,17.7,0,0,0,28.73,1.37,18,18,0,0,0,7.1,17.05,10.37,10.37,0,0,1,5.92,21L1,30l4.37,1.75a1,1,0,0,1,.63.93V39a1,1,0,0,0,1,1h6a1,1,0,0,1,1,1v7"/><polygon class="cls-1" points="31 41 21 41 21 15 26 5 31 15 31 41"/><path class="cls-1" d="M29,47H23a2,2,0,0,1-2-2V41H31v4A2,2,0,0,1,29,47Z"/><line class="cls-1" x1="26" y1="32" x2="26" y2="41"/><line class="cls-1" x1="34" y1="19" x2="40" y2="19"/><line class="cls-1" x1="34" y1="16" x2="38" y2="12"/><line class="cls-1" x1="34" y1="22" x2="38" y2="26"/><line class="cls-1" x1="18" y1="19" x2="12" y2="19"/><line class="cls-1" x1="18" y1="22" x2="14" y2="26"/><line class="cls-1" x1="18" y1="16" x2="14" y2="12"/><line class="cls-1" x1="26" y1="15" x2="26" y2="30"/><line class="cls-1" x1="21" y1="15" x2="31" y2="15"/></g></g></svg>