<svg id="Capa_1" data-name="Capa 1" xmlns="http://www.w3.org/2000/svg" viewBox="0 0 44 48.03"><defs><style>.cls-1{fill:none;stroke:#fff;stroke-linejoin:round;stroke-width:2px;}</style></defs><title>beneficios5</title><g id="Capa_1-2" data-name="Capa 1-2"><path class="cls-1" d="M38,48V41.29a30,30,0,0,1,3-13.58A19.19,19.19,0,0,0,43,19,17.7,17.7,0,0,0,28.73,1.37,18,18,0,0,0,7.39,15.24c-.13.6-.22,1.2-.29,1.81A10.51,10.51,0,0,1,5.92,21L1,30l4.37,1.75a1,1,0,0,1,.63.93V39a1,1,0,0,0,1,1h6a1,1,0,0,1,1,1v7" transform="translate(0 0.03)"/><polygon class="cls-1" points="31 41.02 21 41.02 21 15.03 26 5.03 31 15.03 31 41.02"/><path class="cls-1" d="M29,47H23a2,2,0,0,1-2-2V41H31v4A2,2,0,0,1,29,47Z" transform="translate(0 0.03)"/><line class="cls-1" x1="26" y1="32.03" x2="26" y2="41.03"/><line class="cls-1" x1="34" y1="19.03" x2="40" y2="19.03"/><line class="cls-1" x1="34" y1="16.03" x2="38" y2="12.03"/><line class="cls-1" x1="34" y1="22.03" x2="38" y2="26.03"/><line class="cls-1" x1="18" y1="19.03" x2="12" y2="19.03"/><line class="cls-1" x1="18" y1="22.03" x2="14" y2="26.03"/><line class="cls-1" x1="18" y1="16.03" x2="14" y2="12.03"/><line class="cls-1" x1="26" y1="15.03" x2="26" y2="30.03"/><line class="cls-1" x1="21" y1="15.03" x2="31" y2="15.03"/></g></svg>