<?xml version="1.0" encoding="utf-8"?>
<!-- Generator: Adobe Illustrator 27.0.0, SVG Export Plug-In . SVG Version: 6.00 Build 0)  -->
<svg version="1.1" id="Capa_1" xmlns="http://www.w3.org/2000/svg" xmlns:xlink="http://www.w3.org/1999/xlink" x="0px" y="0px"
	 viewBox="0 0 1200 1200" style="enable-background:new 0 0 1200 1200;" xml:space="preserve">
<g>
	<path d="M600,634.8c-7.2,0-14.4-2.4-20.4-7.2L212.4,367.2c-6-3.6-7.2-10.8-2.4-16.8c3.6-6,10.8-7.2,16.8-2.4L594,609.6
		c3.6,2.4,9.6,2.4,14.4,0l366-261.6c4.8-3.6,13.2-2.4,16.8,2.4c3.6,4.8,2.4,13.2-2.4,16.8L620.4,628.8
		C614.4,633.6,607.2,634.8,600,634.8L600,634.8z"/>
	<path d="M846,738c-2.4,0-4.8-1.2-7.2-2.4L648,600c-6-3.6-7.2-10.8-2.4-16.8c3.6-6,10.8-7.2,16.8-2.4l192,136.8
		c6,3.6,7.2,10.8,2.4,16.8C853.2,736.8,849.6,738,846,738L846,738z"/>
	<path d="M457.2,664.8c-3.6,0-7.2-1.2-9.6-4.8c-3.6-4.8-2.4-13.2,2.4-16.8l87.6-62.4c4.8-3.6,13.2-2.4,16.8,2.4
		c3.6,4.8,2.4,13.2-2.4,16.8l-87.6,62.4C462,663.6,459.6,664.8,457.2,664.8L457.2,664.8z"/>
	<path d="M354,738c-3.6,0-7.2-1.2-9.6-4.8c-3.6-4.8-2.4-13.2,2.4-16.8l30-21.6c6-3.6,13.2-2.4,16.8,2.4c3.6,4.8,2.4,13.2-2.4,16.8
		l-30,21.6C358.8,738,356.4,738,354,738L354,738z"/>
	<path d="M964.8,864H235.2c-20.4,0-36-15.6-36-36V372c0-20.4,15.6-36,36-36h729.6c20.4,0,36,15.6,36,36v456
		C1000.8,848.4,984,864,964.8,864z M235.2,360c-7.2,0-12,4.8-12,12v456c0,7.2,4.8,12,12,12h729.6c7.2,0,12-4.8,12-12V372
		c0-7.2-4.8-12-12-12H235.2z"/>
</g>
</svg>
