<svg xmlns="http://www.w3.org/2000/svg" xmlns:svgjs="http://svgjs.com/svgjs" xmlns:xlink="http://www.w3.org/1999/xlink" width="288" height="288"><svg xmlns="http://www.w3.org/2000/svg" width="288" height="288" viewBox="0 0 48 48"><g fill="#fff" class="color000 svgShape" data-name="Capa 2"><g class="color000 svgShape" data-name="Capa 1"><rect width="16" height="6" x="16" y="41" fill="none" stroke="#fff" stroke-linejoin="round" stroke-width="2" class="colorStroke201602 svgStroke"/><rect width="46" height="40" x="1" y="1" fill="none" stroke="#fff" stroke-linejoin="round" stroke-width="2" class="colorStroke201602 svgStroke" rx="3"/><line x1="8" x2="40" y1="47" y2="47" fill="none" stroke="#fff" stroke-linejoin="round" stroke-width="2" class="colorStroke201602 svgStroke"/><line x1="1" x2="47" y1="35" y2="35" fill="none" stroke="#fff" stroke-linejoin="round" stroke-width="2" class="colorStroke201602 svgStroke"/><path fill="none" stroke="#fff" stroke-linejoin="round" stroke-width="2" d="M19 28.63s0 4.72-3 6.37M29 28.63s0 4.72 3 6.37" class="colorStroke201602 svgStroke"/><path fill="none" stroke="#fff" stroke-linejoin="round" stroke-width="2" d="M34,18.15C34,24.23,29.52,30,24,30S14,24.23,14,18.15A9.79,9.79,0,0,1,24,8,9.79,9.79,0,0,1,34,18.15Z" class="colorStroke201602 svgStroke"/><path fill="none" stroke="#fff" stroke-linejoin="round" stroke-width="2" d="M33.51,14.82S29,17.7,25,16c-3.42-1.46-5-1.37-8,0" class="colorStroke201602 svgStroke"/><line x1="34" x2="36" y1="5" y2="5" fill="none" stroke="#fff" stroke-linejoin="round" stroke-width="2" class="colorStroke201602 svgStroke"/><line x1="38" x2="40" y1="5" y2="5" fill="none" stroke="#fff" stroke-linejoin="round" stroke-width="2" class="colorStroke201602 svgStroke"/><line x1="42" x2="44" y1="5" y2="5" fill="none" stroke="#fff" stroke-linejoin="round" stroke-width="2" class="colorStroke201602 svgStroke"/></g></g></svg></svg>