<svg xmlns="http://www.w3.org/2000/svg" viewBox="0 0 48 48"><defs><style>.cls-1{fill:none;stroke:#201602;stroke-linejoin:round;stroke-width:2px;}</style></defs><title>Recurso 15</title><g id="Capa_2" data-name="Capa 2"><g id="Capa_1-2" data-name="Capa 1"><rect class="cls-1" x="16" y="41" width="16" height="6"/><rect class="cls-1" x="1" y="1" width="46" height="40" rx="3"/><line class="cls-1" x1="8" y1="47" x2="40" y2="47"/><line class="cls-1" x1="1" y1="35" x2="47" y2="35"/><path class="cls-1" d="M19,28.63s0,4.72-3,6.37"/><path class="cls-1" d="M29,28.63s0,4.72,3,6.37"/><path class="cls-1" d="M34,18.15C34,24.23,29.52,30,24,30S14,24.23,14,18.15A9.79,9.79,0,0,1,24,8,9.79,9.79,0,0,1,34,18.15Z"/><path class="cls-1" d="M33.51,14.82S29,17.7,25,16c-3.42-1.46-5-1.37-8,0"/><line class="cls-1" x1="34" y1="5" x2="36" y2="5"/><line class="cls-1" x1="38" y1="5" x2="40" y2="5"/><line class="cls-1" x1="42" y1="5" x2="44" y2="5"/></g></g></svg>