<svg xmlns="http://www.w3.org/2000/svg" viewBox="0 0 48 48"><defs><style>.cls-1{fill:none;stroke:#201602;stroke-linejoin:round;stroke-width:2px;}</style></defs><title>Recurso 31</title><g id="Capa_2" data-name="Capa 2"><g id="Capa_1-2" data-name="Capa 1"><rect class="cls-1" x="1" y="1" width="46" height="46" rx="4"/><path class="cls-1" d="M41,40H15L7,32V8H41Z"/><line class="cls-1" x1="5" y1="24" x2="3" y2="24"/><line class="cls-1" x1="45" y1="24" x2="43" y2="24"/><line class="cls-1" x1="5" y1="17" x2="3" y2="17"/><line class="cls-1" x1="5" y1="31" x2="3" y2="31"/><line class="cls-1" x1="24" y1="40" x2="24" y2="8"/><polygon class="cls-1" points="7 32 15 40 15 32 7 32"/><line class="cls-1" x1="10" y1="23" x2="18" y2="23"/><line class="cls-1" x1="10" y1="28" x2="21" y2="28"/><line class="cls-1" x1="16" y1="18" x2="21" y2="18"/><line class="cls-1" x1="10" y1="18" x2="14" y2="18"/><line class="cls-1" x1="18" y1="13" x2="21" y2="13"/><line class="cls-1" x1="10" y1="13" x2="16" y2="13"/><line class="cls-1" x1="34" y1="23" x2="38" y2="23"/><line class="cls-1" x1="27" y1="23" x2="32" y2="23"/><line class="cls-1" x1="27" y1="18" x2="35" y2="18"/><line class="cls-1" x1="27" y1="33" x2="33" y2="33"/><line class="cls-1" x1="27" y1="28" x2="38" y2="28"/><line class="cls-1" x1="32" y1="13" x2="38" y2="13"/><line class="cls-1" x1="27" y1="13" x2="30" y2="13"/></g></g></svg>