<svg xmlns="http://www.w3.org/2000/svg" xmlns:svgjs="http://svgjs.com/svgjs" xmlns:xlink="http://www.w3.org/1999/xlink" width="288" height="288"><svg xmlns="http://www.w3.org/2000/svg" width="288" height="288" viewBox="0 0 48 48"><g fill="#0d665d" class="color000 svgShape" data-name="Capa 2"><g class="color000 svgShape" data-name="Capa 1"><rect width="46" height="46" x="1" y="1" fill="none" stroke="#0d665d" stroke-linejoin="round" stroke-width="2" class="colorStroke201602 svgStroke" rx="4"/><path fill="none" stroke="#0d665d" stroke-linejoin="round" stroke-width="2" d="M41,40H15L7,32V8H41Z" class="colorStroke201602 svgStroke"/><line x1="5" x2="3" y1="24" y2="24" fill="none" stroke="#0d665d" stroke-linejoin="round" stroke-width="2" class="colorStroke201602 svgStroke"/><line x1="45" x2="43" y1="24" y2="24" fill="none" stroke="#0d665d" stroke-linejoin="round" stroke-width="2" class="colorStroke201602 svgStroke"/><line x1="5" x2="3" y1="17" y2="17" fill="none" stroke="#0d665d" stroke-linejoin="round" stroke-width="2" class="colorStroke201602 svgStroke"/><line x1="5" x2="3" y1="31" y2="31" fill="none" stroke="#0d665d" stroke-linejoin="round" stroke-width="2" class="colorStroke201602 svgStroke"/><line x1="24" x2="24" y1="40" y2="8" fill="none" stroke="#0d665d" stroke-linejoin="round" stroke-width="2" class="colorStroke201602 svgStroke"/><polygon fill="none" stroke="#0d665d" stroke-linejoin="round" stroke-width="2" points="7 32 15 40 15 32 7 32" class="colorStroke201602 svgStroke"/><line x1="10" x2="18" y1="23" y2="23" fill="none" stroke="#0d665d" stroke-linejoin="round" stroke-width="2" class="colorStroke201602 svgStroke"/><line x1="10" x2="21" y1="28" y2="28" fill="none" stroke="#0d665d" stroke-linejoin="round" stroke-width="2" class="colorStroke201602 svgStroke"/><line x1="16" x2="21" y1="18" y2="18" fill="none" stroke="#0d665d" stroke-linejoin="round" stroke-width="2" class="colorStroke201602 svgStroke"/><line x1="10" x2="14" y1="18" y2="18" fill="none" stroke="#0d665d" stroke-linejoin="round" stroke-width="2" class="colorStroke201602 svgStroke"/><line x1="18" x2="21" y1="13" y2="13" fill="none" stroke="#0d665d" stroke-linejoin="round" stroke-width="2" class="colorStroke201602 svgStroke"/><line x1="10" x2="16" y1="13" y2="13" fill="none" stroke="#0d665d" stroke-linejoin="round" stroke-width="2" class="colorStroke201602 svgStroke"/><line x1="34" x2="38" y1="23" y2="23" fill="none" stroke="#0d665d" stroke-linejoin="round" stroke-width="2" class="colorStroke201602 svgStroke"/><line x1="27" x2="32" y1="23" y2="23" fill="none" stroke="#0d665d" stroke-linejoin="round" stroke-width="2" class="colorStroke201602 svgStroke"/><line x1="27" x2="35" y1="18" y2="18" fill="none" stroke="#0d665d" stroke-linejoin="round" stroke-width="2" class="colorStroke201602 svgStroke"/><line x1="27" x2="33" y1="33" y2="33" fill="none" stroke="#0d665d" stroke-linejoin="round" stroke-width="2" class="colorStroke201602 svgStroke"/><line x1="27" x2="38" y1="28" y2="28" fill="none" stroke="#0d665d" stroke-linejoin="round" stroke-width="2" class="colorStroke201602 svgStroke"/><line x1="32" x2="38" y1="13" y2="13" fill="none" stroke="#0d665d" stroke-linejoin="round" stroke-width="2" class="colorStroke201602 svgStroke"/><line x1="27" x2="30" y1="13" y2="13" fill="none" stroke="#0d665d" stroke-linejoin="round" stroke-width="2" class="colorStroke201602 svgStroke"/></g></g></svg></svg>