<svg id="Whatsapp" xmlns="http://www.w3.org/2000/svg" width="71.828" height="71.828" viewBox="0 0 71.828 71.828">
  <path id="Trazado_241" data-name="Trazado 241" d="M35.914,0A35.914,35.914,0,1,1,0,35.914,35.914,35.914,0,0,1,35.914,0Z" fill="#fff"/>
  <path id="Whatsapp-2" data-name="Whatsapp" d="M37.078,30.475c-.638-.318-3.744-1.837-4.323-2.047s-1-.318-1.426.318-1.634,2.043-2,2.462-.74.445-1.369.159a17.2,17.2,0,0,1-5.092-3.147,19.224,19.224,0,0,1-3.518-4.386c-.369-.636-.04-.985.275-1.3.288-.286.638-.731.956-1.108a5.372,5.372,0,0,0,.629-1.051,1.165,1.165,0,0,0-.053-1.11c-.159-.318-1.424-3.433-1.954-4.674-.509-1.237-1.032-1.081-1.424-1.081-.364-.032-.786-.032-1.21-.032a2.389,2.389,0,0,0-1.689.761,7.074,7.074,0,0,0-2.214,5.244c0,3.083,2.267,6.071,2.583,6.516.316.413,4.46,6.77,10.807,9.5,1.513.636,2.691,1.017,3.611,1.333a8.767,8.767,0,0,0,3.984.256c1.216-.193,3.744-1.528,4.272-3.022a5.245,5.245,0,0,0,.381-3.02c-.157-.286-.572-.445-1.208-.731M25.557,46.088h-.034a21.2,21.2,0,0,1-10.711-2.924l-.763-.453L6.1,44.776l2.13-7.724-.506-.795A21.016,21.016,0,0,1,40.458,10.332a20.741,20.741,0,0,1,6.164,14.812A21.042,21.042,0,0,1,25.57,46.09M43.481,7.308A25.729,25.729,0,0,0,25.523,0,25.194,25.194,0,0,0,3.594,37.8L0,50.855l13.424-3.5a25.56,25.56,0,0,0,12.1,3.066h.013a25.3,25.3,0,0,0,25.32-25.207A24.992,24.992,0,0,0,43.45,7.391" transform="translate(11 10)" fill="#17544a"/>
</svg>
