<svg id="Capa_1" data-name="Capa 1" xmlns="http://www.w3.org/2000/svg" xmlns:xlink="http://www.w3.org/1999/xlink" viewBox="0 0 144.9 144.9"><defs><style>.cls-1{fill:none;}.cls-2{clip-path:url(#clip-path);}.cls-10,.cls-11,.cls-12,.cls-13,.cls-14,.cls-15,.cls-16,.cls-17,.cls-18,.cls-19,.cls-20,.cls-21,.cls-22,.cls-23,.cls-24,.cls-25,.cls-26,.cls-27,.cls-28,.cls-29,.cls-3,.cls-30,.cls-31,.cls-32,.cls-33,.cls-34,.cls-35,.cls-36,.cls-37,.cls-38,.cls-39,.cls-4,.cls-40,.cls-41,.cls-42,.cls-43,.cls-44,.cls-45,.cls-46,.cls-47,.cls-48,.cls-5,.cls-6,.cls-7,.cls-8,.cls-9{fill:#8cb7b3;}.cls-4{font-size:12.51px;}.cls-10,.cls-11,.cls-12,.cls-13,.cls-14,.cls-15,.cls-16,.cls-17,.cls-18,.cls-19,.cls-34,.cls-35,.cls-36,.cls-37,.cls-38,.cls-4,.cls-5,.cls-6,.cls-7,.cls-8,.cls-9{font-family:Montserrat-Light, Montserrat Light;font-weight:300;}.cls-5{font-size:12.5px;}.cls-6{font-size:12.48px;}.cls-7{font-size:12.45px;}.cls-8{font-size:12.4px;}.cls-9{font-size:12.34px;}.cls-10{font-size:12.29px;}.cls-11{font-size:12.25px;}.cls-12{font-size:12.19px;}.cls-13{font-size:12.14px;}.cls-14{font-size:12.08px;}.cls-15{font-size:12.04px;}.cls-16{font-size:12px;}.cls-17{font-size:11.98px;}.cls-18{font-size:11.95px;}.cls-19{font-size:11.94px;}.cls-20{font-size:11.94px;}.cls-20,.cls-21,.cls-22,.cls-23,.cls-24,.cls-25,.cls-26,.cls-27,.cls-28,.cls-29,.cls-30,.cls-31,.cls-32,.cls-33,.cls-39,.cls-40,.cls-41,.cls-42,.cls-43,.cls-44,.cls-45,.cls-46,.cls-47,.cls-48{font-family:Montserrat-SemiBold, Montserrat SemiBold;font-weight:600;}.cls-21{font-size:11.97px;}.cls-22{font-size:11.99px;}.cls-23{font-size:12.03px;}.cls-24{font-size:12.09px;}.cls-25{font-size:12.16px;}.cls-26{font-size:12.21px;}.cls-27{font-size:12.26px;}.cls-28{font-size:12.34px;}.cls-29{font-size:12.41px;}.cls-30{font-size:12.44px;}.cls-31{font-size:12.48px;}.cls-32{font-size:12.5px;}.cls-33{font-size:12.51px;}.cls-34{font-size:12.29px;}.cls-35{font-size:12.19px;}.cls-36{font-size:12.14px;}.cls-37{font-size:12.08px;}.cls-38{font-size:12px;}.cls-39{font-size:11.94px;}.cls-40{font-size:11.97px;}.cls-41{font-size:11.99px;}.cls-42{font-size:12.03px;}.cls-43{font-size:12.16px;}.cls-44{font-size:12.21px;}.cls-45{font-size:12.34px;}.cls-46{font-size:12.41px;}.cls-47{font-size:12.44px;}.cls-48{font-size:12.48px;}</style><clipPath id="clip-path" transform="translate(-217.8 -133.49)"><rect class="cls-1" x="195" y="50" width="537.81" height="316.31"/></clipPath></defs><title>licenciatura</title><g class="cls-2"><path class="cls-3" d="M259.27,204.11A28.59,28.59,0,0,0,265,219.84l2.54-1.72h0a25.88,25.88,0,0,1-5.14-14h3.08v-3h-3.08a25.88,25.88,0,0,1,5.14-14L265,185.41h0a28.59,28.59,0,0,0-5.71,15.73h-3.36a6,6,0,0,0-3.86-4.09,6.49,6.49,0,0,0-5.73.69,5.79,5.79,0,0,0,0,9.76,6.46,6.46,0,0,0,5.73.7,6,6,0,0,0,3.86-4.09Zm-9.39,1.49a3.2,3.2,0,0,1-2.2-.87,2.89,2.89,0,0,1,0-4.21,3.22,3.22,0,0,1,4.4,0,2.87,2.87,0,0,1,0,4.21A3.2,3.2,0,0,1,249.88,205.6Z" transform="translate(-217.8 -133.49)"/><path class="cls-3" d="M330.88,196.68a6.45,6.45,0,0,0-3.81,1.24,6,6,0,0,0-2.22,3.22H321.5a28.67,28.67,0,0,0-5.71-15.73l-2.54,1.72h0a25.79,25.79,0,0,1,5.13,14h-3.07v3h3.07a25.79,25.79,0,0,1-5.13,14l2.54,1.72h0a28.67,28.67,0,0,0,5.71-15.73h3.35a5.93,5.93,0,0,0,2.64,3.5,6.46,6.46,0,0,0,4.44.88,6.29,6.29,0,0,0,3.88-2.22,5.76,5.76,0,0,0-.71-8A6.39,6.39,0,0,0,330.88,196.68Zm0,8.92a3.24,3.24,0,0,1-2.2-.87,2.89,2.89,0,0,1,0-4.21,3.23,3.23,0,0,1,4.41,0,2.89,2.89,0,0,1,0,4.21A3.25,3.25,0,0,1,330.88,205.6Z" transform="translate(-217.8 -133.49)"/><path class="cls-3" d="M261.74,181.24a6.49,6.49,0,0,0,3.17-.83l6.75,6.44,2.2-2.1-6.75-6.44a5.75,5.75,0,0,0,.81-3.77,5.83,5.83,0,0,0-1.77-3.45,6.44,6.44,0,0,0-5.62-1.64A6.2,6.2,0,0,0,256,173a5.72,5.72,0,0,0,.58,5.58A6.33,6.33,0,0,0,261.74,181.24Zm-2.2-8.05a3.23,3.23,0,0,1,4.41,0,2.88,2.88,0,0,1,0,4.2,3.23,3.23,0,0,1-4.41,0,2.86,2.86,0,0,1,0-4.2" transform="translate(-217.8 -133.49)"/><path class="cls-3" d="M323.43,225.75a6.46,6.46,0,0,0-7.57-.91l-6.75-6.45-2.2,2.11,6.74,6.44h0a5.7,5.7,0,0,0-.72,4.26,6,6,0,0,0,2.49,3.61,6.51,6.51,0,0,0,4.39,1.05,6.32,6.32,0,0,0,4-2.07,5.77,5.77,0,0,0,1.47-4.08,5.88,5.88,0,0,0-1.82-4Zm-2.2,6.31h0a3.23,3.23,0,0,1-4.41,0,2.88,2.88,0,0,1,0-4.2,3.23,3.23,0,0,1,4.41,0,2.88,2.88,0,0,1,0,4.2Z" transform="translate(-217.8 -133.49)"/><path class="cls-3" d="M273.86,220.5l-2.2-2.11-6.75,6.44a6.54,6.54,0,0,0-4.47-.69,6.23,6.23,0,0,0-3.77,2.38,5.69,5.69,0,0,0-1.1,4.19,5.82,5.82,0,0,0,2.16,3.79,6.43,6.43,0,0,0,8.42-.34,5.86,5.86,0,0,0,1.77-3.45,5.69,5.69,0,0,0-.81-3.77ZM264,232.06a3.23,3.23,0,0,1-4.41,0,2.88,2.88,0,0,1,0-4.2,3.2,3.2,0,0,1,2.2-.88,3.25,3.25,0,0,1,2.21.87,2.89,2.89,0,0,1,0,4.21Z" transform="translate(-217.8 -133.49)"/><path class="cls-3" d="M306.91,184.75l2.2,2.11,6.75-6.45h0a6.52,6.52,0,0,0,3.95.78,6.39,6.39,0,0,0,3.62-1.69,5.88,5.88,0,0,0,1.82-4,5.77,5.77,0,0,0-1.47-4.08,6.32,6.32,0,0,0-4-2.07,6.46,6.46,0,0,0-4.39,1.05,5.88,5.88,0,0,0-2.49,3.61,5.7,5.7,0,0,0,.72,4.26Zm9.91-11.56a3.23,3.23,0,0,1,4.41,0,2.88,2.88,0,0,1,0,4.2,3.23,3.23,0,0,1-4.41,0,2.86,2.86,0,0,1,0-4.2" transform="translate(-217.8 -133.49)"/><path class="cls-3" d="M308.42,226.87l-1.81-2.42h0a28.67,28.67,0,0,1-14.67,4.9v-2.94h-3.12v2.94a28.67,28.67,0,0,1-14.67-4.9l-1.81,2.42h0a31.92,31.92,0,0,0,16.48,5.45v3.2a6.14,6.14,0,0,0-4.28,3.69,5.69,5.69,0,0,0,.73,5.46,6.39,6.39,0,0,0,10.23,0,5.72,5.72,0,0,0,.72-5.46,6.14,6.14,0,0,0-4.28-3.69v-3.2A31.86,31.86,0,0,0,308.42,226.87ZM293.5,241.28a2.92,2.92,0,0,1-.91,2.1,3.23,3.23,0,0,1-4.41,0,2.88,2.88,0,0,1,0-4.2,3.22,3.22,0,0,1,4.4,0A2.89,2.89,0,0,1,293.5,241.28Z" transform="translate(-217.8 -133.49)"/><path class="cls-3" d="M272.34,178.38l1.81,2.42h0a28.67,28.67,0,0,1,14.67-4.9v2.94h3.12V175.9a28.74,28.74,0,0,1,14.68,4.9l1.8-2.42h0a31.86,31.86,0,0,0-16.48-5.45v-3.2a6.12,6.12,0,0,0,4.28-3.69,5.74,5.74,0,0,0-.72-5.47,6.41,6.41,0,0,0-10.23,0,5.72,5.72,0,0,0-.73,5.47,6.16,6.16,0,0,0,4.29,3.69v3.2A31.93,31.93,0,0,0,272.34,178.38ZM287.27,164a2.86,2.86,0,0,1,.91-2.1,3.23,3.23,0,0,1,4.41,0,2.88,2.88,0,0,1,0,4.2,3.23,3.23,0,0,1-4.41,0A2.92,2.92,0,0,1,287.27,164Z" transform="translate(-217.8 -133.49)"/><path class="cls-3" d="M310.63,208.57a1.61,1.61,0,0,0,1.1-.43,1.44,1.44,0,0,0,.46-1.06v-8.92a1.43,1.43,0,0,0-.46-1,1.57,1.57,0,0,0-1.1-.43h-4.28l-.27-.63,3-2.89h0a1.43,1.43,0,0,0,0-2.1l-6.61-6.31a1.62,1.62,0,0,0-2.2,0l-3,2.89-.66-.25V183.3a1.43,1.43,0,0,0-.45-1.05,1.59,1.59,0,0,0-1.1-.44h-9.35a1.53,1.53,0,0,0-1.56,1.49v4.08l-.65.26-3-2.89h0a1.61,1.61,0,0,0-2.2,0l-6.61,6.31a1.43,1.43,0,0,0,0,2.1l3,2.89q-.15.31-.27.63h-4.29a1.52,1.52,0,0,0-1.56,1.48v8.92a1.44,1.44,0,0,0,.46,1,1.59,1.59,0,0,0,1.1.44h4.29c.08.21.17.42.27.62l-3,2.9a1.43,1.43,0,0,0,0,2.1l6.6,6.31a1.62,1.62,0,0,0,2.21,0l3-2.9.65.26V222a1.42,1.42,0,0,0,.46,1.05,1.59,1.59,0,0,0,1.1.44h9.34a1.62,1.62,0,0,0,1.11-.44,1.44,1.44,0,0,0,.45-1.05v-4.09c.22-.08.44-.16.66-.26l3,2.9a1.57,1.57,0,0,0,1.1.43,1.58,1.58,0,0,0,1.1-.43l6.61-6.31h0a1.43,1.43,0,0,0,0-2.1l-3-2.9.27-.62Zm-7.53,2,2.7,2.59-4.4,4.2-2.71-2.58a1.61,1.61,0,0,0-1.82-.27,13.51,13.51,0,0,1-2.28.9,1.5,1.5,0,0,0-1.09,1.42v3.66h-6.23v-3.66a1.51,1.51,0,0,0-1.09-1.42,13.18,13.18,0,0,1-2.28-.9,1.61,1.61,0,0,0-1.82.27l-2.71,2.58-4.41-4.2,2.71-2.59a1.45,1.45,0,0,0,.28-1.74,13.09,13.09,0,0,1-.95-2.17,1.54,1.54,0,0,0-1.48-1h-3.83v-5.95h3.83a1.54,1.54,0,0,0,1.48-1,13.09,13.09,0,0,1,.95-2.17,1.45,1.45,0,0,0-.28-1.74L275,192.11l4.41-4.2,2.71,2.58a1.61,1.61,0,0,0,1.82.27,13.18,13.18,0,0,1,2.28-.9,1.5,1.5,0,0,0,1.09-1.42v-3.66h6.23v3.66a1.5,1.5,0,0,0,1.09,1.42,13.51,13.51,0,0,1,2.28.9,1.61,1.61,0,0,0,1.82-.27l2.71-2.58,4.4,4.2-2.7,2.59a1.42,1.42,0,0,0-.28,1.74,13.05,13.05,0,0,1,.94,2.17,1.56,1.56,0,0,0,1.49,1h3.83v5.95h-3.83a1.55,1.55,0,0,0-1.49,1,13.05,13.05,0,0,1-.94,2.17A1.42,1.42,0,0,0,303.1,210.55Z" transform="translate(-217.8 -133.49)"/><path class="cls-3" d="M290.38,192.22a11.15,11.15,0,0,0-7.71,3.05,10.07,10.07,0,0,0,0,14.71,11.27,11.27,0,0,0,15.42,0,10.05,10.05,0,0,0,0-14.71,11.2,11.2,0,0,0-7.71-3.05m0,17.84a8,8,0,0,1-5.51-2.18,7.2,7.2,0,0,1,0-10.51,8.05,8.05,0,0,1,11,0,7.2,7.2,0,0,1,0,10.51,8,8,0,0,1-5.51,2.18" transform="translate(-217.8 -133.49)"/><path class="cls-3" d="M288.82,203.49l-2-1.92-2.2,2.1,3.11,3a1.58,1.58,0,0,0,1.1.43,1.61,1.61,0,0,0,1.11-.43l6.23-6L294,198.6Z" transform="translate(-217.8 -133.49)"/></g><text class="cls-4" transform="matrix(0.07, -0.95, 1, 0.07, 10.71, 68.15)">L</text><text class="cls-5" transform="matrix(0.16, -0.94, 0.99, 0.15, 11.32, 61.37)">i</text><text class="cls-6" transform="matrix(0.24, -0.93, 0.98, 0.23, 11.73, 58.42)">c</text><text class="cls-7" transform="matrix(0.34, -0.9, 0.95, 0.33, 13.24, 52.3)">e</text><text class="cls-8" transform="matrix(0.46, -0.86, 0.9, 0.44, 15.67, 45.83)">n</text><text class="cls-9" transform="matrix(0.57, -0.8, 0.84, 0.54, 19.44, 38.88)">c</text><text class="cls-10" transform="matrix(0.64, -0.76, 0.8, 0.61, 23.28, 33.57)">i</text><text class="cls-11" transform="matrix(0.7, -0.71, 0.75, 0.67, 25.14, 31.21)">a</text><text class="cls-12" transform="matrix(0.77, -0.65, 0.68, 0.74, 30.04, 26.32)">t</text><text class="cls-13" transform="matrix(0.84, -0.57, 0.6, 0.81, 33.56, 23.26)">u</text><text class="cls-14" transform="matrix(0.9, -0.48, 0.51, 0.86, 40.25, 18.83)">r</text><text class="cls-15" transform="matrix(0.95, -0.4, 0.42, 0.91, 44.25, 16.61)">a</text><text class="cls-16" transform="matrix(0.98, -0.33, 0.34, 0.94, 50.8, 13.92)"> </text><text class="cls-17" transform="matrix(1.01, -0.25, 0.26, 0.97, 53.64, 12.88)">e</text><text class="cls-18" transform="matrix(1.04, -0.12, 0.13, 0.99, 60.63, 11.14)">n</text><text class="cls-19" transform="matrix(1.05, -0.03, 0.04, 1, 68.79, 10.27)"> </text><text class="cls-20" transform="matrix(1.05, 0.06, -0.07, 1, 71.8, 10)">G</text><text class="cls-21" transform="matrix(1.02, 0.2, -0.21, 0.98, 81.15, 10.62)">e</text><text class="cls-22" transform="matrix(1, 0.3, -0.31, 0.95, 88.53, 12.1)">r</text><text class="cls-23" transform="matrix(0.96, 0.39, -0.41, 0.92, 93.27, 13.44)">e</text><text class="cls-24" transform="matrix(0.89, 0.5, -0.53, 0.85, 100.2, 16.22)">n</text><text class="cls-25" transform="matrix(0.81, 0.6, -0.63, 0.78, 107.4, 20.3)">c</text><text class="cls-26" transform="matrix(0.76, 0.66, -0.69, 0.72, 112.96, 24.48)">i</text><text class="cls-27" transform="matrix(0.69, 0.72, -0.75, 0.66, 115.56, 26.62)">a</text><text class="cls-28" transform="matrix(0.56, 0.81, -0.85, 0.53, 120.69, 31.61)">m</text><text class="cls-29" transform="matrix(0.44, 0.87, -0.91, 0.42, 127.49, 42.04)">i</text><text class="cls-30" transform="matrix(0.35, 0.9, -0.94, 0.34, 129.07, 44.94)">e</text><text class="cls-31" transform="matrix(0.23, 0.93, -0.98, 0.22, 131.76, 51.66)">n</text><text class="cls-32" transform="matrix(0.12, 0.95, -1, 0.12, 133.58, 59.41)">t</text><text class="cls-33" transform="matrix(0.02, 0.95, -1, 0.02, 134.26, 64.02)">o</text><text class="cls-4" transform="matrix(-0.07, 0.95, -1, -0.07, 134.2, 76.74)">L</text><text class="cls-5" transform="matrix(-0.16, 0.94, -0.99, -0.15, 133.59, 83.52)">i</text><text class="cls-6" transform="matrix(-0.24, 0.93, -0.98, -0.23, 133.18, 86.48)">c</text><text class="cls-7" transform="matrix(-0.34, 0.9, -0.95, -0.33, 131.66, 92.6)">e</text><text class="cls-8" transform="matrix(-0.46, 0.86, -0.9, -0.44, 129.24, 99.07)">n</text><text class="cls-9" transform="matrix(-0.57, 0.8, -0.84, -0.54, 125.47, 106.02)">c</text><text class="cls-34" transform="matrix(-0.64, 0.76, -0.8, -0.61, 121.62, 111.33)">i</text><text class="cls-11" transform="matrix(-0.7, 0.71, -0.75, -0.67, 119.76, 113.68)">a</text><text class="cls-35" transform="matrix(-0.77, 0.65, -0.68, -0.74, 114.86, 118.58)">t</text><text class="cls-36" transform="matrix(-0.84, 0.57, -0.6, -0.81, 111.35, 121.64)">u</text><text class="cls-37" transform="matrix(-0.9, 0.48, -0.51, -0.86, 104.65, 126.07)">r</text><text class="cls-15" transform="matrix(-0.95, 0.4, -0.42, -0.91, 100.65, 128.29)">a</text><text class="cls-38" transform="matrix(-0.98, 0.33, -0.34, -0.94, 94.1, 130.97)"> </text><text class="cls-17" transform="matrix(-1.01, 0.25, -0.26, -0.97, 91.26, 132.01)">e</text><text class="cls-18" transform="matrix(-1.04, 0.12, -0.13, -0.99, 84.27, 133.76)">n</text><text class="cls-19" transform="matrix(-1.05, 0.03, -0.04, -1, 76.12, 134.63)"> </text><text class="cls-39" transform="matrix(-1.05, -0.06, 0.07, -1, 73.1, 134.9)">G</text><text class="cls-40" transform="matrix(-1.02, -0.2, 0.21, -0.98, 63.76, 134.28)">e</text><text class="cls-41" transform="matrix(-1, -0.3, 0.31, -0.95, 56.36, 132.79)">r</text><text class="cls-42" transform="matrix(-0.96, -0.39, 0.41, -0.92, 51.64, 131.46)">e</text><text class="cls-24" transform="matrix(-0.89, -0.5, 0.53, -0.85, 44.7, 128.67)">n</text><text class="cls-43" transform="matrix(-0.81, -0.6, 0.63, -0.78, 37.5, 124.59)">c</text><text class="cls-44" transform="matrix(-0.76, -0.66, 0.69, -0.72, 31.95, 120.42)">i</text><text class="cls-27" transform="matrix(-0.69, -0.72, 0.75, -0.66, 29.35, 118.27)">a</text><text class="cls-45" transform="matrix(-0.56, -0.81, 0.85, -0.53, 24.22, 113.28)">m</text><text class="cls-46" transform="matrix(-0.44, -0.87, 0.91, -0.42, 17.41, 102.86)">i</text><text class="cls-47" transform="matrix(-0.35, -0.9, 0.94, -0.34, 15.82, 99.94)">e</text><text class="cls-48" transform="matrix(-0.23, -0.93, 0.98, -0.22, 13.15, 93.24)">n</text><text class="cls-32" transform="matrix(-0.12, -0.95, 1, -0.12, 11.32, 85.48)">t</text><text class="cls-33" transform="matrix(-0.02, -0.95, 1, -0.02, 10.64, 80.87)">o</text></svg>