<svg xmlns="http://www.w3.org/2000/svg" xmlns:svgjs="http://svgjs.com/svgjs" xmlns:xlink="http://www.w3.org/1999/xlink" width="288" height="288"><svg xmlns="http://www.w3.org/2000/svg" width="288" height="288" data-name="Capa 1" viewBox="0 0 144.9 144.9"><defs fill="#fffffffff"><clipPath id="a" transform="translate(-217.8 -133.49)" fill="#fffffffff"><rect width="537.81" height="316.31" x="195" y="50" fill="none"/></clipPath></defs><g fill="#ffffff" class="color000 svgShape" clip-path="url(#a)"><path d="M259.27 204.11A28.59 28.59 0 00265 219.84l2.54-1.72h0a25.88 25.88 0 01-5.14-14h3.08v-3h-3.08a25.88 25.88 0 015.14-14L265 185.41h0a28.59 28.59 0 00-5.71 15.73h-3.36a6 6 0 00-3.86-4.09 6.49 6.49 0 00-5.73.69 5.79 5.79 0 000 9.76 6.46 6.46 0 005.73.7 6 6 0 003.86-4.09zm-9.39 1.49a3.2 3.2 0 01-2.2-.87 2.89 2.89 0 010-4.21 3.22 3.22 0 014.4 0 2.87 2.87 0 010 4.21A3.2 3.2 0 01249.88 205.6zM330.88 196.68a6.45 6.45 0 00-3.81 1.24 6 6 0 00-2.22 3.22H321.5a28.67 28.67 0 00-5.71-15.73l-2.54 1.72h0a25.79 25.79 0 015.13 14h-3.07v3h3.07a25.79 25.79 0 01-5.13 14l2.54 1.72h0a28.67 28.67 0 005.71-15.73h3.35a5.93 5.93 0 002.64 3.5 6.46 6.46 0 004.44.88 6.29 6.29 0 003.88-2.22 5.76 5.76 0 00-.71-8A6.39 6.39 0 00330.88 196.68zm0 8.92a3.24 3.24 0 01-2.2-.87 2.89 2.89 0 010-4.21 3.23 3.23 0 014.41 0 2.89 2.89 0 010 4.21A3.25 3.25 0 01330.88 205.6zM261.74 181.24a6.49 6.49 0 003.17-.83l6.75 6.44 2.2-2.1-6.75-6.44a5.75 5.75 0 00.81-3.77 5.83 5.83 0 00-1.77-3.45 6.44 6.44 0 00-5.62-1.64A6.2 6.2 0 00256 173a5.72 5.72 0 00.58 5.58A6.33 6.33 0 00261.74 181.24zm-2.2-8.05a3.23 3.23 0 014.41 0 2.88 2.88 0 010 4.2 3.23 3.23 0 01-4.41 0 2.86 2.86 0 010-4.2M323.43 225.75a6.46 6.46 0 00-7.57-.91l-6.75-6.45-2.2 2.11 6.74 6.44h0a5.7 5.7 0 00-.72 4.26 6 6 0 002.49 3.61 6.51 6.51 0 004.39 1.05 6.32 6.32 0 004-2.07 5.77 5.77 0 001.47-4.08 5.88 5.88 0 00-1.82-4zm-2.2 6.31h0a3.23 3.23 0 01-4.41 0 2.88 2.88 0 010-4.2 3.23 3.23 0 014.41 0 2.88 2.88 0 010 4.2zM273.86 220.5l-2.2-2.11-6.75 6.44a6.54 6.54 0 00-4.47-.69 6.23 6.23 0 00-3.77 2.38 5.69 5.69 0 00-1.1 4.19 5.82 5.82 0 002.16 3.79 6.43 6.43 0 008.42-.34 5.86 5.86 0 001.77-3.45 5.69 5.69 0 00-.81-3.77zM264 232.06a3.23 3.23 0 01-4.41 0 2.88 2.88 0 010-4.2 3.2 3.2 0 012.2-.88 3.25 3.25 0 012.21.87 2.89 2.89 0 010 4.21zM306.91 184.75l2.2 2.11 6.75-6.45h0a6.52 6.52 0 003.95.78 6.39 6.39 0 003.62-1.69 5.88 5.88 0 001.82-4 5.77 5.77 0 00-1.47-4.08 6.32 6.32 0 00-4-2.07 6.46 6.46 0 00-4.39 1.05 5.88 5.88 0 00-2.49 3.61 5.7 5.7 0 00.72 4.26zm9.91-11.56a3.23 3.23 0 014.41 0 2.88 2.88 0 010 4.2 3.23 3.23 0 01-4.41 0 2.86 2.86 0 010-4.2M308.42 226.87l-1.81-2.42h0a28.67 28.67 0 01-14.67 4.9v-2.94h-3.12v2.94a28.67 28.67 0 01-14.67-4.9l-1.81 2.42h0a31.92 31.92 0 0016.48 5.45v3.2a6.14 6.14 0 00-4.28 3.69 5.69 5.69 0 00.73 5.46 6.39 6.39 0 0010.23 0 5.72 5.72 0 00.72-5.46 6.14 6.14 0 00-4.28-3.69v-3.2A31.86 31.86 0 00308.42 226.87zM293.5 241.28a2.92 2.92 0 01-.91 2.1 3.23 3.23 0 01-4.41 0 2.88 2.88 0 010-4.2 3.22 3.22 0 014.4 0A2.89 2.89 0 01293.5 241.28zM272.34 178.38l1.81 2.42h0a28.67 28.67 0 0114.67-4.9v2.94h3.12V175.9a28.74 28.74 0 0114.68 4.9l1.8-2.42h0a31.86 31.86 0 00-16.48-5.45v-3.2a6.12 6.12 0 004.28-3.69 5.74 5.74 0 00-.72-5.47 6.41 6.41 0 00-10.23 0 5.72 5.72 0 00-.73 5.47 6.16 6.16 0 004.29 3.69v3.2A31.93 31.93 0 00272.34 178.38zM287.27 164a2.86 2.86 0 01.91-2.1 3.23 3.23 0 014.41 0 2.88 2.88 0 010 4.2 3.23 3.23 0 01-4.41 0A2.92 2.92 0 01287.27 164zM310.63 208.57a1.61 1.61 0 001.1-.43 1.44 1.44 0 00.46-1.06v-8.92a1.43 1.43 0 00-.46-1 1.57 1.57 0 00-1.1-.43h-4.28l-.27-.63 3-2.89h0a1.43 1.43 0 000-2.1l-6.61-6.31a1.62 1.62 0 00-2.2 0l-3 2.89-.66-.25V183.3a1.43 1.43 0 00-.45-1.05 1.59 1.59 0 00-1.1-.44h-9.35a1.53 1.53 0 00-1.56 1.49v4.08l-.65.26-3-2.89h0a1.61 1.61 0 00-2.2 0l-6.61 6.31a1.43 1.43 0 000 2.1l3 2.89q-.15.31-.27.63h-4.29a1.52 1.52 0 00-1.56 1.48v8.92a1.44 1.44 0 00.46 1 1.59 1.59 0 001.1.44h4.29c.08.21.17.42.27.62l-3 2.9a1.43 1.43 0 000 2.1l6.6 6.31a1.62 1.62 0 002.21 0l3-2.9.65.26V222a1.42 1.42 0 00.46 1.05 1.59 1.59 0 001.1.44h9.34a1.62 1.62 0 001.11-.44 1.44 1.44 0 00.45-1.05v-4.09c.22-.08.44-.16.66-.26l3 2.9a1.57 1.57 0 001.1.43 1.58 1.58 0 001.1-.43l6.61-6.31h0a1.43 1.43 0 000-2.1l-3-2.9.27-.62zm-7.53 2l2.7 2.59-4.4 4.2-2.71-2.58a1.61 1.61 0 00-1.82-.27 13.51 13.51 0 01-2.28.9 1.5 1.5 0 00-1.09 1.42v3.66h-6.23v-3.66a1.51 1.51 0 00-1.09-1.42 13.18 13.18 0 01-2.28-.9 1.61 1.61 0 00-1.82.27l-2.71 2.58-4.41-4.2 2.71-2.59a1.45 1.45 0 00.28-1.74 13.09 13.09 0 01-.95-2.17 1.54 1.54 0 00-1.48-1h-3.83v-5.95h3.83a1.54 1.54 0 001.48-1 13.09 13.09 0 01.95-2.17 1.45 1.45 0 00-.28-1.74L275 192.11l4.41-4.2 2.71 2.58a1.61 1.61 0 001.82.27 13.18 13.18 0 012.28-.9 1.5 1.5 0 001.09-1.42v-3.66h6.23v3.66a1.5 1.5 0 001.09 1.42 13.51 13.51 0 012.28.9 1.61 1.61 0 001.82-.27l2.71-2.58 4.4 4.2-2.7 2.59a1.42 1.42 0 00-.28 1.74 13.05 13.05 0 01.94 2.17 1.56 1.56 0 001.49 1h3.83v5.95h-3.83a1.55 1.55 0 00-1.49 1 13.05 13.05 0 01-.94 2.17A1.42 1.42 0 00303.1 210.55z" class="color8cb7b3 svgShape" transform="translate(-217.8 -133.49)" fill="#fffffffff"/><path d="M290.38,192.22a11.15,11.15,0,0,0-7.71,3.05,10.07,10.07,0,0,0,0,14.71,11.27,11.27,0,0,0,15.42,0,10.05,10.05,0,0,0,0-14.71,11.2,11.2,0,0,0-7.71-3.05m0,17.84a8,8,0,0,1-5.51-2.18,7.2,7.2,0,0,1,0-10.51,8.05,8.05,0,0,1,11,0,7.2,7.2,0,0,1,0,10.51,8,8,0,0,1-5.51,2.18" class="color8cb7b3 svgShape" transform="translate(-217.8 -133.49)" fill="#fffffffff"/><path d="M288.82,203.49l-2-1.92-2.2,2.1,3.11,3a1.58,1.58,0,0,0,1.1.43,1.61,1.61,0,0,0,1.11-.43l6.23-6L294,198.6Z" class="color8cb7b3 svgShape" transform="translate(-217.8 -133.49)" fill="#fffffffff"/></g><text fill="#ffffff" font-family="Montserrat-Light,Montserrat Light" font-size="12.51" font-weight="300" transform="matrix(.07 -.95 1 .07 10.71 68.15)" svgjs:data="{&quot;leading&quot;:&quot;1.3&quot;}">L</text><text fill="#ffffff" font-family="Montserrat-Light,Montserrat Light" font-size="12.5" font-weight="300" transform="matrix(.16 -.94 .99 .15 11.32 61.37)" svgjs:data="{&quot;leading&quot;:&quot;1.3&quot;}">i</text><text fill="#ffffff" font-family="Montserrat-Light,Montserrat Light" font-size="12.48" font-weight="300" transform="matrix(.24 -.93 .98 .23 11.73 58.42)" svgjs:data="{&quot;leading&quot;:&quot;1.3&quot;}">c</text><text fill="#ffffff" font-family="Montserrat-Light,Montserrat Light" font-size="12.45" font-weight="300" transform="matrix(.34 -.9 .95 .33 13.24 52.3)" svgjs:data="{&quot;leading&quot;:&quot;1.3&quot;}">e</text><text fill="#ffffff" font-family="Montserrat-Light,Montserrat Light" font-size="12.4" font-weight="300" transform="matrix(.46 -.86 .9 .44 15.67 45.83)" svgjs:data="{&quot;leading&quot;:&quot;1.3&quot;}">n</text><text fill="#ffffff" font-family="Montserrat-Light,Montserrat Light" font-size="12.34" font-weight="300" transform="matrix(.57 -.8 .84 .54 19.44 38.88)" svgjs:data="{&quot;leading&quot;:&quot;1.3&quot;}">c</text><text fill="#ffffff" font-family="Montserrat-Light,Montserrat Light" font-size="12.29" font-weight="300" transform="matrix(.64 -.76 .8 .61 23.28 33.57)" svgjs:data="{&quot;leading&quot;:&quot;1.3&quot;}">i</text><text fill="#ffffff" font-family="Montserrat-Light,Montserrat Light" font-size="12.25" font-weight="300" transform="matrix(.7 -.71 .75 .67 25.14 31.21)" svgjs:data="{&quot;leading&quot;:&quot;1.3&quot;}">a</text><text fill="#ffffff" font-family="Montserrat-Light,Montserrat Light" font-size="12.19" font-weight="300" transform="matrix(.77 -.65 .68 .74 30.04 26.32)" svgjs:data="{&quot;leading&quot;:&quot;1.3&quot;}">t</text><text fill="#ffffff" font-family="Montserrat-Light,Montserrat Light" font-size="12.14" font-weight="300" transform="matrix(.84 -.57 .6 .81 33.56 23.26)" svgjs:data="{&quot;leading&quot;:&quot;1.3&quot;}">u</text><text fill="#ffffff" font-family="Montserrat-Light,Montserrat Light" font-size="12.08" font-weight="300" transform="matrix(.9 -.48 .51 .86 40.25 18.83)" svgjs:data="{&quot;leading&quot;:&quot;1.3&quot;}">r</text><text fill="#ffffff" font-family="Montserrat-Light,Montserrat Light" font-size="12.04" font-weight="300" transform="matrix(.95 -.4 .42 .91 44.25 16.61)" svgjs:data="{&quot;leading&quot;:&quot;1.3&quot;}">a</text><text fill="#ffffff" font-family="Montserrat-Light,Montserrat Light" font-size="11.98" font-weight="300" transform="matrix(1.01 -.25 .26 .97 53.64 12.88)" svgjs:data="{&quot;leading&quot;:&quot;1.3&quot;}">e</text><text fill="#ffffff" font-family="Montserrat-Light,Montserrat Light" font-size="11.95" font-weight="300" transform="matrix(1.04 -.12 .13 .99 60.63 11.14)" svgjs:data="{&quot;leading&quot;:&quot;1.3&quot;}">n</text><text fill="#ffffff" font-family="Montserrat-SemiBold,Montserrat SemiBold" font-size="11.94" font-weight="600" transform="matrix(1.05 .06 -.07 1 71.8 10)" svgjs:data="{&quot;leading&quot;:&quot;1.3&quot;}">G</text><text fill="#ffffff" font-family="Montserrat-SemiBold,Montserrat SemiBold" font-size="11.97" font-weight="600" transform="matrix(1.02 .2 -.21 .98 81.15 10.62)" svgjs:data="{&quot;leading&quot;:&quot;1.3&quot;}">e</text><text fill="#ffffff" font-family="Montserrat-SemiBold,Montserrat SemiBold" font-size="11.99" font-weight="600" transform="matrix(1 .3 -.31 .95 88.53 12.1)" svgjs:data="{&quot;leading&quot;:&quot;1.3&quot;}">r</text><text fill="#ffffff" font-family="Montserrat-SemiBold,Montserrat SemiBold" font-size="12.03" font-weight="600" transform="matrix(.96 .39 -.41 .92 93.27 13.44)" svgjs:data="{&quot;leading&quot;:&quot;1.3&quot;}">e</text><text fill="#ffffff" font-family="Montserrat-SemiBold,Montserrat SemiBold" font-size="12.09" font-weight="600" transform="matrix(.89 .5 -.53 .85 100.2 16.22)" svgjs:data="{&quot;leading&quot;:&quot;1.3&quot;}">n</text><text fill="#ffffff" font-family="Montserrat-SemiBold,Montserrat SemiBold" font-size="12.16" font-weight="600" transform="matrix(.81 .6 -.63 .78 107.4 20.3)" svgjs:data="{&quot;leading&quot;:&quot;1.3&quot;}">c</text><text fill="#ffffff" font-family="Montserrat-SemiBold,Montserrat SemiBold" font-size="12.21" font-weight="600" transform="matrix(.76 .66 -.69 .72 112.96 24.48)" svgjs:data="{&quot;leading&quot;:&quot;1.3&quot;}">i</text><text fill="#ffffff" font-family="Montserrat-SemiBold,Montserrat SemiBold" font-size="12.26" font-weight="600" transform="matrix(.69 .72 -.75 .66 115.56 26.62)" svgjs:data="{&quot;leading&quot;:&quot;1.3&quot;}">a</text><text fill="#ffffff" font-family="Montserrat-SemiBold,Montserrat SemiBold" font-size="12.34" font-weight="600" transform="matrix(.56 .81 -.85 .53 120.69 31.61)" svgjs:data="{&quot;leading&quot;:&quot;1.3&quot;}">m</text><text fill="#ffffff" font-family="Montserrat-SemiBold,Montserrat SemiBold" font-size="12.41" font-weight="600" transform="matrix(.44 .87 -.91 .42 127.49 42.04)" svgjs:data="{&quot;leading&quot;:&quot;1.3&quot;}">i</text><text fill="#ffffff" font-family="Montserrat-SemiBold,Montserrat SemiBold" font-size="12.44" font-weight="600" transform="matrix(.35 .9 -.94 .34 129.07 44.94)" svgjs:data="{&quot;leading&quot;:&quot;1.3&quot;}">e</text><text fill="#ffffff" font-family="Montserrat-SemiBold,Montserrat SemiBold" font-size="12.48" font-weight="600" transform="matrix(.23 .93 -.98 .22 131.76 51.66)" svgjs:data="{&quot;leading&quot;:&quot;1.3&quot;}">n</text><text fill="#ffffff" font-family="Montserrat-SemiBold,Montserrat SemiBold" font-size="12.5" font-weight="600" transform="matrix(.12 .95 -1 .12 133.58 59.41)" svgjs:data="{&quot;leading&quot;:&quot;1.3&quot;}">t</text><text fill="#ffffff" font-family="Montserrat-SemiBold,Montserrat SemiBold" font-size="12.51" font-weight="600" transform="matrix(.02 .95 -1 .02 134.26 64.02)" svgjs:data="{&quot;leading&quot;:&quot;1.3&quot;}">o</text><text fill="#ffffff" font-family="Montserrat-Light,Montserrat Light" font-size="12.51" font-weight="300" transform="matrix(-.07 .95 -1 -.07 134.2 76.74)" svgjs:data="{&quot;leading&quot;:&quot;1.3&quot;}">L</text><text fill="#ffffff" font-family="Montserrat-Light,Montserrat Light" font-size="12.5" font-weight="300" transform="matrix(-.16 .94 -.99 -.15 133.59 83.52)" svgjs:data="{&quot;leading&quot;:&quot;1.3&quot;}">i</text><text fill="#ffffff" font-family="Montserrat-Light,Montserrat Light" font-size="12.48" font-weight="300" transform="matrix(-.24 .93 -.98 -.23 133.18 86.48)" svgjs:data="{&quot;leading&quot;:&quot;1.3&quot;}">c</text><text fill="#ffffff" font-family="Montserrat-Light,Montserrat Light" font-size="12.45" font-weight="300" transform="matrix(-.34 .9 -.95 -.33 131.66 92.6)" svgjs:data="{&quot;leading&quot;:&quot;1.3&quot;}">e</text><text fill="#ffffff" font-family="Montserrat-Light,Montserrat Light" font-size="12.4" font-weight="300" transform="matrix(-.46 .86 -.9 -.44 129.24 99.07)" svgjs:data="{&quot;leading&quot;:&quot;1.3&quot;}">n</text><text fill="#ffffff" font-family="Montserrat-Light,Montserrat Light" font-size="12.34" font-weight="300" transform="matrix(-.57 .8 -.84 -.54 125.47 106.02)" svgjs:data="{&quot;leading&quot;:&quot;1.3&quot;}">c</text><text fill="#ffffff" font-family="Montserrat-Light,Montserrat Light" font-size="12.29" font-weight="300" transform="matrix(-.64 .76 -.8 -.61 121.62 111.33)" svgjs:data="{&quot;leading&quot;:&quot;1.3&quot;}">i</text><text fill="#ffffff" font-family="Montserrat-Light,Montserrat Light" font-size="12.25" font-weight="300" transform="rotate(134.4 36.204 81.991) skewX(2.8)" svgjs:data="{&quot;leading&quot;:&quot;1.3&quot;}">a</text><text fill="#ffffff" font-family="Montserrat-Light,Montserrat Light" font-size="12.19" font-weight="300" transform="matrix(-.77 .65 -.68 -.74 114.86 118.58)" svgjs:data="{&quot;leading&quot;:&quot;1.3&quot;}">t</text><text fill="#ffffff" font-family="Montserrat-Light,Montserrat Light" font-size="12.14" font-weight="300" transform="matrix(-.84 .57 -.6 -.81 111.35 121.64)" svgjs:data="{&quot;leading&quot;:&quot;1.3&quot;}">u</text><text fill="#ffffff" font-family="Montserrat-Light,Montserrat Light" font-size="12.08" font-weight="300" transform="matrix(-.9 .48 -.51 -.86 104.65 126.07)" svgjs:data="{&quot;leading&quot;:&quot;1.3&quot;}">r</text><text fill="#ffffff" font-family="Montserrat-Light,Montserrat Light" font-size="12.04" font-weight="300" transform="matrix(-.95 .4 -.42 -.91 100.65 128.29)" svgjs:data="{&quot;leading&quot;:&quot;1.3&quot;}">a</text><text fill="#ffffff" font-family="Montserrat-Light,Montserrat Light" font-size="11.98" font-weight="300" transform="matrix(-1.01 .25 -.26 -.97 91.26 132.01)" svgjs:data="{&quot;leading&quot;:&quot;1.3&quot;}">e</text><text fill="#ffffff" font-family="Montserrat-Light,Montserrat Light" font-size="11.95" font-weight="300" transform="matrix(-1.04 .12 -.13 -.99 84.27 133.76)" svgjs:data="{&quot;leading&quot;:&quot;1.3&quot;}">n</text><text fill="#ffffff" font-family="Montserrat-SemiBold,Montserrat SemiBold" font-size="11.94" font-weight="600" transform="matrix(-1.05 -.06 .07 -1 73.1 134.9)" svgjs:data="{&quot;leading&quot;:&quot;1.3&quot;}">G</text><text fill="#ffffff" font-family="Montserrat-SemiBold,Montserrat SemiBold" font-size="11.97" font-weight="600" transform="matrix(-1.02 -.2 .21 -.98 63.76 134.28)" svgjs:data="{&quot;leading&quot;:&quot;1.3&quot;}">e</text><text fill="#ffffff" font-family="Montserrat-SemiBold,Montserrat SemiBold" font-size="11.99" font-weight="600" transform="matrix(-1 -.3 .31 -.95 56.36 132.79)" svgjs:data="{&quot;leading&quot;:&quot;1.3&quot;}">r</text><text fill="#ffffff" font-family="Montserrat-SemiBold,Montserrat SemiBold" font-size="12.03" font-weight="600" transform="matrix(-.96 -.39 .41 -.92 51.64 131.46)" svgjs:data="{&quot;leading&quot;:&quot;1.3&quot;}">e</text><text fill="#ffffff" font-family="Montserrat-SemiBold,Montserrat SemiBold" font-size="12.09" font-weight="600" transform="matrix(-.89 -.5 .53 -.85 44.7 128.67)" svgjs:data="{&quot;leading&quot;:&quot;1.3&quot;}">n</text><text fill="#ffffff" font-family="Montserrat-SemiBold,Montserrat SemiBold" font-size="12.16" font-weight="600" transform="matrix(-.81 -.6 .63 -.78 37.5 124.59)" svgjs:data="{&quot;leading&quot;:&quot;1.3&quot;}">c</text><text fill="#ffffff" font-family="Montserrat-SemiBold,Montserrat SemiBold" font-size="12.21" font-weight="600" transform="matrix(-.76 -.66 .69 -.72 31.95 120.42)" svgjs:data="{&quot;leading&quot;:&quot;1.3&quot;}">i</text><text fill="#ffffff" font-family="Montserrat-SemiBold,Montserrat SemiBold" font-size="12.26" font-weight="600" transform="rotate(-133.6 39.934 52.97) skewX(-2.4)" svgjs:data="{&quot;leading&quot;:&quot;1.3&quot;}">a</text><text fill="#ffffff" font-family="Montserrat-SemiBold,Montserrat SemiBold" font-size="12.34" font-weight="600" transform="matrix(-.56 -.81 .85 -.53 24.22 113.28)" svgjs:data="{&quot;leading&quot;:&quot;1.3&quot;}">m</text><text fill="#ffffff" font-family="Montserrat-SemiBold,Montserrat SemiBold" font-size="12.41" font-weight="600" transform="matrix(-.44 -.87 .91 -.42 17.41 102.86)" svgjs:data="{&quot;leading&quot;:&quot;1.3&quot;}">i</text><text fill="#ffffff" font-family="Montserrat-SemiBold,Montserrat SemiBold" font-size="12.44" font-weight="600" transform="matrix(-.35 -.9 .94 -.34 15.82 99.94)" svgjs:data="{&quot;leading&quot;:&quot;1.3&quot;}">e</text><text fill="#ffffff" font-family="Montserrat-SemiBold,Montserrat SemiBold" font-size="12.48" font-weight="600" transform="matrix(-.23 -.93 .98 -.22 13.15 93.24)" svgjs:data="{&quot;leading&quot;:&quot;1.3&quot;}">n</text><text fill="#ffffff" font-family="Montserrat-SemiBold,Montserrat SemiBold" font-size="12.5" font-weight="600" transform="matrix(-.12 -.95 1 -.12 11.32 85.48)" svgjs:data="{&quot;leading&quot;:&quot;1.3&quot;}">t</text><text fill="#ffffff" font-family="Montserrat-SemiBold,Montserrat SemiBold" font-size="12.51" font-weight="600" transform="matrix(-.02 -.95 1 -.02 10.64 80.87)" svgjs:data="{&quot;leading&quot;:&quot;1.3&quot;}">o</text></svg></svg>