<svg xmlns="http://www.w3.org/2000/svg" xmlns:svgjs="http://svgjs.com/svgjs" xmlns:xlink="http://www.w3.org/1999/xlink" width="288" height="288"><svg xmlns="http://www.w3.org/2000/svg" width="288" height="288" enable-background="new 0 0 700 700" viewBox="0 0 700 700"><path fill="#fffdfd" d="M279.4,502.4c3.4,2.8,78.4,67.2,164.1,80.1c1.1,0,9,1.7,20.2,1.7c21.8,0,57.1-6.2,85.1-38.6c2.8-2.2,12.3-11.2,14.6-25.2		c1.7-11.8-2.2-23.5-11.8-35.3l-0.6-0.6l-63.8-62.7c-6.2-7.3-24.6-17.4-47.6-3.4c-0.6,0-0.6,0.6-1.1,0.6l-35.3,34.7
		c-18.5-10.1-101.9-60.5-139.4-140l26.3-26.3c0.6-0.6,14.6-12.9,15.1-30.8c0.6-11.2-4.5-22.4-14-32.5l-63.8-63.3l-0.6-0.6
		c-9-6.7-31.9-14-52.6,3.9c-2.2,2.2-57.1,49.3-39.2,129.4C135.5,302,142.8,383.2,279.4,502.4L279.4,502.4z M182,172.6
		c17.9-15.7,35.8-5,38.1-3.4l63.3,62.7c7.3,7.8,11.2,15.7,11.2,24.1c-0.6,13.4-11.2,23-11.8,23.5l-29.1,29.1
		c-1.7,1.7-2.2,3.9-1.1,6.2c42,94.6,145,149,149.5,151.2c2.2,1.1,5,0.6,6.7-1.1l37.5-37c19.6-11.8,31.4,0,33,1.7l64.4,62.7
		c7.3,9,10.1,17.9,9.5,26.3c-1.7,11.2-10.6,18.5-10.6,18.5c-0.6,0-0.6,0.6-1.1,1.1c-38.1,45.4-93,34.2-95.8,33.6
		c-82.9-12.9-158.5-77.3-159-77.8C150.1,374.2,146.2,293.6,146.2,292.4v-1.1C129.4,218,179.8,174.8,182,172.6L182,172.6z" class="color000 svgShape"/><path fill="#fffdfd" d="M225.7 227.5c28.6 29.1 38.1 33.6 39.8 34.2.6 0 1.1.6 1.7.6 2.2 0 4.5-1.7 5-3.9 1.1-2.8-.6-6.2-3.4-7.3-.6 0-9-3.9-35.8-31.4-25.2-25.8-29.1-33-29.1-33.6-1.1-2.8-3.9-3.9-6.7-3.4-2.8 1.1-4.5 3.9-3.9 6.7C194.9 194.4 206.6 207.9 225.7 227.5L225.7 227.5zM482.2 489c28.6 29.1 38.1 33.6 39.8 34.2.6 0 1.1.6 1.7.6 2.2 0 4.5-1.7 5-3.9 1.1-2.8-.6-6.2-3.4-7.3-.6 0-9-3.9-35.8-31.4-25.2-25.8-29.1-33-29.1-33.6-1.1-2.8-3.9-3.9-6.7-3.4-2.8 1.1-4.5 3.9-3.9 6.7C451.4 456 463.1 469.4 482.2 489L482.2 489z" class="color000 svgShape"/></svg></svg>