<svg xmlns="http://www.w3.org/2000/svg" viewBox="0 0 48 48"><defs fill="#c40b0b"><style>.cls-1{fill:none;stroke:#0d665d;stroke-linejoin:round;stroke-width:2px;}</style></defs><title>Recurso 7</title><g id="Capa_2" data-name="Capa 2"><g id="Capa_1-2" data-name="Capa 1"><path class="cls-1" d="M39,31v6H6a5,5,0,0,0-5,5V6A5,5,0,0,1,6,1H39V17" fill="#c40b0b"/><line class="cls-1" x1="7" y1="37" x2="7" y2="1" fill="#c40b0b"/><path class="cls-1" d="M39,37H6A5,5,0,0,0,6,47H39A7.24,7.24,0,0,1,39,37Z" fill="#c40b0b"/><polygon class="cls-1" points="38 23 35 32 29 14 47 20 38 23" fill="#c40b0b"/><polyline class="cls-1" points="28 21 14 21 14 9 32 9 32 15" fill="#c40b0b"/><line class="cls-1" x1="13" y1="42" x2="5.5" y2="42" fill="#c40b0b"/><line class="cls-1" x1="32.5" y1="42" x2="16" y2="42" fill="#c40b0b"/></g></g></svg>