<svg xmlns="http://www.w3.org/2000/svg" viewBox="0 0 48 48"><defs><style>.cls-1{fill:none;stroke:#201602;stroke-linejoin:round;stroke-width:2px;}</style></defs><title>Recurso 8</title><g id="Capa_2" data-name="Capa 2"><g id="Capa_1-2" data-name="Capa 1"><rect class="cls-1" x="15" y="41" width="18" height="6"/><rect class="cls-1" x="1" y="1" width="46" height="40" rx="3"/><line class="cls-1" x1="7" y1="47" x2="41" y2="47"/><line class="cls-1" x1="37" y1="14" x2="43" y2="14"/><line class="cls-1" x1="29" y1="14" x2="35" y2="14"/><line class="cls-1" x1="39" y1="19" x2="43" y2="19"/><line class="cls-1" x1="29" y1="19" x2="37" y2="19"/><line class="cls-1" x1="36" y1="24" x2="43" y2="24"/><line class="cls-1" x1="29" y1="24" x2="34" y2="24"/><line class="cls-1" x1="29" y1="29" x2="38" y2="29"/><ellipse class="cls-1" cx="16" cy="11" rx="4" ry="5"/><line class="cls-1" x1="21" y1="21" x2="21" y2="38"/><line class="cls-1" x1="11" y1="21" x2="11" y2="38"/><line class="cls-1" x1="16" y1="34" x2="16" y2="38"/><path class="cls-1" d="M21,21V33h2a2,2,0,0,0,2-2V20.58a4,4,0,0,0-3.56-4L16,16l-5.44.6a4,4,0,0,0-3.56,4V31a2,2,0,0,0,2,2h2V21"/><line class="cls-1" x1="11" y1="31" x2="21" y2="31"/></g></g></svg>