<svg xmlns="http://www.w3.org/2000/svg" xmlns:svgjs="http://svgjs.com/svgjs" xmlns:xlink="http://www.w3.org/1999/xlink" width="288" height="288"><svg xmlns="http://www.w3.org/2000/svg" width="288" height="288" viewBox="0 0 48 48"><g fill="#fff" class="color000 svgShape" data-name="Capa 2"><g class="color000 svgShape" data-name="Capa 1"><ellipse cx="10" cy="6" fill="none" stroke="#fff" stroke-linejoin="round" stroke-width="2" class="colorStroke201602 svgStroke" rx="4" ry="5"/><line x1="2" x2="18" y1="47" y2="47" fill="none" stroke="#fff" stroke-linejoin="round" stroke-width="2" class="colorStroke201602 svgStroke"/><line x1="5" x2="5" y1="27" y2="47" fill="none" stroke="#fff" stroke-linejoin="round" stroke-width="2" class="colorStroke201602 svgStroke"/><line x1="10" x2="10" y1="31" y2="47" fill="none" stroke="#fff" stroke-linejoin="round" stroke-width="2" class="colorStroke201602 svgStroke"/><line x1="15" x2="15" y1="27" y2="47" fill="none" stroke="#fff" stroke-linejoin="round" stroke-width="2" class="colorStroke201602 svgStroke"/><path fill="none" stroke="#fff" stroke-linejoin="round" stroke-width="2" d="M5 16V29H3a2 2 0 01-2-2V15.58a4 4 0 013.56-4L10 11M15 16V29h2a2 2 0 002-2V15.58a4 4 0 00-3.56-4L10 11" class="colorStroke201602 svgStroke"/><line x1="5" x2="15" y1="27" y2="27" fill="none" stroke="#fff" stroke-linejoin="round" stroke-width="2" class="colorStroke201602 svgStroke"/><polygon fill="none" stroke="#fff" stroke-linejoin="round" stroke-width="2" points="47 40 25 40 25 13 18 5 47 5 47 40" class="colorStroke201602 svgStroke"/><line x1="36" x2="43" y1="30" y2="30" fill="none" stroke="#fff" stroke-linejoin="round" stroke-width="2" class="colorStroke201602 svgStroke"/><line x1="29" x2="34" y1="30" y2="30" fill="none" stroke="#fff" stroke-linejoin="round" stroke-width="2" class="colorStroke201602 svgStroke"/><line x1="29" x2="37" y1="35" y2="35" fill="none" stroke="#fff" stroke-linejoin="round" stroke-width="2" class="colorStroke201602 svgStroke"/><line x1="29" x2="40" y1="25" y2="25" fill="none" stroke="#fff" stroke-linejoin="round" stroke-width="2" class="colorStroke201602 svgStroke"/><line x1="38" x2="43" y1="20" y2="20" fill="none" stroke="#fff" stroke-linejoin="round" stroke-width="2" class="colorStroke201602 svgStroke"/><line x1="29" x2="36" y1="20" y2="20" fill="none" stroke="#fff" stroke-linejoin="round" stroke-width="2" class="colorStroke201602 svgStroke"/><line x1="29" x2="43" y1="15" y2="15" fill="none" stroke="#fff" stroke-linejoin="round" stroke-width="2" class="colorStroke201602 svgStroke"/><line x1="36" x2="43" y1="10" y2="10" fill="none" stroke="#fff" stroke-linejoin="round" stroke-width="2" class="colorStroke201602 svgStroke"/><line x1="29" x2="34" y1="10" y2="10" fill="none" stroke="#fff" stroke-linejoin="round" stroke-width="2" class="colorStroke201602 svgStroke"/></g></g></svg></svg>