<svg xmlns="http://www.w3.org/2000/svg" viewBox="0 0 48 48"><defs><style>.cls-1{fill:none;stroke:#201602;stroke-linejoin:round;stroke-width:2px;}</style></defs><title>Recurso 33</title><g id="Capa_2" data-name="Capa 2"><g id="Capa_1-2" data-name="Capa 1"><ellipse class="cls-1" cx="10" cy="6" rx="4" ry="5"/><line class="cls-1" x1="2" y1="47" x2="18" y2="47"/><line class="cls-1" x1="5" y1="27" x2="5" y2="47"/><line class="cls-1" x1="10" y1="31" x2="10" y2="47"/><line class="cls-1" x1="15" y1="27" x2="15" y2="47"/><path class="cls-1" d="M5,16V29H3a2,2,0,0,1-2-2V15.58a4,4,0,0,1,3.56-4L10,11"/><path class="cls-1" d="M15,16V29h2a2,2,0,0,0,2-2V15.58a4,4,0,0,0-3.56-4L10,11"/><line class="cls-1" x1="5" y1="27" x2="15" y2="27"/><polygon class="cls-1" points="47 40 25 40 25 13 18 5 47 5 47 40"/><line class="cls-1" x1="36" y1="30" x2="43" y2="30"/><line class="cls-1" x1="29" y1="30" x2="34" y2="30"/><line class="cls-1" x1="29" y1="35" x2="37" y2="35"/><line class="cls-1" x1="29" y1="25" x2="40" y2="25"/><line class="cls-1" x1="38" y1="20" x2="43" y2="20"/><line class="cls-1" x1="29" y1="20" x2="36" y2="20"/><line class="cls-1" x1="29" y1="15" x2="43" y2="15"/><line class="cls-1" x1="36" y1="10" x2="43" y2="10"/><line class="cls-1" x1="29" y1="10" x2="34" y2="10"/></g></g></svg>