<svg xmlns="http://www.w3.org/2000/svg" xmlns:svgjs="http://svgjs.com/svgjs" xmlns:xlink="http://www.w3.org/1999/xlink" width="288" height="288"><svg xmlns="http://www.w3.org/2000/svg" width="288" height="288" viewBox="0 0 48 48"><g fill="#fff" class="color000 svgShape" data-name="Capa 2"><g class="color000 svgShape" data-name="Capa 1"><rect width="18" height="6" x="15" y="41" fill="none" stroke="#fff" stroke-linejoin="round" stroke-width="2" class="colorStroke201602 svgStroke"/><rect width="46" height="40" x="1" y="1" fill="none" stroke="#fff" stroke-linejoin="round" stroke-width="2" class="colorStroke201602 svgStroke" rx="3"/><line x1="7" x2="41" y1="47" y2="47" fill="none" stroke="#fff" stroke-linejoin="round" stroke-width="2" class="colorStroke201602 svgStroke"/><line x1="37" x2="43" y1="14" y2="14" fill="none" stroke="#fff" stroke-linejoin="round" stroke-width="2" class="colorStroke201602 svgStroke"/><line x1="29" x2="35" y1="14" y2="14" fill="none" stroke="#fff" stroke-linejoin="round" stroke-width="2" class="colorStroke201602 svgStroke"/><line x1="39" x2="43" y1="19" y2="19" fill="none" stroke="#fff" stroke-linejoin="round" stroke-width="2" class="colorStroke201602 svgStroke"/><line x1="29" x2="37" y1="19" y2="19" fill="none" stroke="#fff" stroke-linejoin="round" stroke-width="2" class="colorStroke201602 svgStroke"/><line x1="36" x2="43" y1="24" y2="24" fill="none" stroke="#fff" stroke-linejoin="round" stroke-width="2" class="colorStroke201602 svgStroke"/><line x1="29" x2="34" y1="24" y2="24" fill="none" stroke="#fff" stroke-linejoin="round" stroke-width="2" class="colorStroke201602 svgStroke"/><line x1="29" x2="38" y1="29" y2="29" fill="none" stroke="#fff" stroke-linejoin="round" stroke-width="2" class="colorStroke201602 svgStroke"/><ellipse cx="16" cy="11" fill="none" stroke="#fff" stroke-linejoin="round" stroke-width="2" class="colorStroke201602 svgStroke" rx="4" ry="5"/><line x1="21" x2="21" y1="21" y2="38" fill="none" stroke="#fff" stroke-linejoin="round" stroke-width="2" class="colorStroke201602 svgStroke"/><line x1="11" x2="11" y1="21" y2="38" fill="none" stroke="#fff" stroke-linejoin="round" stroke-width="2" class="colorStroke201602 svgStroke"/><line x1="16" x2="16" y1="34" y2="38" fill="none" stroke="#fff" stroke-linejoin="round" stroke-width="2" class="colorStroke201602 svgStroke"/><path fill="none" stroke="#fff" stroke-linejoin="round" stroke-width="2" d="M21,21V33h2a2,2,0,0,0,2-2V20.58a4,4,0,0,0-3.56-4L16,16l-5.44.6a4,4,0,0,0-3.56,4V31a2,2,0,0,0,2,2h2V21" class="colorStroke201602 svgStroke"/><line x1="11" x2="21" y1="31" y2="31" fill="none" stroke="#fff" stroke-linejoin="round" stroke-width="2" class="colorStroke201602 svgStroke"/></g></g></svg></svg>