<svg xmlns="http://www.w3.org/2000/svg" viewBox="0 0 48 48"><defs fill="#fffbfb"><style>.cls-1{fill:none;stroke:#ffffff;stroke-linejoin:round;stroke-width:2px;}</style></defs><title>Recurso 30</title><g id="Capa_2" data-name="Capa 2"><g id="Capa_1-2" data-name="Capa 1"><ellipse class="cls-1" cx="14" cy="6" rx="4" ry="5" fill="#fffbfb"/><line class="cls-1" x1="9" y1="26" x2="9" y2="16" fill="#fffbfb"/><path class="cls-1" d="M23,26V15.58a4,4,0,0,0-3.56-4L14,11l-5.44.6a4,4,0,0,0-3.56,4V26" fill="#fffbfb"/><line class="cls-1" x1="19" y1="16" x2="19" y2="26" fill="#fffbfb"/><line class="cls-1" x1="9" y1="26" x2="19" y2="26" fill="#fffbfb"/><line class="cls-1" y1="26" x2="48" y2="26" fill="#fffbfb"/><line class="cls-1" x1="30" y1="36" x2="34" y2="36" fill="#fffbfb"/><line class="cls-1" x1="9" y1="36" x2="27" y2="36" fill="#fffbfb"/><rect class="cls-1" x="4" y="26" width="40" height="15" fill="#fffbfb"/><rect class="cls-1" x="29" y="7" width="18" height="14" rx="1" fill="#fffbfb"/><rect class="cls-1" x="34" y="21" width="8" height="5" fill="#fffbfb"/><line class="cls-1" x1="44" y1="41" x2="44" y2="48" fill="#fffbfb"/><line class="cls-1" x1="4" y1="41" x2="4" y2="48" fill="#fffbfb"/><line class="cls-1" x1="37" y1="14" x2="39" y2="14" fill="#fffbfb"/></g></g></svg>