<svg id="Capa_1" data-name="Capa 1" xmlns="http://www.w3.org/2000/svg" viewBox="0 0 343.76 154.6"><defs><style>.cls-1,.cls-3,.cls-4{fill:#fff;}.cls-2,.cls-3,.cls-4{isolation:isolate;}.cls-3{font-size:39.97px;font-family:ArialMT, Arial;letter-spacing:0.1em;}.cls-4{font-size:98.57px;font-family:Arial-BoldMT, Arial;font-weight:700;}</style></defs><title>grupo 77 2</title><g id="Grupo_1" data-name="Grupo 1"><path id="Trazado_1" data-name="Trazado 1" class="cls-1" d="M161.76,208.93a29.13,29.13,0,0,0,28.1,29,12,12,0,0,0,4.41-9.28v-31a35.23,35.23,0,0,0-32.58-35v46.31Z" transform="translate(-125.08 -162.62)"/><path id="Trazado_2" data-name="Trazado 2" class="cls-1" d="M157.59,208.93a29.12,29.12,0,0,1-28.1,29,12,12,0,0,1-4.41-9.28v-31a35.23,35.23,0,0,1,32.59-35v46.31Z" transform="translate(-125.08 -162.62)"/><path id="Trazado_3" data-name="Trazado 3" class="cls-1" d="M182.09,240.82q.61,0,1.23-.12a32.85,32.85,0,0,1-23.47-21.48c-3.7,10.75-13.06,19-25.38,21.45a12.37,12.37,0,0,0,1.48.15Z" transform="translate(-125.08 -162.62)"/><g id="Preparatoria_" data-name="Preparatoria " class="cls-2"><text class="cls-3" transform="translate(75.84 37.2)">Preparatoria</text></g><g id="Index" class="cls-2"><text class="cls-4" transform="translate(75.84 117.49)">Index</text></g><path id="Trazado_4" data-name="Trazado 4" class="cls-1" d="M185.4,245.25h-50a5.61,5.61,0,0,0-4.15,9.38l22.18,24.46a15.71,15.71,0,0,1,14.27-.11l21.86-24.37a5.61,5.61,0,0,0-4.18-9.36Z" transform="translate(-125.08 -162.62)"/><path id="Trazado_5" data-name="Trazado 5" class="cls-1" d="M153.45,281.88l3,3.25a5.62,5.62,0,0,0,7.93.38c.14-.13.27-.27.4-.41l3-3.33A15.71,15.71,0,0,0,153.45,281.88Z" transform="translate(-125.08 -162.62)"/></g></svg>