<svg xmlns="http://www.w3.org/2000/svg" xmlns:svgjs="http://svgjs.com/svgjs" xmlns:xlink="http://www.w3.org/1999/xlink" width="288" height="288"><svg xmlns="http://www.w3.org/2000/svg" width="288" height="288" viewBox="0 0 48 48"><g fill="#fff" class="color000 svgShape" data-name="Capa 2"><g class="color000 svgShape" data-name="Capa 1"><path fill="none" stroke="#fff" stroke-linejoin="round" stroke-width="2" d="M8 9V5a4 4 0 014-4H36a4 4 0 014 4V9M40 34v9a4 4 0 01-4 4H12a4 4 0 01-4-4V34" class="colorStroke201602 svgStroke"/><line x1="19" x2="29" y1="5" y2="5" fill="none" stroke="#fff" stroke-linejoin="round" stroke-width="2" class="colorStroke201602 svgStroke"/><line x1="31" x2="33" y1="5" y2="5" fill="none" stroke="#fff" stroke-linejoin="round" stroke-width="2" class="colorStroke201602 svgStroke"/><line x1="31" x2="33" y1="43" y2="43" fill="none" stroke="#fff" stroke-linejoin="round" stroke-width="2" class="colorStroke201602 svgStroke"/><line x1="23" x2="25" y1="43" y2="43" fill="none" stroke="#fff" stroke-linejoin="round" stroke-width="2" class="colorStroke201602 svgStroke"/><line x1="15" x2="17" y1="43" y2="43" fill="none" stroke="#fff" stroke-linejoin="round" stroke-width="2" class="colorStroke201602 svgStroke"/><path fill="none" stroke="#fff" stroke-linejoin="round" stroke-width="2" d="M24 14a5 5 0 015-5H47V34H29a5 5 0 00-5 5zM24 14a5 5 0 00-5-5H1V34H19a5 5 0 015 5z" class="colorStroke201602 svgStroke"/><line x1="5" x2="15" y1="29" y2="29" fill="none" stroke="#fff" stroke-linejoin="round" stroke-width="2" class="colorStroke201602 svgStroke"/><line x1="11" x2="20" y1="24" y2="24" fill="none" stroke="#fff" stroke-linejoin="round" stroke-width="2" class="colorStroke201602 svgStroke"/><line x1="5" x2="9" y1="24" y2="24" fill="none" stroke="#fff" stroke-linejoin="round" stroke-width="2" class="colorStroke201602 svgStroke"/><line x1="14" x2="20" y1="19" y2="19" fill="none" stroke="#fff" stroke-linejoin="round" stroke-width="2" class="colorStroke201602 svgStroke"/><line x1="5" x2="12" y1="19" y2="19" fill="none" stroke="#fff" stroke-linejoin="round" stroke-width="2" class="colorStroke201602 svgStroke"/><line x1="35" x2="43" y1="29" y2="29" fill="none" stroke="#fff" stroke-linejoin="round" stroke-width="2" class="colorStroke201602 svgStroke"/><line x1="28" x2="33" y1="29" y2="29" fill="none" stroke="#fff" stroke-linejoin="round" stroke-width="2" class="colorStroke201602 svgStroke"/><line x1="28" x2="39" y1="24" y2="24" fill="none" stroke="#fff" stroke-linejoin="round" stroke-width="2" class="colorStroke201602 svgStroke"/><line x1="35" x2="43" y1="19" y2="19" fill="none" stroke="#fff" stroke-linejoin="round" stroke-width="2" class="colorStroke201602 svgStroke"/><line x1="28" x2="33" y1="19" y2="19" fill="none" stroke="#fff" stroke-linejoin="round" stroke-width="2" class="colorStroke201602 svgStroke"/><line x1="5" x2="20" y1="14" y2="14" fill="none" stroke="#fff" stroke-linejoin="round" stroke-width="2" class="colorStroke201602 svgStroke"/><line x1="38" x2="43" y1="14" y2="14" fill="none" stroke="#fff" stroke-linejoin="round" stroke-width="2" class="colorStroke201602 svgStroke"/><line x1="28" x2="36" y1="14" y2="14" fill="none" stroke="#fff" stroke-linejoin="round" stroke-width="2" class="colorStroke201602 svgStroke"/><line x1="8" x2="40" y1="39" y2="39" fill="none" stroke="#fff" stroke-linejoin="round" stroke-width="2" class="colorStroke201602 svgStroke"/></g></g></svg></svg>