<svg xmlns="http://www.w3.org/2000/svg" viewBox="0 0 48 48"><defs><style>.cls-1{fill:none;stroke:#201602;stroke-linejoin:round;stroke-width:2px;}</style></defs><title>Recurso 42</title><g id="Capa_2" data-name="Capa 2"><g id="Capa_1-2" data-name="Capa 1"><path class="cls-1" d="M8,9V5a4,4,0,0,1,4-4H36a4,4,0,0,1,4,4V9"/><path class="cls-1" d="M40,34v9a4,4,0,0,1-4,4H12a4,4,0,0,1-4-4V34"/><line class="cls-1" x1="19" y1="5" x2="29" y2="5"/><line class="cls-1" x1="31" y1="5" x2="33" y2="5"/><line class="cls-1" x1="31" y1="43" x2="33" y2="43"/><line class="cls-1" x1="23" y1="43" x2="25" y2="43"/><line class="cls-1" x1="15" y1="43" x2="17" y2="43"/><path class="cls-1" d="M24,14a5,5,0,0,1,5-5H47V34H29a5,5,0,0,0-5,5Z"/><path class="cls-1" d="M24,14a5,5,0,0,0-5-5H1V34H19a5,5,0,0,1,5,5Z"/><line class="cls-1" x1="5" y1="29" x2="15" y2="29"/><line class="cls-1" x1="11" y1="24" x2="20" y2="24"/><line class="cls-1" x1="5" y1="24" x2="9" y2="24"/><line class="cls-1" x1="14" y1="19" x2="20" y2="19"/><line class="cls-1" x1="5" y1="19" x2="12" y2="19"/><line class="cls-1" x1="35" y1="29" x2="43" y2="29"/><line class="cls-1" x1="28" y1="29" x2="33" y2="29"/><line class="cls-1" x1="28" y1="24" x2="39" y2="24"/><line class="cls-1" x1="35" y1="19" x2="43" y2="19"/><line class="cls-1" x1="28" y1="19" x2="33" y2="19"/><line class="cls-1" x1="5" y1="14" x2="20" y2="14"/><line class="cls-1" x1="38" y1="14" x2="43" y2="14"/><line class="cls-1" x1="28" y1="14" x2="36" y2="14"/><line class="cls-1" x1="8" y1="39" x2="40" y2="39"/></g></g></svg>