<svg xmlns="http://www.w3.org/2000/svg" viewBox="0 0 48 48"><defs><style>.cls-1{fill:none;stroke:#201602;stroke-linejoin:round;stroke-width:2px;}</style></defs><title>Recurso 14</title><g id="Capa_2" data-name="Capa 2"><g id="Capa_1-2" data-name="Capa 1"><ellipse class="cls-1" cx="10" cy="6" rx="4" ry="5"/><line class="cls-1" x1="2" y1="47" x2="18" y2="47"/><line class="cls-1" x1="5" y1="16" x2="5" y2="47"/><line class="cls-1" x1="10" y1="31" x2="10" y2="47"/><path class="cls-1" d="M5,16V29H3a2,2,0,0,1-2-2V15.58a4,4,0,0,1,3.56-4L10,11H28a2,2,0,0,1,0,4H15V47"/><line class="cls-1" x1="5" y1="27" x2="15" y2="27"/><polyline class="cls-1" points="22 9 22 1 47 1 47 47 22 47 22 17"/><line class="cls-1" x1="34" y1="5" x2="36" y2="5"/><line class="cls-1" x1="38" y1="5" x2="40" y2="5"/><line class="cls-1" x1="42" y1="5" x2="44" y2="5"/><line class="cls-1" x1="31" y1="9" x2="47" y2="9"/><line class="cls-1" x1="36" y1="36" x2="43" y2="36"/><line class="cls-1" x1="26" y1="36" x2="34" y2="36"/><line class="cls-1" x1="33" y1="41" x2="40" y2="41"/><line class="cls-1" x1="26" y1="41" x2="31" y2="41"/><polygon class="cls-1" points="31 19 31 31 39 25 31 19"/></g></g></svg>