<svg xmlns="http://www.w3.org/2000/svg" viewBox="0 0 48 48"><defs><style>.cls-1{fill:none;stroke:#201602;stroke-linejoin:round;stroke-width:2px;}</style></defs><title>Recurso 11</title><g id="Capa_2" data-name="Capa 2"><g id="Capa_1-2" data-name="Capa 1"><polygon class="cls-1" points="24 13 1 7 24 1 47 7 24 13"/><polygon class="cls-1" points="24 13 13 10.13 13 17 24 20 35 17 35 10.13 24 13"/><line class="cls-1" x1="47" y1="7" x2="47" y2="16"/><rect class="cls-1" x="16" y="41" width="16" height="6"/><path class="cls-1" d="M35,17h7a2,2,0,0,1,2,2V39a2,2,0,0,1-2,2H6a2,2,0,0,1-2-2V19a2,2,0,0,1,2-2h7"/><line class="cls-1" x1="8" y1="47" x2="40" y2="47"/><line class="cls-1" x1="18" y1="26" x2="23" y2="26"/><line class="cls-1" x1="8" y1="26" x2="16" y2="26"/><line class="cls-1" x1="15" y1="31" x2="23" y2="31"/><line class="cls-1" x1="8" y1="31" x2="13" y2="31"/><line class="cls-1" x1="8" y1="36" x2="19" y2="36"/><polygon class="cls-1" points="34 31 31 37 27 24 40 28 34 31"/></g></g></svg>