<svg xmlns="http://www.w3.org/2000/svg" viewBox="0 0 48 48"><defs><style>.cls-1{fill:none;stroke:#201602;stroke-linejoin:round;stroke-width:2px;}</style></defs><title>Recurso 13</title><g id="Capa_2" data-name="Capa 2"><g id="Capa_1-2" data-name="Capa 1"><line class="cls-1" x1="43" y1="37" x2="45" y2="37"/><line class="cls-1" x1="43" y1="47" x2="45" y2="47"/><line class="cls-1" x1="45" y1="19" x2="47" y2="19"/><line class="cls-1" x1="45" y1="29" x2="47" y2="29"/><polygon class="cls-1" points="24 13 1 7 24 1 47 7 24 13"/><polygon class="cls-1" points="24 13 13 10.13 13 19 24 22 35 19 35 10.13 24 13"/><line class="cls-1" x1="47" y1="7" x2="47" y2="16"/><path class="cls-1" d="M13,19H12a5,5,0,0,0,0,10H45a7.24,7.24,0,0,1,0-10H35"/><line class="cls-1" x1="20" y1="24" x2="12" y2="24"/><line class="cls-1" x1="39" y1="24" x2="28" y2="24"/><path class="cls-1" d="M43,37H7a4,4,0,0,0-4,4v2a4,4,0,0,0,4,4H43A7.24,7.24,0,0,1,43,37Z"/><line class="cls-1" x1="27" y1="42" x2="16" y2="42"/><line class="cls-1" x1="37" y1="42" x2="30" y2="42"/><path class="cls-1" d="M4,37H40c-2.67-2.76-2.67-5.24,0-8H4a3,3,0,0,0-3,3v2A3,3,0,0,0,4,37Z"/><line class="cls-1" x1="14" y1="33" x2="7" y2="33"/><line class="cls-1" x1="32" y1="33" x2="17" y2="33"/></g></g></svg>