<svg xmlns="http://www.w3.org/2000/svg" viewBox="0 0 48 48"><defs><style>.cls-1{fill:none;stroke:#201602;stroke-linejoin:round;stroke-width:2px;}</style></defs><title>Recurso 17</title><g id="Capa_2" data-name="Capa 2"><g id="Capa_1-2" data-name="Capa 1"><path class="cls-1" d="M18,37H2a1,1,0,0,1-1-1V2A1,1,0,0,1,2,1H46a1,1,0,0,1,1,1V36a1,1,0,0,1-1,1H30"/><path class="cls-1" d="M17,31H10a3,3,0,0,0-3-3V10a3,3,0,0,0,3-3H38a3,3,0,0,0,3,3V28a3,3,0,0,0-3,3H31"/><line class="cls-1" x1="17" y1="12" x2="31" y2="12"/><line class="cls-1" x1="26" y1="17" x2="37" y2="17"/><line class="cls-1" x1="11" y1="17" x2="24" y2="17"/><line class="cls-1" x1="19" y1="22" x2="33" y2="22"/><line class="cls-1" x1="11" y1="22" x2="17" y2="22"/><circle class="cls-1" cx="24" cy="33" r="7"/><path class="cls-1" d="M24,30a3,3,0,0,1,3,3"/><polyline class="cls-1" points="29 38 29 47 24 45 19 47 19 38"/></g></g></svg>